<?xml version="1.0" encoding="UTF-8" standalone="no"?>
<!-- Generator: Adobe Illustrator 14.0.0, SVG Export Plug-In . SVG Version: 6.00 Build 43363)  -->

<svg
   xmlns:dc="http://purl.org/dc/elements/1.1/"
   xmlns:cc="http://creativecommons.org/ns#"
   xmlns:rdf="http://www.w3.org/1999/02/22-rdf-syntax-ns#"
   xmlns:svg="http://www.w3.org/2000/svg"
   xmlns="http://www.w3.org/2000/svg"
   xmlns:sodipodi="http://sodipodi.sourceforge.net/DTD/sodipodi-0.dtd"
   xmlns:inkscape="http://www.inkscape.org/namespaces/inkscape"
   version="1.1"
   x="0px"
   y="0px"
   width="49.083305"
   height="50.338463"
   viewBox="0 0 49.083305 50.338463"
   enable-background="new 0 0 780 650"
   xml:space="preserve"
   id="svg4479"
   inkscape:version="0.48.1 r9760"
   sodipodi:docname="alarmclock.svg"><metadata
   id="metadata5933"><rdf:RDF><cc:Work
       rdf:about=""><dc:format>image/svg+xml</dc:format><dc:type
         rdf:resource="http://purl.org/dc/dcmitype/StillImage" /><dc:title /></cc:Work></rdf:RDF></metadata><defs
   id="defs5931">
	

		
		
		
		
	</defs><sodipodi:namedview
   pagecolor="#ffffff"
   bordercolor="#666666"
   borderopacity="1"
   objecttolerance="10"
   gridtolerance="10"
   guidetolerance="10"
   inkscape:pageopacity="0"
   inkscape:pageshadow="2"
   inkscape:window-width="1400"
   inkscape:window-height="975"
   id="namedview5929"
   showgrid="false"
   inkscape:zoom="3.1876923"
   inkscape:cx="67.855694"
   inkscape:cy="53.619641"
   inkscape:window-x="0"
   inkscape:window-y="25"
   inkscape:window-maximized="1"
   inkscape:current-layer="svg4479"
   fit-margin-top="1"
   fit-margin-left="1"
   fit-margin-right="0.5"
   fit-margin-bottom="0.5"
   units="mm" />

















































































































<path
   style="fill:#000000"
   d="M 38.802985,41.455411 C 44.0106,36.333791 45.700582,28.067651 42.949959,21.305831 40.289065,14.326181 33.149624,9.3736307 25.671325,9.3829507 18.264753,9.1843107 11.060609,13.856941 8.171879,20.670371 c -3.0331476,6.73252 -1.5715315,15.16942 3.579483,20.46798 1.022633,0.57806 -0.375398,1.15339 -0.736111,1.73177 -1.2852807,1.00973 -1.9172079,2.92538 -0.886688,4.34582 1.107313,1.7795 3.859365,1.69607 5.03028,0.0331 0.688381,-0.70387 1.376761,-1.40773 2.065142,-2.1116 5.164197,2.56498 11.512504,2.52228 16.641,-0.114 1.189247,1.09278 2.143146,2.49365 3.561375,3.2925 2.18979,1.0345 4.826423,-1.31924 4.046397,-3.6116 -0.456206,-1.34602 -1.768983,-2.20083 -2.669772,-3.2489 z m -13.375,-0.443 c -6.021546,0.11887 -11.643415,-4.59966 -12.600781,-10.53975 -1.161257,-5.82413 2.358288,-12.09463 7.910602,-14.17694 5.397942,-2.24122 12.124233,-0.13918 15.304017,4.75976 3.429369,4.87182 2.730065,12.07576 -1.565213,16.20256 -2.363176,2.38441 -5.68957,3.77275 -9.048625,3.75437 z"
   id="path5845"
   inkscape:connector-curvature="0" /><g
   id="g5847"
   transform="translate(-4.2490149,-533.24659)"
   style="fill:#000000">
			<path
   d="m 36.456,562.962 h -8.285 v -10.543 c 0,-0.832 0.674,-1.506 1.506,-1.506 0.834,0 1.508,0.674 1.508,1.506 v 7.531 h 5.271 c 0.832,0 1.506,0.674 1.506,1.506 0,0.832 -0.674,1.506 -1.506,1.506 l 0,0 z"
   id="path5849"
   inkscape:connector-curvature="0"
   style="fill:#000000" />
		</g><path
   d="m 8.7869851,4.8364107 c -4.855,2.803 -5.238,8.7190003 -5.238,8.7190003 -0.082,1.24 0.734,1.746 1.811,1.125 L 19.023985,6.7894107 c 1.076,-0.621 1.047,-1.58 -0.066,-2.129 -0.001,0 -5.317,-2.627 -10.1709999,0.176 z"
   id="path5851"
   inkscape:connector-curvature="0"
   style="fill:#000000" /><path
   d="m 42.069985,4.8364107 c 4.855,2.803 5.236,8.7190003 5.236,8.7190003 0.082,1.24 -0.736,1.746 -1.811,1.125 l -13.664,-7.8910003 c -1.076,-0.621 -1.045,-1.58 0.068,-2.129 0.001,0 5.318,-2.627 10.171,0.176 z"
   id="path5853"
   inkscape:connector-curvature="0"
   style="fill:#000000" />








</svg>