<?xml version="1.0" encoding="UTF-8" standalone="no"?>
<!-- Generator: Adobe Illustrator 14.0.0, SVG Export Plug-In . SVG Version: 6.00 Build 43363)  -->

<svg
   xmlns:dc="http://purl.org/dc/elements/1.1/"
   xmlns:cc="http://creativecommons.org/ns#"
   xmlns:rdf="http://www.w3.org/1999/02/22-rdf-syntax-ns#"
   xmlns:svg="http://www.w3.org/2000/svg"
   xmlns="http://www.w3.org/2000/svg"
   xmlns:sodipodi="http://sodipodi.sourceforge.net/DTD/sodipodi-0.dtd"
   xmlns:inkscape="http://www.inkscape.org/namespaces/inkscape"
   version="1.1"
   x="0px"
   y="0px"
   width="52.085613"
   height="52.086113"
   viewBox="0 0 52.085613 52.086113"
   enable-background="new 0 0 780 650"
   xml:space="preserve"
   id="svg5339"
   inkscape:version="0.48.1 r9760"
   sodipodi:docname="feedback.svg"><metadata
   id="metadata6793"><rdf:RDF><cc:Work
       rdf:about=""><dc:format>image/svg+xml</dc:format><dc:type
         rdf:resource="http://purl.org/dc/dcmitype/StillImage" /><dc:title></dc:title></cc:Work></rdf:RDF></metadata><defs
   id="defs6791" /><sodipodi:namedview
   pagecolor="#ffffff"
   bordercolor="#666666"
   borderopacity="1"
   objecttolerance="10"
   gridtolerance="10"
   guidetolerance="10"
   inkscape:pageopacity="0"
   inkscape:pageshadow="2"
   inkscape:window-width="1400"
   inkscape:window-height="975"
   id="namedview6789"
   showgrid="false"
   units="mm"
   fit-margin-top="1"
   fit-margin-left="1"
   fit-margin-right="1"
   fit-margin-bottom="1"
   inkscape:zoom="1.1270194"
   inkscape:cx="-85.290252"
   inkscape:cy="-30.615076"
   inkscape:window-x="0"
   inkscape:window-y="25"
   inkscape:window-maximized="1"
   inkscape:current-layer="svg5339" />



























<g
   id="Cross"
   style="fill:#000000"
   transform="translate(-543.92594,-293.21194)">
	<path
   d="m 579.088,319.255 12.91,-12.908 c 0.627,-0.627 0.627,-1.654 0,-2.281 l -6.84,-6.842 c -0.627,-0.625 -1.652,-0.625 -2.279,0 l -12.91,12.91 -12.91,-12.91 c -0.627,-0.625 -1.654,-0.625 -2.281,0 l -6.84,6.842 c -0.625,0.627 -0.625,1.654 0,2.281 l 12.91,12.908 -12.908,12.908 c -0.627,0.627 -0.627,1.654 0,2.281 l 6.84,6.842 c 0.627,0.625 1.654,0.625 2.281,0 l 12.908,-12.91 12.908,12.91 c 0.627,0.625 1.652,0.625 2.279,0 l 6.84,-6.842 c 0.627,-0.627 0.627,-1.654 0,-2.281 l -12.908,-12.908 z"
   id="path6009"
   style="fill:#000000"
   inkscape:connector-curvature="0" />
</g>






























































































</svg>