<?xml version="1.0" encoding="UTF-8" standalone="no"?>
<!-- Generator: Adobe Illustrator 14.0.0, SVG Export Plug-In . SVG Version: 6.00 Build 43363)  -->

<svg
   xmlns:dc="http://purl.org/dc/elements/1.1/"
   xmlns:cc="http://creativecommons.org/ns#"
   xmlns:rdf="http://www.w3.org/1999/02/22-rdf-syntax-ns#"
   xmlns:svg="http://www.w3.org/2000/svg"
   xmlns="http://www.w3.org/2000/svg"
   xmlns:sodipodi="http://sodipodi.sourceforge.net/DTD/sodipodi-0.dtd"
   xmlns:inkscape="http://www.inkscape.org/namespaces/inkscape"
   version="1.1"
   x="0px"
   y="0px"
   width="52.08662"
   height="51.883541"
   viewBox="0 0 52.08662 51.883542"
   enable-background="new 0 0 780 650"
   xml:space="preserve"
   id="svg4479"
   inkscape:version="0.48.1 r9760"
   sodipodi:docname="settings.svg"><metadata
   id="metadata5933"><rdf:RDF><cc:Work
       rdf:about=""><dc:format>image/svg+xml</dc:format><dc:type
         rdf:resource="http://purl.org/dc/dcmitype/StillImage" /><dc:title /></cc:Work></rdf:RDF></metadata><defs
   id="defs5931">
	

		
		
	</defs><sodipodi:namedview
   pagecolor="#ffffff"
   bordercolor="#666666"
   borderopacity="1"
   objecttolerance="10"
   gridtolerance="10"
   guidetolerance="10"
   inkscape:pageopacity="0"
   inkscape:pageshadow="2"
   inkscape:window-width="1400"
   inkscape:window-height="975"
   id="namedview5929"
   showgrid="false"
   inkscape:zoom="8.4157556"
   inkscape:cx="26.043304"
   inkscape:cy="25.941766"
   inkscape:window-x="0"
   inkscape:window-y="25"
   inkscape:window-maximized="1"
   inkscape:current-layer="svg4479"
   units="mm"
   fit-margin-top="1"
   fit-margin-left="1"
   fit-margin-right="1"
   fit-margin-bottom="1" />





























































































<path
   d="m 46.0083,15.65124 c -0.181,-0.441 -0.497,-0.633 -0.703,-0.426 -0.206,0.205 -0.575,0.451 -0.819,0.543 -0.244,0.094 -1.056,-0.443 -1.392,-0.779 h -10e-4 c -0.336,-0.338 -0.688,-0.813 -0.78,-1.057 -0.092,-0.244 0.444,-1.055 0.78,-1.393 l 0.011,-0.01 c 0.337,-0.338 0.348,-0.898 0.023,-1.248 l -3.978,-3.666 c -0.374,-0.295 -0.851,-0.248 -1.059,0.104 -0.209,0.35 -0.555,0.76 -0.769,0.91 -0.214,0.148 -1.133,-0.17 -1.541,-0.414 -0.409,-0.242 -0.866,-0.617 -1.017,-0.83 -0.149,-0.215 0.132,-1.066 0.326,-1.393 0.194,-0.328 -0.013,-0.729 -0.461,-0.889 l -5.998,-1.547 c -0.47,-0.078 -0.854,0.205 -0.854,0.631 0,0.426 -0.088,0.969 -0.194,1.207 -0.107,0.238 -1.061,0.434 -1.536,0.434 -0.475,0 -1.06,-0.088 -1.298,-0.195 -0.238,-0.107 -0.433,-1.02 -0.433,-1.445 0,-0.425 -0.384,-0.709 -0.854,-0.631 l -5.998,1.547 c -0.448,0.16 -0.655,0.561 -0.461,0.889 0.195,0.326 0.379,0.807 0.408,1.066 0.03,0.258 -0.689,0.914 -1.099,1.156 -0.408,0.244 -0.955,0.467 -1.215,0.496 -0.26,0.029 -0.885,-0.643 -1.095,-0.992 -0.208,-0.352 -0.686,-0.398 -1.06,-0.104 l -3.978,3.666 c -0.324,0.35 -0.313,0.91 0.024,1.248 l 0.011,0.01 c 0.336,0.338 0.688,0.813 0.78,1.057 0.092,0.244 -0.444,1.055 -0.781,1.393 -0.336,0.336 -0.812,0.688 -1.056,0.779 -0.244,0.091 -0.949,-0.338 -1.155,-0.543 -0.206,-0.207 -0.522,-0.016 -0.703,0.426 0,0 -2.54,6.197 -2.54,10.189 0,12.428 10.073,22.5 22.5,22.5 12.427,0 22.5,-10.072 22.5,-22.5 0.005,-3.992 -2.535,-10.189 -2.535,-10.189 z m -19.96,21.541 c -6.213,0 -11.25,-5.037 -11.25,-11.25 0,-5.076 3.363,-9.363 7.981,-10.764 l 2.882,-5.764 c 0.213,-0.426 0.561,-0.426 0.773,0 l 2.882,5.764 c 4.619,1.4 7.981,5.688 7.981,10.764 10e-4,6.213 -5.036,11.25 -11.249,11.25 z"
   id="path5687"
   inkscape:connector-curvature="0"
   style="fill:#000000" /><path
   d="m 26.0483,18.15324 c -4.295,0 -7.788,3.494 -7.788,7.789 0,4.295 3.493,7.787 7.788,7.787 4.295,0 7.788,-3.492 7.788,-7.787 0,-4.295 -3.493,-7.789 -7.788,-7.789 z"
   id="path5689"
   inkscape:connector-curvature="0"
   style="fill:#000000" />




























</svg>