<?xml version="1.0" encoding="UTF-8" standalone="no"?>
<svg
   height="24"
   width="24"
   version="1.1"
   id="svg3795"
   xmlns="http://www.w3.org/2000/svg"
   xmlns:svg="http://www.w3.org/2000/svg">
  <defs
     id="defs3799" />
  <g
     id="layer6"
     style="display:inline">
    <path
       d="m 14.00034,19.499639 v -0.999958 h 0.999958 V 14.99983 q 0,-1.037455 0.624973,-1.843921 0.624974,-0.805965 1.624931,-1.055955 v -0.349985 q 0,-0.312487 0.218991,-0.530977 Q 17.687683,11 18.00017,11 q 0.312487,0 0.530978,0.218992 0.21899,0.21849 0.21899,0.530977 v 0.349985 q 0.999958,0.24999 1.624931,1.055955 0.624974,0.806466 0.624974,1.843921 v 3.499851 H 22 v 0.999958 z m 3.99983,1.499936 q -0.412482,0 -0.705969,-0.293487 -0.293988,-0.293988 -0.293988,-0.70647 h 1.999915 q 0,0.412482 -0.293488,0.70647 -0.293987,0.293487 -0.70647,0.293487 z"
       id="path4404"
       style="stroke-width:0.499979" />
    <path
       d="M 3,8 V 6 h 12 v 2 z"
       id="path3975-6"
       style="display:inline" />
    <path
       d="m 3,12 v -2 h 11.013072 v 2 z"
       id="path3973-7"
       style="display:inline;stroke-width:0.957996" />
    <path
       d="m 3,16 v -2 h 9.99738 v 2 z"
       id="path3793-5"
       style="display:inline;stroke-width:1.11789" />
  </g>
</svg>
