<svg xmlns="http://www.w3.org/2000/svg" xmlns:svg="http://www.w3.org/2000/svg" id="svg4479" width="780" height="650" x="0" y="0" enable-background="new 0 0 780 650" version="1.1" viewBox="0 0 780 650" xml:space="preserve"><metadata id="metadata5933"/><g id="Date_-_today"><g id="g5715" fill="#000"><path id="path5717" fill="#000" d="M170.173,313.401c0.574,0,1.041-0.47,1.041-1.041v-8.29c0-0.573-0.467-1.042-1.041-1.042h-8.844v-4.19 c0-1.146-0.939-2.083-2.086-2.083h-2.084c-1.146,0-2.082,0.937-2.082,2.083v4.19h-11.348v-4.19c0-1.146-0.938-2.083-2.084-2.083 h-2.082c-1.146,0-2.086,0.937-2.086,2.083v4.19h-8.844c-0.574,0-1.041,0.47-1.041,1.042v8.29c0,0.571,0.467,1.041,1.041,1.041 H170.173z"/><path id="path5719" fill="#000" d="M141.763,325.963c0,0.281-0.229,0.51-0.51,0.51h-11.207c-0.279,0-0.51-0.229-0.51-0.51v-10.188 c0-0.28,0.229-0.509,0.51-0.509h11.207c0.281,0,0.51,0.229,0.51,0.509V325.963z"/><path id="path5721" fill="#000" d="M141.763,339.208c0,0.28-0.229,0.509-0.51,0.509h-11.207c-0.279,0-0.51-0.229-0.51-0.509v-10.188 c0-0.281,0.229-0.509,0.51-0.509h11.207c0.281,0,0.51,0.229,0.51,0.509V339.208z"/><path id="path5723" fill="#000" d="M169.271,326.474v12.225h-14.264v-12.225H169.271 M169.271,323.417h-14.264 c-1.688,0-3.057,1.368-3.057,3.057v12.225c0,1.688,1.367,3.057,3.057,3.057h14.264c1.688,0,3.057-1.368,3.057-3.057v-12.225 C172.325,324.784,170.958,323.417,169.271,323.417L169.271,323.417z"/><path id="path5725" fill="#000" d="M169.271,321.378c0.35,0,0.689,0.036,1.02,0.103v-5.706c0-0.28-0.23-0.509-0.51-0.509h-11.207 c-0.281,0-0.512,0.229-0.512,0.509v5.604L169.271,321.378L169.271,321.378z"/><path id="path5727" fill="#000" d="M155.007,321.378h1.02v-5.604c0-0.28-0.229-0.509-0.51-0.509H144.31c-0.279,0-0.51,0.229-0.51,0.509 v10.188c0,0.281,0.23,0.51,0.51,0.51h5.604C149.913,323.659,152.192,321.378,155.007,321.378z"/><path id="path5729" fill="#000" d="M149.913,338.698V328.51h-5.605c-0.279,0-0.508,0.229-0.508,0.509v10.188c0,0.28,0.229,0.509,0.508,0.509 h5.707C149.948,339.387,149.913,339.047,149.913,338.698z"/></g></g></svg>