<?xml version="1.0" encoding="UTF-8" standalone="no"?>
<!-- Generator: Adobe Illustrator 14.0.0, SVG Export Plug-In . SVG Version: 6.00 Build 43363)  -->

<svg
   xmlns:dc="http://purl.org/dc/elements/1.1/"
   xmlns:cc="http://creativecommons.org/ns#"
   xmlns:rdf="http://www.w3.org/1999/02/22-rdf-syntax-ns#"
   xmlns:svg="http://www.w3.org/2000/svg"
   xmlns="http://www.w3.org/2000/svg"
   xmlns:sodipodi="http://sodipodi.sourceforge.net/DTD/sodipodi-0.dtd"
   xmlns:inkscape="http://www.inkscape.org/namespaces/inkscape"
   version="1.1"
   x="0px"
   y="0px"
   width="780px"
   height="650px"
   viewBox="0 0 780 650"
   enable-background="new 0 0 780 650"
   xml:space="preserve"
   id="svg4479"
   inkscape:version="0.48.1 r9760"
   sodipodi:docname="android-native-final.svg"><metadata
   id="metadata5933"><rdf:RDF><cc:Work
       rdf:about=""><dc:format>image/svg+xml</dc:format><dc:type
         rdf:resource="http://purl.org/dc/dcmitype/StillImage" /><dc:title></dc:title></cc:Work></rdf:RDF></metadata><defs
   id="defs5931" /><sodipodi:namedview
   pagecolor="#ffffff"
   bordercolor="#666666"
   borderopacity="1"
   objecttolerance="10"
   gridtolerance="10"
   guidetolerance="10"
   inkscape:pageopacity="0"
   inkscape:pageshadow="2"
   inkscape:window-width="1280"
   inkscape:window-height="949"
   id="namedview5929"
   showgrid="false"
   inkscape:zoom="4.204058"
   inkscape:cx="148.0695"
   inkscape:cy="342.56757"
   inkscape:window-x="0"
   inkscape:window-y="25"
   inkscape:window-maximized="1"
   inkscape:current-layer="svg4479" />

































































































<g
   id="Date_-_today">
	<g
   id="g5715"
   style="fill:#000000">
		<path
   fill="#4F5433"
   d="M170.173,313.401c0.574,0,1.041-0.47,1.041-1.041v-8.29c0-0.573-0.467-1.042-1.041-1.042h-8.844v-4.19    c0-1.146-0.939-2.083-2.086-2.083h-2.084c-1.146,0-2.082,0.937-2.082,2.083v4.19h-11.348v-4.19c0-1.146-0.938-2.083-2.084-2.083    h-2.082c-1.146,0-2.086,0.937-2.086,2.083v4.19h-8.844c-0.574,0-1.041,0.47-1.041,1.042v8.29c0,0.571,0.467,1.041,1.041,1.041    H170.173z"
   id="path5717"
   style="fill:#000000" />
		<path
   fill="#4F5433"
   d="M141.763,325.963c0,0.281-0.229,0.51-0.51,0.51h-11.207c-0.279,0-0.51-0.229-0.51-0.51v-10.188    c0-0.28,0.229-0.509,0.51-0.509h11.207c0.281,0,0.51,0.229,0.51,0.509V325.963z"
   id="path5719"
   style="fill:#000000" />
		<path
   fill="#4F5433"
   d="M141.763,339.208c0,0.28-0.229,0.509-0.51,0.509h-11.207c-0.279,0-0.51-0.229-0.51-0.509v-10.188    c0-0.281,0.229-0.509,0.51-0.509h11.207c0.281,0,0.51,0.229,0.51,0.509V339.208z"
   id="path5721"
   style="fill:#000000" />
		<path
   fill="#4F5433"
   d="M169.271,326.474v12.225h-14.264v-12.225H169.271 M169.271,323.417h-14.264    c-1.688,0-3.057,1.368-3.057,3.057v12.225c0,1.688,1.367,3.057,3.057,3.057h14.264c1.688,0,3.057-1.368,3.057-3.057v-12.225    C172.325,324.784,170.958,323.417,169.271,323.417L169.271,323.417z"
   id="path5723"
   style="fill:#000000" />
		<path
   fill="#4F5433"
   d="M169.271,321.378c0.35,0,0.689,0.036,1.02,0.103v-5.706c0-0.28-0.23-0.509-0.51-0.509h-11.207    c-0.281,0-0.512,0.229-0.512,0.509v5.604L169.271,321.378L169.271,321.378z"
   id="path5725"
   style="fill:#000000" />
		<path
   fill="#4F5433"
   d="M155.007,321.378h1.02v-5.604c0-0.28-0.229-0.509-0.51-0.509H144.31c-0.279,0-0.51,0.229-0.51,0.509    v10.188c0,0.281,0.23,0.51,0.51,0.51h5.604C149.913,323.659,152.192,321.378,155.007,321.378z"
   id="path5727"
   style="fill:#000000" />
		<path
   fill="#4F5433"
   d="M149.913,338.698V328.51h-5.605c-0.279,0-0.508,0.229-0.508,0.509v10.188c0,0.28,0.229,0.509,0.508,0.509    h5.707C149.948,339.387,149.913,339.047,149.913,338.698z"
   id="path5729"
   style="fill:#000000" />
	</g>
</g>
























</svg>