<?xml version="1.0" encoding="UTF-8" standalone="no"?>
<!-- Created with Inkscape (http://www.inkscape.org/) -->

<svg
   xmlns:dc="http://purl.org/dc/elements/1.1/"
   xmlns:cc="http://creativecommons.org/ns#"
   xmlns:rdf="http://www.w3.org/1999/02/22-rdf-syntax-ns#"
   xmlns:svg="http://www.w3.org/2000/svg"
   xmlns="http://www.w3.org/2000/svg"
   xmlns:sodipodi="http://sodipodi.sourceforge.net/DTD/sodipodi-0.dtd"
   xmlns:inkscape="http://www.inkscape.org/namespaces/inkscape"
   width="174.04134mm"
   height="107.4827mm"
   viewBox="0 0 616.6819 380.8442"
   id="svg2"
   version="1.1"
   inkscape:version="0.91 r13725"
   sodipodi:docname="Fairydust.svg"
   inkscape:export-filename="C:\Users\Toshiba\Downloads\fairydust.png"
   inkscape:export-xdpi="145"
   inkscape:export-ydpi="145">
  <defs
     id="defs4" />
  <sodipodi:namedview
     id="base"
     pagecolor="#3d3d3d"
     bordercolor="#666666"
     borderopacity="1.0"
     inkscape:pageopacity="0"
     inkscape:pageshadow="2"
     inkscape:zoom="0.7"
     inkscape:cx="216.1168"
     inkscape:cy="361.11192"
     inkscape:document-units="px"
     inkscape:current-layer="layer1"
     showgrid="false"
     inkscape:window-width="1440"
     inkscape:window-height="876"
     inkscape:window-x="0"
     inkscape:window-y="24"
     inkscape:window-maximized="1"
     inkscape:document-rotation="0"
     fit-margin-top="0"
     fit-margin-left="0"
     fit-margin-right="0"
     fit-margin-bottom="0" />
  <metadata
     id="metadata7">
    <rdf:RDF>
      <cc:Work
         rdf:about="">
        <dc:format>image/svg+xml</dc:format>
        <dc:type
           rdf:resource="http://purl.org/dc/dcmitype/StillImage" />
        <dc:title></dc:title>
      </cc:Work>
    </rdf:RDF>
  </metadata>
  <g
     inkscape:label="Ebene 1"
     inkscape:groupmode="layer"
     id="layer1"
     transform="translate(-64.425765,-139.14844)">
    <path
       style="fill:#ffffff;fill-opacity:1;fill-rule:evenodd;stroke:#ffffff;stroke-width:25;stroke-linecap:round;stroke-linejoin:round;stroke-miterlimit:4;stroke-dasharray:none;stroke-opacity:1"
       d="m 523.03516,151.64844 a 48.214283,40 0 0 0 -30.47266,9.0332 c -49.32998,8.44253 -106.21325,34.97892 -174.97656,89.98047 -42.57081,-4.90105 -85.20003,-9.4238 -134.34961,27.7793 0.0626,4.85111 -0.8586,10.19435 3.02929,13.13281 -15.82024,7.55052 -31.28422,16.16542 -44.44531,31.69336 -10.48165,8.17592 25.39923,36.6668 31.31446,33.08203 29.3928,-18.58566 63.5782,-20.32904 100.50976,-16.28906 6.27212,18.51913 15.40196,34.22143 30.24414,48.93164 -2.02998,38.3518 -24.52758,63.85265 -64.58984,84.4082 -2.39206,1.25657 10.74294,33.18976 14.64844,33.8418 38.93497,4.43822 145.32409,-61.79891 162.99218,-117.33203 l 0.36719,-1.01758 c 115.20735,-20.93403 186.2961,-78.86186 220.75,-187.66406 1.56722,-5.67937 12.60015,-13.33445 30.55859,-24.30664 -13.53207,4.03167 -29.90122,11.42963 -36.36718,7.07031 -33.08321,-17.49082 -59.38455,-24.67454 -81,-24.73438 a 48.214283,40 0 0 0 -28.21289,-7.60937 z M 251.63281,344.98633 c -18.52327,0.77568 -34.16765,20.79943 -45.41601,46.8457 -43.72558,27.57435 -89.84611,52.7524 -129.298831,84.59961 50.831831,-24.28177 100.153421,-49.58186 151.017581,-61.61914 32.18005,33.80557 46.07383,-1.19501 59.3457,-22.72852 l -4.42969,-9.77929 c 0.0195,-0.0316 0.0392,-0.0662 0.0586,-0.0977 L 271.68164,357.4668 c -0.0347,-0.0191 -0.0688,-0.0339 -0.10352,-0.0527 l -3.74218,-8.26172 c -5.60465,-3.09099 -11.01661,-4.3832 -16.20313,-4.16601 z"
       id="path4167"
       inkscape:export-xdpi="145.94"
       inkscape:export-ydpi="145.94"
       inkscape:connector-curvature="0" />
    <path
       style="fill:#004204;fill-opacity:1;fill-rule:evenodd;stroke:none;stroke-width:1px;stroke-linecap:butt;stroke-linejoin:miter;stroke-opacity:1"
       d="m 239.29953,473.40122 c -2.39206,1.25657 10.74171,33.18807 14.64721,33.84011 39.17068,4.46509 146.62981,-62.60512 163.3182,-118.34103 115.23165,-20.92769 186.33429,-78.85685 220.79231,-187.67205 1.56722,-5.67937 12.59867,-13.33461 30.55711,-24.3068 -13.53207,4.03168 -29.89953,11.43039 -36.36549,7.07107 -33.75639,-17.84672 -60.46643,-24.98299 -82.32744,-24.74874 -11.93406,-6.26857 -31.20507,-8.00766 -43.43656,-0.50508 -52.50011,5.56636 -113.57412,31.67434 -188.89852,91.92389 -42.57081,-4.90105 -85.20071,-9.42391 -134.35029,27.77919 0.0626,4.85111 -0.85744,10.19352 3.03046,13.13198 -15.82024,7.55052 -31.28562,16.1656 -44.44671,31.69354 -10.48165,8.17592 25.39949,36.66727 31.31472,33.0825 29.3928,-18.58566 63.57862,-20.32869 100.51018,-16.28871 6.27212,18.51913 15.40112,34.22091 30.2433,48.93112 -2.02998,38.3518 -24.52622,63.85346 -64.58848,84.40901 z"
       id="path4147"
       inkscape:connector-curvature="0"
       sodipodi:nodetypes="cccccccccccccccc"
       inkscape:export-xdpi="145.94"
       inkscape:export-ydpi="145.94" />
    <path
       style="fill:#ee9700;fill-opacity:1;fill-rule:evenodd;stroke:none;stroke-width:1px;stroke-linecap:butt;stroke-linejoin:miter;stroke-opacity:1"
       d="m 150.35714,322.36221 c 67.95021,-52.56307 183.56636,-65.54671 213.21429,-41.42857 4.46264,4.63381 -39.12696,46.13638 -74.28572,58.57143 21.55151,-1.91654 92.62362,-43.79898 81.07143,-68.21429 -17.06942,-34.47841 -155.27457,-18.24212 -220,51.07143 z"
       id="path4149"
       inkscape:connector-curvature="0"
       sodipodi:nodetypes="ccccc"
       inkscape:export-xdpi="145.94"
       inkscape:export-ydpi="145.94" />
    <path
       style="fill:#ee9700;fill-opacity:1;fill-rule:evenodd;stroke:none;stroke-width:1px;stroke-linecap:butt;stroke-linejoin:miter;stroke-opacity:1"
       d="m 374.91251,257.48111 c 44.25707,-41.30709 69.53388,-49.87942 98.23733,-60.60915 2.65473,5.4752 5.65674,12.17475 8.51015,19.4275 -34.09425,11.10848 -74.67354,26.03257 -106.74748,41.18165 z"
       id="path4151"
       inkscape:connector-curvature="0"
       sodipodi:nodetypes="cccc"
       inkscape:export-xdpi="145.94"
       inkscape:export-ydpi="145.94" />
    <path
       style="fill:#ee9700;fill-opacity:1;fill-rule:evenodd;stroke:none;stroke-width:1px;stroke-linecap:butt;stroke-linejoin:miter;stroke-opacity:1"
       d="m 566.43839,175.58479 c 9.13833,13.33288 4.92384,18.5248 -2.50805,36.48047 5.48868,-4.84803 13.03196,-8.66264 19.19351,-17.34885 18.3282,-3.39825 33.88855,-3.07298 51.14532,-2.89521 -20.26533,-18.85149 -44.81885,-16.15334 -67.83078,-16.23641 z"
       id="path4155"
       inkscape:connector-curvature="0"
       sodipodi:nodetypes="ccccc"
       inkscape:export-xdpi="145.94"
       inkscape:export-ydpi="145.94" />
    <path
       style="fill:#ee9700;fill-opacity:1;fill-rule:evenodd;stroke:none;stroke-width:1px;stroke-linecap:butt;stroke-linejoin:miter;stroke-opacity:1"
       d="m 417.33891,388.80095 c -33.63965,8.21292 -66.35474,11.59754 -96.97464,4.04061 19.50554,7.72247 42.48352,13.41058 94.82807,1.89403 z"
       id="path4157"
       inkscape:connector-curvature="0"
       sodipodi:nodetypes="cccc"
       inkscape:export-xdpi="145.94"
       inkscape:export-ydpi="145.94" />
    <path
       style="fill:#e10000;fill-opacity:1;fill-rule:evenodd;stroke:none;stroke-width:1px;stroke-linecap:butt;stroke-linejoin:miter;stroke-opacity:1"
       d="m 267.83634,349.15246 19.44543,42.93148 c -13.27187,21.53351 -27.16641,56.534 -59.34646,22.72843 -50.86416,12.03728 -100.18597,37.33754 -151.017806,61.61931 39.452726,-31.84721 85.573946,-57.02593 129.299526,-84.60028 14.39791,-33.33923 35.99808,-56.80921 61.61931,-42.67894 z"
       id="path4159"
       inkscape:connector-curvature="0"
       sodipodi:nodetypes="cccccc"
       inkscape:export-xdpi="145.94"
       inkscape:export-ydpi="145.94" />
    <path
       sodipodi:nodetypes="cccccc"
       inkscape:connector-curvature="0"
       id="path4161"
       d="m 271.68237,357.46645 11.22734,24.74096 c -7.66287,12.40954 -15.68525,32.57995 -34.26526,13.09816 -29.36777,6.93696 -57.84504,21.51723 -87.19416,35.51056 22.77909,-18.35321 49.4084,-32.86345 74.65453,-48.75425 8.31302,-19.21305 20.78445,-32.73855 35.57755,-24.59543 z"
       style="fill:#ffac1c;fill-opacity:1;fill-rule:evenodd;stroke:none;stroke-width:1px;stroke-linecap:butt;stroke-linejoin:miter;stroke-opacity:1"
       inkscape:export-xdpi="145.94"
       inkscape:export-ydpi="145.94" />
    <ellipse
       style="opacity:1;fill:#ee9700;fill-opacity:1;stroke:#004204;stroke-width:4.60744762;stroke-linecap:round;stroke-linejoin:round;stroke-miterlimit:4;stroke-dasharray:none;stroke-dashoffset:0;stroke-opacity:1"
       id="path4165"
       cx="523.03571"
       cy="188.33336"
       rx="48.310558"
       ry="36.781712"
       inkscape:export-xdpi="145.94"
       inkscape:export-ydpi="145.94" />
  </g>
</svg>
