<?xml version="1.0" encoding="UTF-8" standalone="no"?>
<!-- Created with Inkscape (http://www.inkscape.org/) -->

<svg
   xmlns:dc="http://purl.org/dc/elements/1.1/"
   xmlns:cc="http://creativecommons.org/ns#"
   xmlns:rdf="http://www.w3.org/1999/02/22-rdf-syntax-ns#"
   xmlns:svg="http://www.w3.org/2000/svg"
   xmlns="http://www.w3.org/2000/svg"
   xmlns:sodipodi="http://sodipodi.sourceforge.net/DTD/sodipodi-0.dtd"
   xmlns:inkscape="http://www.inkscape.org/namespaces/inkscape"
   width="138.43242mm"
   height="125.96507mm"
   viewBox="0 0 490.50857 446.33294"
   id="svg2"
   version="1.1"
   inkscape:version="0.91 r13725"
   sodipodi:docname="Fairydust-stencil.svg"
   inkscape:export-filename="C:\Users\Toshiba\Downloads\fairydust.png"
   inkscape:export-xdpi="145"
   inkscape:export-ydpi="145">
  <defs
     id="defs4" />
  <sodipodi:namedview
     id="base"
     pagecolor="#3d3d3d"
     bordercolor="#666666"
     borderopacity="1.0"
     inkscape:pageopacity="0"
     inkscape:pageshadow="2"
     inkscape:zoom="0.98994949"
     inkscape:cx="465.33159"
     inkscape:cy="145.20404"
     inkscape:document-units="px"
     inkscape:current-layer="layer1"
     showgrid="false"
     inkscape:window-width="1440"
     inkscape:window-height="876"
     inkscape:window-x="0"
     inkscape:window-y="24"
     inkscape:window-maximized="1"
     inkscape:document-rotation="0"
     fit-margin-top="0"
     fit-margin-left="0"
     fit-margin-right="0"
     fit-margin-bottom="0" />
  <metadata
     id="metadata7">
    <rdf:RDF>
      <cc:Work
         rdf:about="">
        <dc:format>image/svg+xml</dc:format>
        <dc:type
           rdf:resource="http://purl.org/dc/dcmitype/StillImage" />
        <dc:title></dc:title>
      </cc:Work>
    </rdf:RDF>
  </metadata>
  <g
     inkscape:label="Ebene 1"
     inkscape:groupmode="layer"
     id="layer1"
     transform="translate(-126.46096,-103.65292)">
    <g
       id="g4193"
       transform="matrix(0.9638525,-0.26643642,0.26643642,0.9638525,-74.615346,111.26978)"
       style="fill:#ffffff">
      <path
         inkscape:connector-curvature="0"
         id="path4147"
         transform="translate(64.425765,139.14844)"
         d="m 462.60352,14.646484 c -0.55106,-0.0064 -1.10253,-0.0034 -1.65235,0.0078 -6.8422,0.139152 -15.30254,-1.45378 -31.40939,5.667688 -14.57942,3.435997 -16.17874,3.714625 -31.55503,8.402169 -42.11599,12.839287 -89.64767,38.653694 -144.82659,82.789519 -42.57081,-4.90105 -85.20003,-9.4238 -134.34961,27.7793 0.0626,4.85111 -0.85861,10.19435 3.02929,13.13281 -15.82024,7.55052 -31.284219,16.16542 -44.445309,31.69336 -10.48165,8.17592 25.399219,36.6668 31.314449,33.08203 29.3928,-18.58566 63.57821,-20.32904 100.50977,-16.28906 6.27212,18.51913 15.40196,34.22143 30.24414,48.93164 -2.02998,38.3518 -24.52758,63.85265 -64.58984,84.4082 -2.39206,1.25657 10.74293,33.18976 14.64843,33.8418 38.93945,4.43873 145.34834,-61.81451 162.99805,-117.35156 l -1.75391,4.8457 c -52.34455,11.51655 -75.32063,5.82794 -94.82617,-1.89453 30.6199,7.55693 63.33496,4.1719 96.97461,-4.04102 l -0.0332,0.0918 c 115.20735,-20.93403 186.29609,-78.86185 220.75,-187.664065 1.56722,-5.67937 12.60015,-13.334451 30.55859,-24.30664 C 590.65738,41.805117 574.28823,49.20307 567.82227,44.84375 534.06588,26.99703 507.3571,19.861453 485.49609,20.095703 479.20275,16.790012 470.86931,14.742061 462.60352,14.646484 Z M 352.88086,249.74414 c -0.0138,0.003 -0.0273,0.005 -0.041,0.008 -0.0985,0.32902 -0.2155,0.66045 -0.32031,0.99024 l 0.36133,-0.99805 z M 458.60938,21.550781 c 23.02467,-4.19e-4 41.69003,12.372322 41.68945,27.634766 -0.001,15.261681 -18.66593,27.633231 -41.68945,27.632812 -23.02276,-2.95e-4 -41.68645,-12.371635 -41.6875,-27.632812 -5.8e-4,-15.26194 18.66359,-27.634471 41.6875,-27.634766 z m 56.4707,14.798828 c 19.00037,-0.08491 38.29809,1.00543 54.76367,16.322266 -17.25677,-0.17777 -32.81828,-0.501766 -51.14648,2.896484 -6.16155,8.68621 -13.70468,12.499627 -19.19336,17.347657 7.43189,-17.95567 11.64614,-23.147589 2.50781,-36.480469 4.31474,0.01558 8.68366,-0.06634 13.06836,-0.08594 z M 408.72461,57.722656 c 2.65473,5.4752 5.65636,12.174985 8.50977,19.427735 -34.09425,11.10848 -74.67411,26.032559 -106.74805,41.181639 44.25707,-41.307086 69.53483,-49.879644 98.23828,-60.609374 z M 253.29102,114.66016 c 26.59032,-0.22932 46.77301,5.63046 52.64062,17.48242 11.55219,24.41531 -59.52075,66.2983 -81.07226,68.21484 35.15874,-12.43505 78.74974,-53.93845 74.2871,-58.57226 C 269.49855,117.66702 153.88185,130.64982 85.931641,183.21289 128.4077,137.72587 202.52766,115.09795 253.29102,114.66016 Z"
         style="fill:#ffffff;fill-opacity:1;fill-rule:evenodd;stroke:none;stroke-width:1px;stroke-linecap:butt;stroke-linejoin:miter;stroke-opacity:1"
         sodipodi:nodetypes="cccsccccccccccccccccccccccccscscssccccsccccsccccs" />
      <path
         inkscape:connector-curvature="0"
         id="path4159"
         transform="translate(64.425765,139.14844)"
         d="m 187.20703,205.83789 c -18.52327,0.77568 -34.16765,20.79943 -45.41601,46.8457 -43.725584,27.57435 -89.846107,52.7524 -129.298832,84.59961 50.831836,-24.28177 100.153422,-49.58186 151.017582,-61.61914 32.18005,33.80557 46.07383,-1.195 59.3457,-22.72851 l -4.42969,-9.7793 c -7.64532,12.41703 -15.67415,32.43237 -34.20703,13 -29.36777,6.93696 -57.84424,21.51839 -87.193359,35.51172 22.779089,-18.35321 49.408169,-32.86311 74.654299,-48.75391 8.29351,-19.16796 20.72515,-32.67106 35.47265,-24.64844 l -3.74218,-8.26171 c -5.60465,-3.091 -11.01661,-4.38321 -16.20313,-4.16602 z m 19.94531,12.42773 11.27344,24.89063 c 0.0194,-0.0316 0.0392,-0.0662 0.0586,-0.0977 l -11.22852,-24.74023 c -0.0347,-0.0191 -0.0688,-0.0339 -0.10352,-0.0527 z"
         style="fill:#ffffff;fill-opacity:1;fill-rule:evenodd;stroke:none;stroke-width:1px;stroke-linecap:butt;stroke-linejoin:miter;stroke-opacity:1" />
    </g>
  </g>
</svg>
