<svg xmlns="http://www.w3.org/2000/svg" xmlns:svg="http://www.w3.org/2000/svg" id="svg5339" width="52.087" height="45.164" x="0" y="0" enable-background="new 0 0 780 650" version="1.1" viewBox="0 0 52.087 45.164" xml:space="preserve"><metadata id="metadata6793"/><g id="Notification" fill="#000" transform="translate(-304.0287,-57.036693)"><path id="path6339" fill="#000" d="m 343.918,60.58 h -27.692 c -4.76,0 -8.654,3.926 -8.654,8.724 v 12.214 c 0,4.797 3.895,8.724 8.654,8.724 h 16.088 l 9.598,7.937 c 1.104,0.912 2.007,0.482 2.007,-0.957 v -6.979 c 4.76,0 8.653,-3.927 8.653,-8.724 V 69.303 c -10e-4,-4.798 -3.894,-8.723 -8.654,-8.723 z m -11.25,25.095 c 0,0.952 -0.778,1.73 -1.731,1.73 h -1.73 c -0.951,0 -1.73,-0.778 -1.73,-1.73 v -3.461 c 0,-0.953 0.779,-1.731 1.73,-1.731 h 1.73 c 0.953,0 1.731,0.778 1.731,1.731 v 3.461 z m 0,-10.384 c 0,0.952 -0.778,1.73 -1.731,1.73 h -1.73 c -0.951,0 -1.73,-0.778 -1.73,-1.73 V 64.906 c 0,-0.951 0.779,-1.73 1.73,-1.73 h 1.73 c 0.953,0 1.731,0.779 1.731,1.73 v 10.385 z"/></g></svg>