<?xml version="1.0" encoding="UTF-8" standalone="no"?>
<svg
   height="24"
   width="24"
   version="1.1"
   id="svg3183"
   xmlns="http://www.w3.org/2000/svg"
   xmlns:svg="http://www.w3.org/2000/svg">
  <defs
     id="defs3187" />
  <path
     id="path3181"
     d="M 4,3 C 3.45,3 2.979224,3.1965573 2.5878906,3.5878906 2.1958906,3.9798906 2,4.45 2,5 v 18 l 4,-4 h 14 c 0.55,0 1.020109,-0.196557 1.412109,-0.587891 C 21.803443,18.020109 22,17.55 22,17 V 5 C 22,4.45 21.803443,3.9798906 21.412109,3.5878906 21.020109,3.1965573 20.55,3 20,3 Z m 9.5,2 0.75,0.75 c 0.07,0.07 0.126675,0.1651562 0.171875,0.2851562 0.0448,0.1200001 0.06836,0.2357032 0.06836,0.3457032 v 0.2089844 l -0.660156,2.609375 h 3.269531 c 0.32,0 0.599844,0.1213281 0.839844,0.3613281 0.24,0.24 0.361328,0.5198441 0.361328,0.8398441 v 1.199218 c 0,0.07 -0.0082,0.14461 -0.02344,0.22461 -0.0148,0.08 -0.03641,0.156562 -0.06641,0.226562 l -1.800782,4.228516 c -0.09,0.2 -0.239218,0.369765 -0.449218,0.509765 C 15.750937,16.929063 15.530781,17 15.300781,17 H 9.3007812 V 9.1992188 Z M 5.6992188,9.1992188 H 8.0996094 V 17 H 5.6992188 Z" />
</svg>
