<?xml version="1.0" encoding="UTF-8" standalone="no"?>
<!-- Generator: Adobe Illustrator 14.0.0, SVG Export Plug-In . SVG Version: 6.00 Build 43363)  -->

<svg
   xmlns:dc="http://purl.org/dc/elements/1.1/"
   xmlns:cc="http://creativecommons.org/ns#"
   xmlns:rdf="http://www.w3.org/1999/02/22-rdf-syntax-ns#"
   xmlns:svg="http://www.w3.org/2000/svg"
   xmlns="http://www.w3.org/2000/svg"
   xmlns:sodipodi="http://sodipodi.sourceforge.net/DTD/sodipodi-0.dtd"
   xmlns:inkscape="http://www.inkscape.org/namespaces/inkscape"
   version="1.1"
   x="0px"
   y="0px"
   width="52.086613"
   height="45.164417"
   viewBox="0 0 52.086613 45.164418"
   enable-background="new 0 0 780 650"
   xml:space="preserve"
   id="svg5339"
   inkscape:version="0.48.1 r9760"
   sodipodi:docname="android-native-final.svg"><metadata
   id="metadata6793"><rdf:RDF><cc:Work
       rdf:about=""><dc:format>image/svg+xml</dc:format><dc:type
         rdf:resource="http://purl.org/dc/dcmitype/StillImage" /><dc:title></dc:title></cc:Work></rdf:RDF></metadata><defs
   id="defs6791" /><sodipodi:namedview
   pagecolor="#ffffff"
   bordercolor="#666666"
   borderopacity="1"
   objecttolerance="10"
   gridtolerance="10"
   guidetolerance="10"
   inkscape:pageopacity="0"
   inkscape:pageshadow="2"
   inkscape:window-width="1400"
   inkscape:window-height="975"
   id="namedview6789"
   showgrid="false"
   units="mm"
   fit-margin-top="1"
   fit-margin-left="1"
   fit-margin-right="1"
   fit-margin-bottom="1"
   inkscape:zoom="2.2540388"
   inkscape:cx="85.971306"
   inkscape:cy="61.135789"
   inkscape:window-x="0"
   inkscape:window-y="25"
   inkscape:window-maximized="1"
   inkscape:current-layer="svg5339" />







































































<g
   id="Notification"
   style="fill:#000000"
   transform="translate(-304.0287,-57.036693)">
	<path
   d="m 343.918,60.58 h -27.692 c -4.76,0 -8.654,3.926 -8.654,8.724 v 12.214 c 0,4.797 3.895,8.724 8.654,8.724 h 16.088 l 9.598,7.937 c 1.104,0.912 2.007,0.482 2.007,-0.957 v -6.979 c 4.76,0 8.653,-3.927 8.653,-8.724 V 69.303 c -10e-4,-4.798 -3.894,-8.723 -8.654,-8.723 z m -11.25,25.095 c 0,0.952 -0.778,1.73 -1.731,1.73 h -1.73 c -0.951,0 -1.73,-0.778 -1.73,-1.73 v -3.461 c 0,-0.953 0.779,-1.731 1.73,-1.731 h 1.73 c 0.953,0 1.731,0.778 1.731,1.731 v 3.461 z m 0,-10.384 c 0,0.952 -0.778,1.73 -1.731,1.73 h -1.73 c -0.951,0 -1.73,-0.778 -1.73,-1.73 V 64.906 c 0,-0.951 0.779,-1.73 1.73,-1.73 h 1.73 c 0.953,0 1.731,0.779 1.731,1.73 v 10.385 z"
   id="path6339"
   style="fill:#000000"
   inkscape:connector-curvature="0" />
</g>


















































</svg>