<?xml version="1.0" encoding="UTF-8" standalone="no"?>
<svg
   height="24"
   width="24"
   version="1.1"
   id="svg3795"
   xmlns="http://www.w3.org/2000/svg"
   xmlns:svg="http://www.w3.org/2000/svg">
  <defs
     id="defs3799" />
  <g
     id="layer5"
     style="display:inline">
    <path
       d="M 16.999999,18.83208 15.1203,20.711779 Q 14.83208,21 14.418546,21 14.005013,21 13.716792,20.711779 L 12.288221,19.283208 Q 12,18.994987 12,18.581454 12,18.16792 12.288221,17.8797 L 14.16792,16 12.288221,14.1203 Q 12,13.83208 12,13.418546 q 0,-0.413533 0.288221,-0.701754 l 1.428571,-1.428571 Q 14.005013,11 14.418546,11 14.83208,11 15.1203,11.288221 L 16.999999,13.16792 18.8797,11.288221 Q 19.16792,11 19.581454,11 q 0.413533,0 0.701754,0.288221 l 1.428571,1.428571 Q 22,13.005013 22,13.418546 22,13.83208 21.711779,14.1203 L 19.83208,16 21.711779,17.8797 Q 22,18.16792 22,18.581454 q 0,0.413533 -0.288221,0.701754 l -1.428571,1.428571 Q 19.994987,21 19.581454,21 19.16792,21 18.8797,20.711779 Z m 0,-3.333333 q 0.213033,0 0.357395,-0.14436 0.143859,-0.143861 0.143859,-0.356893 0,-0.213033 -0.143859,-0.357394 -0.144362,-0.14386 -0.357395,-0.14386 -0.213032,0 -0.356892,0.14386 -0.14436,0.144361 -0.14436,0.357394 0,0.213032 0.14436,0.356893 0.14386,0.14436 0.356892,0.14436 z m -2.130324,-0.200502 1.42857,-1.42857 -1.879699,-1.879699 -1.42857,1.42857 z m 1.127819,1.203008 q 0.213032,0 0.357393,-0.14436 0.14386,-0.14386 0.14386,-0.356893 0,-0.213032 -0.14386,-0.357394 -0.144361,-0.143859 -0.357393,-0.143859 -0.213033,0 -0.356892,0.143859 Q 15.49624,15.786968 15.49624,16 q 0,0.213033 0.144362,0.356893 0.143859,0.14436 0.356892,0.14436 z m 1.002505,1.002507 q 0.213033,0 0.357395,-0.144362 0.143859,-0.143859 0.143859,-0.356892 0,-0.213032 -0.143859,-0.357393 -0.144362,-0.14386 -0.357395,-0.14386 -0.213032,0 -0.356892,0.14386 -0.14436,0.144361 -0.14436,0.357393 0,0.213033 0.14436,0.356892 0.14386,0.144362 0.356892,0.144362 z m 1.002507,-1.002507 q 0.213033,0 0.357394,-0.14436 0.14386,-0.14386 0.14386,-0.356893 0,-0.213032 -0.14386,-0.357394 -0.144361,-0.143859 -0.357394,-0.143859 -0.213032,0 -0.356893,0.143859 -0.14436,0.144362 -0.14436,0.357394 0,0.213033 0.14436,0.356893 0.143861,0.14436 0.356893,0.14436 z m -0.300751,1.629072 1.879699,1.879699 1.42857,-1.42857 -1.879699,-1.879699 z m -2.468673,-3.897242 z m 3.533835,3.533835 z"
       id="path4270"
       style="stroke-width:0.501253" />
    <path
       d="M 3,8 V 6 h 12 v 2 z"
       id="path3975-3"
       style="display:inline" />
    <path
       d="m 3,12 v -2 h 8.5 v 2 z"
       id="path3973-5"
       style="display:inline;stroke-width:0.841626" />
    <path
       d="m 3,16 v -2 h 7.5 v 2 z"
       id="path3793-6"
       style="display:inline;stroke-width:0.968246" />
  </g>
</svg>
