<?xml version="1.0" encoding="UTF-8" standalone="no"?>
<!-- Created with Inkscape (http://www.inkscape.org/) -->

<svg
   width="105.82768mm"
   height="116.67294mm"
   viewBox="0 0 105.82768 116.67294"
   version="1.1"
   id="svg5"
   inkscape:version="1.1.2 (0a00cf5339, 2022-02-04)"
   sodipodi:docname="jev-2022-logo-blue.svg"
   xmlns:inkscape="http://www.inkscape.org/namespaces/inkscape"
   xmlns:sodipodi="http://sodipodi.sourceforge.net/DTD/sodipodi-0.dtd"
   xmlns="http://www.w3.org/2000/svg"
   xmlns:svg="http://www.w3.org/2000/svg">
  <sodipodi:namedview
     id="namedview7"
     pagecolor="#ffffff"
     bordercolor="#666666"
     borderopacity="1.0"
     inkscape:pageshadow="2"
     inkscape:pageopacity="0.0"
     inkscape:pagecheckerboard="0"
     inkscape:document-units="mm"
     showgrid="true"
     showguides="true"
     inkscape:guide-bbox="true"
     fit-margin-top="0"
     fit-margin-left="0"
     fit-margin-right="0"
     fit-margin-bottom="0"
     inkscape:zoom="0.47699953"
     inkscape:cx="496.85583"
     inkscape:cy="209.64381"
     inkscape:window-width="1858"
     inkscape:window-height="1043"
     inkscape:window-x="385"
     inkscape:window-y="0"
     inkscape:window-maximized="1"
     inkscape:current-layer="layer1">
    <inkscape:grid
       type="xygrid"
       id="grid30684"
       originx="-21.172318"
       originy="-68.478868" />
    <sodipodi:guide
       position="-0.0056527048,74.026821"
       orientation="1,0"
       id="guide30686" />
    <sodipodi:guide
       position="42.32768,116.36015"
       orientation="0,-1"
       id="guide30688" />
    <sodipodi:guide
       position="68.786011,52.860151"
       orientation="0,-1"
       id="guide30690" />
  </sodipodi:namedview>
  <defs
     id="defs2" />
  <g
     inkscape:label="Layer 1"
     inkscape:groupmode="layer"
     id="layer1"
     transform="translate(-21.172319,-68.478869)">
    <path
       d="m 85.551337,133.8239 h 31.569423 c 3.31148,0 4.58088,1.82131 4.58088,5.13279 v 37.4197 c 0,3.31148 -1.2694,4.58088 -4.58088,4.58088 H 85.551337 c -3.31148,0 -5.13279,-1.2694 -5.13279,-4.58088 v -37.4197 c 0,-3.31148 1.82131,-5.13279 5.13279,-5.13279 z M 127,178.08732 v -39.13063 c 0,-4.96722 -3.25628,-7.11968 -8.2235,-7.11968 H 85.551337 c -4.4705,0 -7.11968,2.5388 -7.11968,7.11968 v 39.13063 c 0,4.96722 2.15246,7.06449 7.11968,7.06449 h 34.880903 c 4.96722,0 6.56776,-2.09727 6.56776,-7.06449 z m -24.89127,-14.5705 c -4.801653,-11.4246 -6.733343,-18.10275 -7.064493,-19.48253 -0.71749,0.11038 -2.42842,0.11038 -3.1459,0.11038 -0.71749,0 -2.64919,0 -3.36667,-0.11038 2.09727,4.19454 7.56121,18.21313 11.369413,27.2645 h 2.04207 c 3.97378,-9.21695 8.00274,-18.10274 12.19728,-27.2645 -0.49672,0.11038 -0.99344,0.11038 -1.49016,0.11038 -0.44154,0 -2.42842,0 -2.92514,-0.11038 -1.32459,4.91203 -4.80165,12.91476 -7.6164,19.48253 z"
       id="path14709"
       style="font-weight:bold;font-size:55.1913px;line-height:1.25;font-family:'Linux Biolinum Keyboard O';-inkscape-font-specification:'Linux Biolinum Keyboard O, Bold';stroke-width:1.37979;fill:#005bbb;fill-opacity:1" />
    <g
       aria-label="22"
       id="text17582"
       style="font-size:23.975px;line-height:1.25;font-family:'Linux Biolinum Keyboard O';-inkscape-font-specification:'Linux Biolinum Keyboard O, Normal';stroke-width:0.599376">
      <path
         d="m 24.265094,162.85506 h 13.7137 c 1.4385,0 1.989925,0.79117 1.989925,2.22967 v 16.25505 c 0,1.4385 -0.551425,1.98993 -1.989925,1.98993 h -13.7137 c -1.4385,0 -2.229675,-0.55143 -2.229675,-1.98993 v -16.25505 c 0,-1.4385 0.791175,-2.22967 2.229675,-2.22967 z m 18.005225,19.22795 v -16.99828 c 0,-2.15775 -1.414525,-3.09277 -3.572275,-3.09277 h -14.43295 c -1.941975,0 -3.092775,1.10285 -3.092775,3.09277 v 16.99828 c 0,2.15775 0.935025,3.0688 3.092775,3.0688 h 15.1522 c 2.15775,0 2.853025,-0.91105 2.853025,-3.0688 z m -12.011475,-12.9465 c 0.647325,0 1.5344,0.71925 1.5344,1.8221 0,1.1508 -0.04795,2.06185 -1.10285,3.14072 l -1.3426,1.31863 c -1.750175,1.79812 -2.469425,2.61327 -2.469425,3.66817 l 0.02398,0.0719 c 1.654275,-0.024 2.92495,-0.0719 4.291525,-0.0719 1.3426,0 1.750175,0.024 3.092775,0.0719 -0.04795,-0.23975 -0.0959,-0.59938 -0.0959,-0.83913 0,-0.23975 0.04795,-0.93502 0.0959,-1.17477 -1.030925,0.0719 -1.510425,0.14385 -3.30855,0.14385 h -1.48645 c 0,-0.2877 0.81515,-1.17478 1.19875,-1.5344 l 1.798125,-1.7262 c 1.030925,-0.98298 1.7262,-1.67825 1.7262,-3.04483 0,-1.94197 -1.67825,-2.80507 -3.812025,-2.80507 -1.29465,0 -2.709175,0.59937 -3.1647,0.98297 l -0.04795,0.0719 0.3836,1.41452 h 0.43155 c 0.599375,-1.0549 1.366575,-1.51042 2.25365,-1.51042 z"
         id="path30772"
         style="fill:#005bbb;fill-opacity:1" />
      <path
         d="m 50.637557,162.85506 h 13.7137 c 1.4385,0 1.989925,0.79117 1.989925,2.22967 v 16.25505 c 0,1.4385 -0.551425,1.98993 -1.989925,1.98993 h -13.7137 c -1.4385,0 -2.229675,-0.55143 -2.229675,-1.98993 v -16.25505 c 0,-1.4385 0.791175,-2.22967 2.229675,-2.22967 z m 18.005225,19.22795 v -16.99828 c 0,-2.15775 -1.414525,-3.09277 -3.572275,-3.09277 h -14.43295 c -1.941975,0 -3.092775,1.10285 -3.092775,3.09277 v 16.99828 c 0,2.15775 0.935025,3.0688 3.092775,3.0688 h 15.1522 c 2.15775,0 2.853025,-0.91105 2.853025,-3.0688 z m -12.011475,-12.9465 c 0.647325,0 1.5344,0.71925 1.5344,1.8221 0,1.1508 -0.04795,2.06185 -1.10285,3.14072 l -1.3426,1.31863 c -1.750175,1.79812 -2.469425,2.61327 -2.469425,3.66817 l 0.02398,0.0719 c 1.654275,-0.024 2.92495,-0.0719 4.291525,-0.0719 1.3426,0 1.750175,0.024 3.092775,0.0719 -0.04795,-0.23975 -0.0959,-0.59938 -0.0959,-0.83913 0,-0.23975 0.04795,-0.93502 0.0959,-1.17477 -1.030925,0.0719 -1.510425,0.14385 -3.30855,0.14385 h -1.48645 c 0,-0.2877 0.81515,-1.17478 1.19875,-1.5344 l 1.798125,-1.7262 c 1.030925,-0.98298 1.7262,-1.67825 1.7262,-3.04483 0,-1.94197 -1.67825,-2.80507 -3.812025,-2.80507 -1.29465,0 -2.709175,0.59937 -3.1647,0.98297 l -0.04795,0.0719 0.3836,1.41452 h 0.43155 c 0.599375,-1.0549 1.366575,-1.51042 2.25365,-1.51042 z"
         id="path30769"
         style="fill:#005bbb;fill-opacity:1" />
    </g>
    <g
       aria-label="20"
       id="text29128"
       style="font-size:24.0373px;line-height:1.25;font-family:'Linux Biolinum Keyboard O';-inkscape-font-specification:'Linux Biolinum Keyboard O, Normal';stroke-width:0.600934">
      <path
         d="m 24.273131,133.17786 h 13.749336 c 1.442238,0 1.995096,0.79323 1.995096,2.23547 v 16.29729 c 0,1.44224 -0.552858,1.9951 -1.995096,1.9951 H 24.273131 c -1.442238,0 -2.235468,-0.55286 -2.235468,-1.9951 v -16.29729 c 0,-1.44224 0.79323,-2.23547 2.235468,-2.23547 z m 18.052013,19.27792 v -17.04245 c 0,-2.16335 -1.418201,-3.10081 -3.581558,-3.10081 H 24.273131 c -1.947021,0 -3.100811,1.10572 -3.100811,3.10081 v 17.04245 c 0,2.16336 0.937454,3.07677 3.100811,3.07677 h 15.191574 c 2.163357,0 2.860439,-0.91341 2.860439,-3.07677 z M 30.282456,139.47564 c 0.649008,0 1.538388,0.72112 1.538388,1.82683 0,1.15379 -0.04808,2.06721 -1.105716,3.14889 l -1.346089,1.32205 c -1.754723,1.8028 -2.475842,2.62006 -2.475842,3.67771 l 0.02404,0.0721 c 1.658574,-0.024 2.932551,-0.0721 4.302677,-0.0721 1.346089,0 1.754723,0.024 3.100812,0.0721 -0.04808,-0.24037 -0.09615,-0.60093 -0.09615,-0.84131 0,-0.24037 0.04807,-0.93745 0.09615,-1.17783 -1.033604,0.0721 -1.51435,0.14423 -3.317148,0.14423 h -1.490312 c 0,-0.28845 0.817268,-1.17783 1.201865,-1.53839 l 1.802797,-1.73068 c 1.033604,-0.98553 1.730686,-1.68262 1.730686,-3.05274 0,-1.94702 -1.682611,-2.81237 -3.821931,-2.81237 -1.298014,0 -2.716215,0.60094 -3.172923,0.98553 l -0.04808,0.0721 0.384597,1.4182 h 0.432671 c 0.600933,-1.05764 1.370126,-1.51435 2.259506,-1.51435 z"
         id="path30739"
         style="fill:#005bbb;fill-opacity:1" />
      <path
         d="m 50.714126,133.17786 h 13.749335 c 1.442238,0 1.995096,0.79323 1.995096,2.23547 v 16.29729 c 0,1.44224 -0.552858,1.9951 -1.995096,1.9951 H 50.714126 c -1.442238,0 -2.235469,-0.55286 -2.235469,-1.9951 v -16.29729 c 0,-1.44224 0.793231,-2.23547 2.235469,-2.23547 z m 18.052012,19.27792 v -17.04245 c 0,-2.16335 -1.418201,-3.10081 -3.581558,-3.10081 H 50.714126 c -1.947022,0 -3.100812,1.10572 -3.100812,3.10081 v 17.04245 c 0,2.16336 0.937455,3.07677 3.100812,3.07677 h 15.191573 c 2.163357,0 2.860439,-0.91341 2.860439,-3.07677 z M 57.420532,139.28334 c 1.51435,0 1.634537,2.4518 1.634537,4.39882 0,1.82684 -0.168261,5.16802 -1.682611,5.16802 -1.466275,0 -1.658574,-2.90851 -1.658574,-4.47093 0,-4.42287 0.88938,-5.09591 1.706648,-5.09591 z m -0.07211,10.33604 c 1.802797,0 3.82193,-1.39417 3.82193,-5.60069 0,-3.50945 -1.826835,-5.50455 -3.749819,-5.50455 -1.922984,0 -3.82193,2.13932 -3.82193,5.67281 0,2.88447 1.201865,5.43243 3.749819,5.43243 z"
         id="path30736"
         style="fill:#005bbb;fill-opacity:1" />
    </g>
    <path
       d="m 42.8625,97.895832 c 0,3.642618 -0.165574,7.506008 -3.477052,7.506008 -1.159017,0 -1.931695,-1.04864 -2.373226,-1.8765 l -1.214208,0.0552 c -0.165574,1.10382 -0.38634,3.03552 -0.82787,3.8082 l 0.05519,0.16557 c 0.772679,0.38634 3.035522,0.6623 4.028965,0.6623 2.207652,0 4.691261,-0.16558 6.512574,-2.04208 2.593991,-2.64918 2.593991,-4.41531 2.593991,-9.161751 v -7.561206 c 0,-3.090713 0.110382,-6.071043 0.44153,-8.278695 l -0.05519,-0.110383 c 0,0 -1.545357,0.110383 -3.035522,0.110383 -1.379782,0 -2.98033,-0.110383 -2.98033,-0.110383 l -0.05519,0.110383 c 0.331148,2.373226 0.386339,5.187982 0.386339,8.278695 z M 28.291997,70.465756 H 59.86142 c 3.311478,0 4.580878,1.821313 4.580878,5.132791 v 37.419693 c 0,3.31148 -1.2694,4.58088 -4.580878,4.58088 H 28.291997 c -3.311478,0 -5.132791,-1.2694 -5.132791,-4.58088 V 75.598547 c 0,-3.311478 1.821313,-5.132791 5.132791,-5.132791 z M 69.740663,114.72917 V 75.598547 c 0,-4.967217 -3.256287,-7.119678 -8.223504,-7.119678 H 28.291997 c -4.470495,0 -7.119678,2.5388 -7.119678,7.119678 v 39.130623 c 0,4.96722 2.152461,7.06449 7.119678,7.06449 h 34.880901 c 4.967217,0 6.567765,-2.09727 6.567765,-7.06449 z"
       id="path14715"
       style="font-weight:bold;font-size:55.1913px;line-height:1.25;font-family:'Linux Biolinum Keyboard O';-inkscape-font-specification:'Linux Biolinum Keyboard O, Bold';stroke-width:1.37979;fill:#005bbb;fill-opacity:1" />
    <path
       d="m 96.81036,99.551566 v -4.801638 c 1.98688,0 6.40219,0.165574 9.21694,0.44153 l 0.16558,-0.110383 c -0.11039,-0.386339 -0.16558,-0.993443 -0.16558,-1.379782 0,-0.386339 0.0552,-0.938252 0.16558,-1.324591 l -0.16558,-0.110383 c -2.42841,0.165574 -4.30492,0.386339 -9.21694,0.386339 v -3.201095 c 0,-0.717487 0.0552,-4.912026 0.33114,-5.905469 5.57433,0 11.25903,0.496722 11.25903,0.496722 l 0.11038,-0.165574 c -0.0552,-0.331148 -0.11038,-0.883061 -0.11038,-1.2694 0,-0.331148 0.0552,-0.883061 0.11038,-1.434974 l -0.11038,-0.165574 c -0.6623,0.110383 -1.60055,0.165574 -2.48361,0.165574 H 94.16117 c -1.379779,0 -2.980326,-0.165574 -2.980326,-0.165574 l -0.05519,0.165574 c 0.331148,2.318035 0.386339,5.132791 0.386339,8.278695 v 10.100003 c 0,3.145904 -0.05519,6.071034 -0.386339,8.278694 v 0.16557 c 0,0 1.600548,-0.16557 3.035516,-0.16557 h 12.19728 c 0.88306,0 1.82131,0.0552 2.48361,0.16557 l 0.0552,-0.16557 c 0,-0.55192 -0.0552,-1.04864 -0.0552,-1.49017 0,-0.38634 0.0552,-1.10382 0.0552,-1.43497 l -0.0552,-0.16558 c 0,0 -6.12623,0.49673 -11.70056,0.49673 -0.27595,-0.99345 -0.33114,-4.96722 -0.33114,-5.684704 z M 85.551331,70.465756 h 31.569419 c 3.31148,0 4.58088,1.821313 4.58088,5.132791 v 37.419693 c 0,3.31148 -1.2694,4.58088 -4.58088,4.58088 H 85.551331 c -3.311478,0 -5.132791,-1.2694 -5.132791,-4.58088 V 75.598547 c 0,-3.311478 1.821313,-5.132791 5.132791,-5.132791 z M 127,114.72917 V 75.598547 c 0,-4.967217 -3.25629,-7.119678 -8.22351,-7.119678 H 85.551331 c -4.470495,0 -7.119678,2.5388 -7.119678,7.119678 v 39.130623 c 0,4.96722 2.152461,7.06449 7.119678,7.06449 h 34.880899 c 4.96722,0 6.56777,-2.09727 6.56777,-7.06449 z"
       id="path14712"
       style="font-weight:bold;font-size:55.1913px;line-height:1.25;font-family:'Linux Biolinum Keyboard O';-inkscape-font-specification:'Linux Biolinum Keyboard O, Bold';stroke-width:1.37979;fill:#005bbb;fill-opacity:1" />
  </g>
</svg>
