<?xml version="1.0" encoding="UTF-8" standalone="no"?>
<svg
   height="24px"
   viewBox="0 0 24 24"
   width="24px"
   fill="#000000"
   version="1.1"
   id="svg38"
   xml:space="preserve"
   xmlns="http://www.w3.org/2000/svg"
   xmlns:svg="http://www.w3.org/2000/svg"><defs
     id="defs42" /><path
     d="m 21.17,7.83 v 9.6 l -3.6,-2.4 v -4.8 z m -9.6,1.2 c 0.6633,0 1.2,-0.53674 1.2,-1.2 v -1.2 c 0,-0.6633 -0.53674,-1.2 -1.2,-1.2 h -6 c -0.6633,0 -1.2,0.53674 -1.2,1.2 v 1.2 c 0,0.6633 0.53674,1.2 1.2,1.2 z m -9.6,0 1.2,-1.2 v -1.2 l -1.2,-1.2 z m 14.4,0 v 7.2 c 0,0.6633 -0.53674,1.2 -1.2,1.2 h -8.4 c -0.6633,0 -1.2,-0.53674 -1.2,-1.2 v -6 h 6 c 1.32304,0 2.4,-1.07696 2.4,-2.4 h 1.2 c 0.6633,0 1.2,0.53674 1.2,1.2 z m -1.2,6.6 c 0,-0.33165 -0.26835,-0.6 -0.6,-0.6 h -4.8 c -0.33165,0 -0.6,0.26835 -0.6,0.6 0,0.33165 0.26835,0.6 0.6,0.6 h 4.8 c 0.33165,0 0.6,-0.26835 0.6,-0.6 z"
     id="path1261"
     style="stroke-width:0.0375" /><path
     d="m 19.73,21 1.41,-1.41 C 15.228889,13.681082 9.3271363,7.7628781 3.41,1.86 L 2,3.27"
     id="path423"
     style="display:inline;fill:#ff0000;fill-opacity:1" /></svg>
