<?xml version="1.0" encoding="UTF-8" standalone="no"?>
<svg
    height="512px"
    viewBox="0 0 512 512"
    width="512px"
    fill="#000000"
    version="1.1"
    id="svg38"
    xml:space="preserve"
    xmlns="http://www.w3.org/2000/svg"
    xmlns:svg="http://www.w3.org/2000/svg"><defs
    id="defs42" />
<path
   d="M512,160v256l-96-64V224L512,160z M256,192c17.688,0,32-14.313,32-32v-32c0-17.688-14.313-32-32-32H96  c-17.688,0-32,14.313-32,32v32c0,17.688,14.313,32,32,32H256z M0,192l32-32v-32L0,96V192z M384,192v192c0,17.688-14.313,32-32,32  H128c-17.688,0-32-14.313-32-32V224h160c35.281,0,64-28.719,64-64h32C369.688,160,384,174.313,384,192z M352,368  c0-8.844-7.156-16-16-16H208c-8.844,0-16,7.156-16,16s7.156,16,16,16h128C344.844,384,352,376.844,352,368z"
   id="path2" />
</svg>