<svg xmlns="http://www.w3.org/2000/svg" width="172" height="172" fill="none">
    <g clip-path="url(#c)" data-testid="no_alarms" mask="url(#a)" style="fill:#000"
        transform="translate(-4 -4)">
        <defs>
            <clipPath id="c" class="mask-clip-path">
                <path d="M0 0h180v180H0" />
            </clipPath>
            <filter id="d" width="1" height="1" x="0" y="0">
                <feFlood flood-color="#fff" result="FloodResult" />
                <feComposite in="FloodResult" in2="SourceGraphic" operator="in" result="comp" />
            </filter>
            <mask id="a" width="180" height="180" x="0" y="0" class="mask-shape"
                data-old-height="180" data-old-width="180" data-old-x="0" data-old-y="0"
                maskUnits="userSpaceOnUse">
                <g filter="url(#d)">
                    <rect width="180" height="180" class="fills" data-testid="Rectangle" rx="0"
                        ry="0" style="fill:#3e4ff7;fill-opacity:1" />
                </g>
            </mask>
        </defs>
        <g xml:space="preserve" data-testid="svg-g" style="fill:#000"><g class="fills" data-testid="svg-g" style="fill:#000"><g class="fills" data-testid="svg-g" style="fill:#000"><g class="fills" data-testid="svg-path" style="fill:#000"><path d="M78.656 62.084c.488-1.362.391-2.918-.389-4.475-.976-1.945-2.245-3.21-3.319-3.599-.779-.195-1.56 0-2.535.486-1.757 1.265-2.343 3.113-2.538 4.475.099 2.432 1.171 4.864 2.538 5.74q1.17.73 2.633.292c1.757-.487 3.122-1.557 3.61-2.919" class="st2" style="fill:#000;fill-opacity:1"/></g></g></g>
            <g class="fills" data-testid="svg-g" style="fill:#000"><g class="fills" data-testid="svg-g" style="fill:#000"><g class="fills" data-testid="svg-path" style="fill:#000"><path d="M171.146 73.758c-.389-.195-.877-.486-5.755.486 1.659-1.459 2.439-1.945 2.634-2.334.781-1.07 1.269-2.627.585-3.794-.195-.389-.878-1.265-2.342-1.168-2.439.098-4.683 1.557-6.243 2.432-.196.098-.391.292-.586.292-1.365.778-3.121 2.14-4.292 2.919.096-.195.096-.487.195-.779.389-1.556.976-3.599.097-5.253l-.097-.194-.195-.098c-.879-.486-1.562-.778-2.343-.583-1.268.292-1.951 1.556-2.731 2.821l-.293.486c-1.659 3.016-1.951 6.421-.586 9.339l.098.097c.098.195.293.487.488.973-1.366 2.919-5.073 9.339-8.878 10.312-1.269.292-2.44 0-3.609-.876-2.733-2.432-4.489-5.155-5.562-6.906l1.659-12.939c1.365-10.312-.488-19.748-5.66-28.503-4.878-8.269-11.61-14.106-20.293-17.997-1.072-.486-1.658-1.556-1.56-2.724l.389-3.113c.391-3.016-.292-5.837-2.244-8.269-1.852-2.529-4.39-3.891-7.413-4.28-3.026-.389-5.854.292-8.293 2.237-2.538 1.849-3.903 4.378-4.294 7.394l-.293 3.113c-.096 1.167-1.072 2.14-2.243 2.334-9.367 1.46-17.465 5.545-24.196 12.161-7.22 7.101-11.415 15.856-12.781 26.071l-1.659 13.23c-1.561 1.848-4.488 4.961-8.293 7.782-3.316 2.53-6.439 4.184-9.073 4.962-.196-.487-.39-.876-.585-1.07-1.074-1.654-7.221-6.226-9.367-5.156-.877.486-1.463 1.167-1.561 1.848-.195 1.07.098 2.238 1.172 3.697.779 1.07 1.463 1.654 1.951 2.335.488.486.877.875 1.072 1.167-1.268.778-3.902 2.14-5.267 3.016-.195.097-4.977 3.113-5.757 6.323-.878 3.016 2.536 6.42 4.488 7.101.195.098.487.098.781.098 1.268 0 2.828-.973 4.585-2.141 1.658-1.07 3.708-2.237 5.073-2.432 4.683-.486 6.342-3.307 6.733-4.474.096-.195.096-.487.096-.876 2.343-.389 7.416-1.946 11.611-4.183l-2.439 18.775c-.098 1.07-.975 1.946-1.951 2.335l-12.099 3.016c-1.072.291-1.853 1.167-1.951 2.334l-.488 4.378c-.195 1.459.879 2.821 2.343 3.016 5.853.778 20.877 2.723 38.245 4.961l4.096 27.53v5.059c-.78 1.07-3.512 4.961-5.171 6.323 0 0-.195 0-.292.097-.097 0-.292.098-.391.098l-1.463.486c-3.316 1.168-4.683 1.654-4.976 2.821-.096.389 0 .973.586 1.557 1.365 1.362 9.562 4.864 16.488 1.264 2.147-1.07 3.512-1.653 4.294-2.237.194 1.07.487 2.432.78 3.697l.195.875h3.903l.293-.583c.096-.195 1.951-4.865-.488-12.744a12 12 0 0 1-.293-.973c-.488-1.557-1.269-3.697-1.269-5.351 0-1.751.586-20.039.878-25.682 3.318.39 6.733.876 10.049 1.265.586 8.172 1.658 23.737 1.658 25.39 0 1.265-.878 3.016-1.56 4.475-.293.778-.585 1.459-.879 1.946-2.535 7.588-.487 12.063-.487 12.257l.292.584h3.903l1.268-5.156c.586.195 1.464.584 2.342.973 1.366.583 3.123 1.362 4.975 1.945 4.684 1.751 7.611 2.627 9.464 2.627.976 0 1.659-.292 2.244-.876.878-.875.782-2.237-.389-3.891-.781-1.167-1.66-2.237-2.244-2.821-1.562-1.556-5.854-6.615-7.025-7.977l3.512-27.53c13.366 1.751 24.586 3.113 30.049 3.891 1.757.194 3.221-1.362 3.026-3.113l-.587-3.891q-.146-1.168-1.17-1.751l-9.268-6.518c-.879-.487-1.269-1.557-1.171-2.529l2.634-20.624c2.634 1.946 7.123 4.475 11.708 4.475h.781c7.317-1.167 13.95-12.744 14.536-16.246h.293c1.658 0 4.097-.584 6.438-3.697.586-.875 2.537-1.751 4.099-2.626 2.731-1.362 5.073-2.627 5.17-4.378-.39-.681-.878-1.362-1.854-2.14M27.533 118.799c-.391 0-.879-.389-.879-.876 0-.389.392-.875.879-.875.391 0 .878.389.878.875 0 .39-.293.876-.878.876m6.342-3.21c-.391 0-.879-.389-.879-.876 0-.486.391-.875.879-.875.39 0 .878.389.878.875 0 .487-.39.876-.878.876m2.633 4.669c-.389 0-.877-.389-.877-.875 0-.389.389-.876.877-.876.391 0 .878.389.878.876 0 .389-.487.875-.878.875m98.248 12.938c.39 0 .878.39.878.876 0 .389-.39.876-.878.876-.39 0-.878-.39-.878-.876.096-.389.488-.876.878-.876m-3.512-5.253c.389 0 .877.389.877.876 0 .389-.389.875-.877.875a.873.873 0 0 1-.878-.875c0-.389.39-.876.878-.876m-5.465-14.884c0 .39-.389.876-.877.876-.39 0-.878-.389-.878-.876 0-.486.39-.875.878-.875.389.097.877.486.877.875m-5.366-7.004c0 .292-.194.487-.488.487-.291 0-.488-.195-.488-.487s.197-.486.488-.486c.294 0 .488.292.488.486m-.585 3.21c0 .292-.194.487-.488.487-.292 0-.488-.195-.488-.487 0-.291.196-.486.488-.486.294-.097.488.195.488.486m0-6.809c0 .292-.194.486-.488.486-.292 0-.488-.194-.488-.486s.196-.487.488-.487c.294-.097.488.195.488.487m-.976-3.697c.294 0 .488.195.488.487 0 .291-.194.486-.488.486-.292 0-.488-.195-.488-.486-.096-.195.098-.487.488-.487m-2.633 2.627c.292 0 .488.194.488.486s-.196.487-.488.487c-.294 0-.488-.195-.488-.487-.098-.194.098-.486.488-.486m-1.66 3.113c.294 0 .488.194.488.486s-.194.486-.488.486c-.291 0-.488-.194-.488-.486 0-.194.197-.486.488-.486m-3.121-4.67c.293 0 .488.195.488.487 0 .291-.195.486-.488.486s-.488-.195-.488-.486c0-.195.195-.487.488-.487m0 5.74c.293 0 .488.194.488.486s-.195.487-.488.487-.488-.195-.488-.487c0-.194.195-.486.488-.486M67.729 58.874c.196-1.751.975-4.378 3.611-6.031 1.365-.973 2.829-1.168 4.194-.876 1.757.486 3.317 1.946 4.684 4.572 1.072 2.238 1.268 4.281.39 6.324-.878 1.945-2.537 3.502-4.976 4.183a5.6 5.6 0 0 1-1.756.291c-.975 0-1.854-.291-2.733-.875-2.439-1.654-3.316-5.059-3.414-7.588m8.195 52.337c.391 0 .879.389.879.876a.874.874 0 0 1-.879.875.873.873 0 0 1-.878-.875c0-.487.488-.876.878-.876m-.779-8.755c0-.292.195-.487.487-.487s.488.195.488.487-.196.486-.488.486-.487-.194-.487-.486m-5.757-3.21c-.293 0-.488-.195-.488-.487s.195-.486.488-.486c.292 0 .488.194.488.486.098.292-.196.487-.488.487m1.268 4.669c.39 0 .878.389.878.876a.873.873 0 0 1-.878.875c-.39 0-.877-.389-.877-.875 0-.487.487-.876.877-.876m-1.268 5.35c.586 0 1.073.39 1.073 1.071 0 .583-.391 1.07-1.073 1.07-.585 0-1.073-.39-1.073-1.07 0-.584.585-1.071 1.073-1.071m1.073 8.367c.585 0 1.073.389 1.073 1.07 0 .583-.391 1.07-1.073 1.07-.585 0-1.073-.389-1.073-1.07 0-.584.586-1.07 1.073-1.07m1.17 6.615c.391 0 .878.389.878.875 0 .389-.39.876-.878.876a.87.87 0 0 1-.877-.876c0-.486.488-.875.877-.875m-5.755-18.873c0 .389-.39.876-.878.876a.873.873 0 0 1-.878-.876c0-.389.39-.875.878-.875s.878.389.878.875m-.684 3.891c-.292 0-.488-.194-.488-.486s.196-.486.488-.486c.294 0 .488.194.488.486 0 .195-.194.486-.488.486m.488 10.993c0 .292-.194.487-.488.487-.292 0-.488-.195-.488-.487s.196-.486.488-.486c.294-.098.488.292.488.486m-4.682-23.639c.291 0 .488.195.488.486 0 .292-.197.487-.488.487-.293 0-.488-.195-.488-.487 0-.097.195-.486.488-.486m-4.195 3.21c.292 0 .487.195.487.487 0 .291-.195.486-.487.486-.294 0-.488-.195-.488-.486 0-.195.194-.487.488-.487m-5.074-.583c.389 0 .877.389.877.875 0 .389-.389.876-.877.876a.874.874 0 0 1-.878-.876c.098-.389.488-.875.878-.875m-2.341 10.992c0 .584-.391 1.07-1.074 1.07-.586 0-1.074-.389-1.074-1.07 0-.583.391-1.07 1.074-1.07.683.097 1.074.584 1.074 1.07m-1.561-8.366c0 .292-.196.487-.488.487-.293 0-.488-.195-.488-.487s.195-.486.488-.486c.292 0 .488.292.488.486m-.976-5.739c.292 0 .488.194.488.486s-.196.486-.488.486c-.293 0-.488-.194-.488-.486-.098-.195.098-.486.488-.486M26.85 93.117c-.292.875-1.365 2.724-5.074 3.21-1.854.292-3.999 1.557-5.854 2.724-1.267.778-3.023 1.848-3.609 1.751-.487-.195-1.073-.681-1.659-1.265l1.951-1.556 5.366-3.308c.39-.292.587-.972.294-1.459-.294-.389-.976-.584-1.464-.292l-5.463 3.308-2.049 1.654c-.293-.584-.39-1.168-.293-1.654.488-1.751 3.512-4.183 4.975-5.059 1.172-.778 3.123-1.848 4.488-2.626.488 1.751 1.757 3.794 2.147 4.28.292.486.976.584 1.464.292s.585-.973.292-1.459c-.878-1.362-2.146-3.794-2.146-4.67v-.292c-.097-1.362-.976-2.237-1.757-3.015-.488-.487-1.17-1.168-1.755-1.946-.878-1.265-.878-1.751-.878-1.946 0-.097.096-.194.39-.486 1.17.097 5.756 2.918 6.732 4.378 1.561 1.945 4.194 8.268 3.902 9.436m1.756-2.14c-.391-1.751-1.366-3.892-2.243-5.643 2.828-.972 5.853-2.626 9.366-5.253 2.243-1.654 4.584-3.794 6.536-5.739l-1.56 11.965c-4.001 2.335-10.051 4.281-12.099 4.67m12.977 17.218c-.294 0-.488-.194-.488-.486s.194-.486.488-.486c.291 0 .487.194.487.486s-.196.486-.487.486m.487-4.961c0-.389.391-.875.878-.875.39 0 .878.389.878.875 0 .389-.39.876-.878.876-.487 0-.878-.292-.878-.876m1.268 7.588c.39 0 .878.389.878.875 0 .487-.39.876-.878.876-.39 0-.877-.389-.877-.876 0-.486.487-.875.877-.875m.098 11.09c-.39 0-.878-.389-.878-.876 0-.389.39-.875.878-.875.39 0 .877.389.877.875a.87.87 0 0 1-.877.876m.488-5.253c-.39 0-.878-.389-.878-.876 0-.389.39-.875.878-.875.389 0 .877.389.877.875 0 .487-.292.876-.877.876m2.537-10.02c-.39 0-.878-.389-.878-.876 0-.389.39-.875.878-.875.39 0 .878.389.878.875 0 .389-.293.876-.878.876m1.755 12.16c-.389 0-.877-.389-.877-.876 0-.389.389-.875.877-.875.39 0 .878.389.878.875-.097.39-.39.876-.878.876m.976-3.21c-.39 0-.878-.389-.878-.876 0-.486.39-.875.878-.875.39 0 .878.389.878.875 0 .487-.292.876-.878.876m1.269-11.285c0-.389.39-.875.878-.875.39 0 .878.389.878.875 0 .389-.39.876-.878.876-.39 0-.878-.389-.878-.876m1.56 3.891c0 .292-.194.487-.488.487-.292 0-.488-.195-.488-.487 0-.291.196-.486.488-.486.294-.097.488.292.488.486m-.292 5.156c.389 0 .877.389.877.876 0 .389-.389.875-.877.875a.873.873 0 0 1-.878-.875c.098-.487.488-.876.878-.876m.098 8.464c-.39 0-.878-.389-.878-.876 0-.389.39-.875.878-.875s.878.389.878.875c0 .487-.293.876-.878.876m2.633-10.409c-.39 0-.878-.39-.878-.876s.39-.875.878-.875.879.389.879.875-.294.876-.879.876m0-2.724c-.39 0-.878-.389-.878-.876 0-.486.39-.875.878-.875s.879.389.879.875c0 .487-.294.876-.879.876m2.537 5.253c-.39 0-.877-.389-.877-.876 0-.486.389-.875.877-.875.39 0 .878.389.878.875 0 .487-.39.876-.878.876m1.853-7.296c-.291 0-.487-.195-.487-.487 0-.291.196-.486.487-.486.294 0 .488.195.488.486.098.195-.096.487-.488.487m-.194-2.14c-.39 0-.878-.389-.878-.876 0-.389.39-.875.878-.875s.878.389.878.875c0 .487-.292.876-.878.876m2.342 17.802c-.587 0-1.074-.389-1.074-1.07 0-.584.39-1.07 1.074-1.07.683 0 1.073.389 1.073 1.07s-.488 1.07-1.073 1.07m1.561-10.993c-.294 0-.488-.194-.488-.486s.194-.486.488-.486c.292 0 .488.194.488.486s-.196.486-.488.486m.585-2.043c-.293 0-.488-.194-.488-.486s.195-.486.488-.486.488.194.488.486c0 .195-.195.486-.488.486m.488-7.879c0-.292.194-.487.488-.487.293 0 .488.195.488.487s-.195.486-.488.486c-.294 0-.488-.194-.488-.486m.39 26.46c4.195.486 8.585 1.167 13.074 1.654-.196 5.448-.878 24.028-.878 25.974 0 .875.097 1.751.291 2.724-.194 0-.389.097-.779.097-1.757.292-4.488.778-6.342.778-.781 0-1.269-.584-1.269-.584l-.097.098v-3.308zm14.537 45.236h-.684c-.975-4.962-1.169-5.059-1.755-5.254l-.585-.194-.39.389c-.098.097-.197.195-.197.292-.39.194-1.56.973-4.878 2.529-5.56 2.821-12.098.389-13.755-.584.78-.291 1.951-.875 3.219-1.264l1.464-.487h.195c.293-.097.878-.194 1.268-.486 2.147-1.751 5.464-6.712 5.658-6.907l.196-.195c.389.195.877.292 1.365.292 1.951 0 4.878-.486 6.635-.778.293-.097.585-.097.976-.194.097.389.293.875.39 1.264.098.292.194.584.292.973 1.562 5.448.878 9.242.586 10.604m-.196-50.781c-.584 0-1.072-.389-1.072-1.07 0-.584.39-1.07 1.072-1.07.586 0 1.073.389 1.073 1.07s-.487 1.07-1.073 1.07m2.439-14.008c-.39 0-.878-.389-.878-.876 0-.389.39-.875.878-.875.391 0 .879.389.879.875-.097.487-.391.876-.879.876m2.049 5.253c-.389 0-.877-.389-.877-.876 0-.389.389-.875.877-.875.39 0 .878.389.878.875 0 .389-.39.876-.878.876m2.538 11.965c-.391 0-.878-.389-.878-.875 0-.389.39-.876.878-.876.389 0 .877.389.877.876 0 .389-.389.875-.877.875m.291-7.879c-.291 0-.487-.195-.487-.487s.196-.486.487-.486c.294 0 .488.194.488.486s-.194.487-.488.487m1.561-8.367c-.585 0-1.073-.389-1.073-1.07 0-.583.391-1.07 1.073-1.07.587 0 1.075.389 1.075 1.07 0 .584-.391 1.07-1.075 1.07m-9.366-29.378c-.487-.195-.779-.876-.487-1.362.196-.487.879-.779 1.366-.487.097 0 7.61 3.502 12.292 2.821 1.464-.194 4.879-1.167 6.538-2.821.389-.389 1.073-.389 1.464 0a1.06 1.06 0 0 1 0 1.46c-2.244 2.14-6.05 3.113-7.708 3.307-.488.195-1.073.195-1.463.195-5.172 0-11.61-2.919-12.002-3.113m26.246 26.752c-.294 0-.488-.195-.488-.487 0-.291.194-.486.488-.486.293 0 .488.195.488.486 0 .195-.195.487-.488.487m.78 1.459c.39 0 .878.389.878.876 0 .389-.39.875-.878.875-.39 0-.878-.389-.878-.875.098-.487.488-.876.878-.876m-.292 4.28c0 .584-.391 1.071-1.073 1.071-.586 0-1.074-.39-1.074-1.071 0-.583.391-1.07 1.074-1.07.682 0 1.073.584 1.073 1.07m-2.634-7.879c-.293 0-.488-.195-.488-.487s.195-.486.488-.486c.291 0 .487.194.487.486.098.292-.196.487-.487.487m0 2.626c0 .292-.197.487-.488.487-.293 0-.488-.195-.488-.487s.195-.486.488-.486c.291 0 .488.292.488.486m0 21.986c0 .292-.197.486-.488.486-.293 0-.488-.194-.488-.486s.195-.487.488-.487c.291 0 .488.292.488.487m-.391-4.475c0 .389-.39.875-.878.875a.874.874 0 0 1-.879-.875c0-.389.391-.876.879-.876s.878.487.878.876m-1.951-14.3c-.39 0-.878-.39-.878-.876 0-.389.39-.876.878-.876.39 0 .878.39.878.876s-.293.876-.878.876m-3.123 5.739c.39 0 .878.389.878.876 0 .389-.39.875-.878.875a.87.87 0 0 1-.877-.875c.097-.487.488-.876.877-.876m-.78-11.576c0-.292.195-.487.488-.487.292 0 .488.195.488.487s-.196.486-.488.486c-.293 0-.488-.194-.488-.486m2.537 16.732c.585 0 1.072.389 1.072 1.07 0 .584-.39 1.07-1.072 1.07-.585 0-1.073-.389-1.073-1.07.097-.486.585-1.07 1.073-1.07m-.488-19.359c0-.292.194-.486.488-.486.293 0 .488.194.488.486s-.195.487-.488.487c-.294.097-.488-.195-.488-.487m-5.463 13.522c.39 0 .878.389.878.876 0 .389-.39.875-.878.875-.391 0-.878-.389-.878-.875 0-.487.487-.876.878-.876m-1.366-10.895c-.294 0-.488-.195-.488-.487s.194-.486.488-.486c.293 0 .488.194.488.486s-.195.487-.488.487m2.145 2.626c0-.292.196-.486.488-.486.294 0 .488.194.488.486s-.194.487-.488.487c-.292 0-.488-.195-.488-.487m-2.633 14.981c0-.389.39-.875.878-.875.39 0 .878.389.878.875 0 .39-.39.876-.878.876a.873.873 0 0 1-.878-.876m17.658 48.154c1.367 1.362 2.537 3.113 2.537 3.794-1.073.584-6.439-1.264-9.366-2.432-1.756-.583-3.512-1.362-4.879-1.945-3.121-1.362-3.805-1.557-4.39-1.168l-.488.39v.389l-1.072 4.28h-.781c-.39-1.362-.976-4.961.781-10.214.097-.39.39-1.071.781-1.654.389.194.877.292 1.364.292 1.758 0 5.075.389 7.124.778 1.268.194 1.853.292 2.244.292 1.561 2.237 4.779 5.837 6.145 7.198m-7.707-9.339c-.195 0-.292 0-.488-.097-2.243-.292-5.464-.778-7.415-.778-.194 0-.292 0-.488-.097.488-1.265.976-2.53.976-3.6 0-1.848-1.366-21.11-1.658-25.098 4.293.486 8.585 1.167 12.586 1.654zm3.708-40.663c-.585 0-1.073-.389-1.073-1.07 0-.584.39-1.07 1.073-1.07.584 0 1.072.389 1.072 1.07a1.08 1.08 0 0 1-1.072 1.07m2.048 5.74c-.585 0-1.072-.389-1.072-1.07 0-.584.39-1.07 1.072-1.07.585 0 1.073.389 1.073 1.07s-.389 1.07-1.073 1.07m.196-11.382c-.39 0-.878-.389-.878-.876 0-.389.39-.875.878-.875.389 0 .877.389.877.875 0 .389-.292.876-.877.876m.877-7.491c-.292 0-.488-.194-.488-.486s.196-.487.488-.487c.294 0 .488.195.488.487s-.194.486-.488.486m-.194-3.015c-.391 0-.879-.39-.879-.876 0-.389.391-.875.879-.875.39 0 .878.389.878.875 0 .389-.39.876-.878.876m1.17-44.458c-.098.098-1.853 2.821-7.122 3.211-.293.097-.585.097-.878.097-4.878 0-7.22-3.794-7.317-3.891-.294-.487-.097-1.168.293-1.46.488-.291 1.171-.097 1.463.292.098.097 2.147 3.113 6.243 2.821 4.099-.291 5.465-2.237 5.562-2.334.292-.39.976-.584 1.464-.292a1.21 1.21 0 0 1 .292 1.556m1.171 49.224c0-.389.391-.875.878-.875.488 0 .878.389.878.875 0 .389-.39.876-.878.876-.487 0-.878-.292-.878-.876m.488 6.615c0-.583.39-1.07 1.073-1.07.585 0 1.073.389 1.073 1.07 0 .584-.391 1.07-1.073 1.07-.585 0-1.073-.389-1.073-1.07m1.561 14.203c-.293 0-.488-.194-.488-.486s.195-.486.488-.486.488.194.488.486-.195.486-.488.486m-.195-6.712c-.39 0-.878-.389-.878-.876 0-.389.39-.875.878-.875s.877.389.877.875c0 .39-.389.876-.877.876m2.147-4.864c-.392 0-.88-.389-.88-.876 0-.486.392-.875.88-.875.39 0 .878.389.878.875a.874.874 0 0 1-.878.876m.681-9.436c-.291 0-.487-.195-.487-.487 0-.291.196-.486.487-.486.294 0 .488.195.488.486 0 .292-.194.487-.488.487m1.562 18.386c-.586 0-1.074-.389-1.074-1.07 0-.584.391-1.07 1.074-1.07.586 0 1.074.389 1.074 1.07 0 .583-.391 1.07-1.074 1.07m.878-18.386c-.39 0-.878-.389-.878-.876 0-.486.39-.875.878-.875.39 0 .878.389.878.875a.874.874 0 0 1-.878.876m1.269-4.183c-.294 0-.488-.195-.488-.487s.194-.486.488-.486c.293 0 .488.194.488.486s-.195.487-.488.487m1.268 7.977c-.39 0-.878-.389-.878-.876 0-.389.39-.875.878-.875.389 0 .877.389.877.875-.097.487-.389.876-.877.876m1.853 17.218c-.585 0-1.073-.389-1.073-1.07 0-.583.391-1.07 1.073-1.07.586 0 1.074.389 1.074 1.07 0 .584-.39 1.07-1.074 1.07m.878-6.712c-.39 0-.878-.389-.878-.876 0-.389.39-.875.878-.875.391 0 .879.389.879.875-.097.39-.391.876-.879.876m0-14.3c-.39 0-.878-.389-.878-.876 0-.486.39-.875.878-.875.391 0 .879.389.879.875a.874.874 0 0 1-.879.876m1.66-3.989c0-.389.389-.875.877-.875.39 0 .878.389.878.875 0 .487-.39.876-.878.876s-.877-.292-.877-.876m1.463 27.725c-.39 0-.878-.389-.878-.875 0-.389.39-.876.878-.876.389 0 .877.389.877.876 0 .389-.389.875-.877.875m.195-7.977c-.585 0-1.073-.389-1.073-1.07 0-.584.39-1.07 1.073-1.07.585 0 1.072.389 1.072 1.07 0 .584-.39 1.07-1.072 1.07m29.463-37.745c-.389 3.016-6.829 13.62-12.584 14.495-4.587.292-9.757-3.016-11.904-4.864l1.463-10.993c1.172 1.654 2.636 3.502 4.587 5.254 1.267.972 2.537 1.459 3.902 1.459.488 0 .976-.098 1.464-.195 4.39-1.07 8-7.004 9.658-10.214 1.269 1.945 2.439 3.696 3.513 4.475-.099.291-.099.389-.099.583m11.904-7.977c-1.951 1.07-3.805 1.946-4.684 3.211-1.657 2.14-3.609 3.113-5.462 2.821-1.074-.195-3.61-4.475-4.294-5.837-.292-.487-.488-.973-.78-1.265-1.268-3.016-.391-5.642.585-7.393l.292-.487c.391-.778.976-1.751 1.366-1.751.098 0 .196 0 .391.098.293 1.07 0 2.334-.293 3.599-.389 1.557-.877 3.308.781 4.086.976.389 1.854 2.529 2.244 3.502.195.486.78.875 1.268.778.487-.194.879-.778.781-1.264-.097-.292-.781-2.432-2.146-3.794.975-.779 3.024-2.335 4.292-3.016.196-.097.391-.195.586-.389 1.268-.778 3.316-1.946 5.171-2.14h.39c.098.097 0 .875-.39 1.556-.195.195-1.464 1.265-2.439 2.14-3.513 2.919-3.708 3.113-3.22 3.989.195.389.585.778 1.365.486 5.172-1.362 7.416-1.654 8.099-1.654.292.195.292.39.292.39-.195.194-2.829 1.751-4.195 2.334" class="st2" style="fill:#000;fill-opacity:1"/></g></g></g></g>
    </g>
</svg>
