<?xml version="1.0" encoding="UTF-8" standalone="no"?>
<svg width="180" height="180" id="screenshot-09829ce9-e715-80b1-8004-5ffbd4189156" fill="none"
    version="1.1" xmlns="http://www.w3.org/2000/svg">
    <defs id="defs296" />
    <g xml:space="preserve" style="fill:rgb(0, 0, 0)" id="g291"><g
       id="shape-09829ce9-e715-80b1-8004-5ffbd4190468"><g
         class="fills"
         id="fills-09829ce9-e715-80b1-8004-5ffbd4190468"><path
           d="M69.6 55.7c-2.2 2.8 1.1 11.2 5.3 9.8 4.2-1.4 7.3-5.6 5.3-9.8-2.2-4.2-4-5.1-7.3-2.8-2.2 1.4-1.2 0-3.3 2.8Z"
           class="st0"
           id="path231" /></g></g>
        <g id="shape-09829ce9-e715-80b1-8004-5ffbd4190469"><g
         class="fills"
         id="fills-09829ce9-e715-80b1-8004-5ffbd4190469"><path
           d="M45 68.2c0 .9-4.4 6-10.1 10.4-3 2.3-6.4 4.3-9.6 5.3"
           class="st0"
           id="path235" /></g></g>
        <g id="shape-09829ce9-e715-80b1-8004-5ffbd419046a"><g
         class="fills"
         id="fills-09829ce9-e715-80b1-8004-5ffbd419046a"><path
           d="M42.3 86.5c0 .4-4.2 3.5-8.8 5.3-1.9.8-4 1.8-5.9 1.9"
           class="st0"
           id="path239" /></g></g>
        <g id="shape-09829ce9-e715-80b1-8004-5ffbd41947c3"><g
         class="fills"
         id="fills-09829ce9-e715-80b1-8004-5ffbd41947c3"><path
           d="M20.8 91.8s-2.3-3.7-2.3-5.4c0-1.8-1.7-2.4-3.5-4.9-1.8-2.5-1-3.5.2-4.1 1.2-.5 7 3.1 8.2 5 1.2 1.8 4.5 9.1 3.9 10.8-.6 1.7-2.5 3.6-6 4-3.6.5-8.4 5.2-10.2 4.5-1.7-.6-4.6-3.7-4-6 .6-2.3 4.3-5.1 5.5-5.8 1.8-1.2 6-3.5 6-3.5"
           class="st0"
           id="path243" /></g></g>
        <g id="shape-09829ce9-e715-80b1-8004-5ffbd41947c4"><g
         class="fills"
         id="fills-09829ce9-e715-80b1-8004-5ffbd41947c4"><path
           d="M8.2 99.3 11 97l2.6-1.6 3-1.8"
           class="st0"
           id="path247" /></g></g>
        <g id="shape-09829ce9-e715-80b1-8004-5ffbd41947c5"><g
         class="fills"
         id="fills-09829ce9-e715-80b1-8004-5ffbd41947c5"><path
           d="M79.2 78.2s7.9 3.7 13.2 3c1.7-.2 5.4-1.3 7.3-3.1"
           class="st0"
           id="path251" /></g></g>
        <g id="shape-09829ce9-e715-80b1-8004-5ffbd41947c6"><g
         class="fills"
         id="fills-09829ce9-e715-80b1-8004-5ffbd41947c6"><circle
           cx="113.2"
           cy="106.2"
           class="st1"
           r=".5"
           id="circle255" /></g></g>
        <g id="shape-09829ce9-e715-80b1-8004-5ffbd41947c7"><g
         class="fills"
         id="fills-09829ce9-e715-80b1-8004-5ffbd41947c7"><circle
           cx="102.9"
           cy="129.9"
           class="st1"
           r=".5"
           id="circle259" /></g></g>
        <g id="shape-09829ce9-e715-80b1-8004-5ffbd41947c8"><g
         class="fills"
         id="fills-09829ce9-e715-80b1-8004-5ffbd41947c8"><path
           d="M95 57.3s2.4 3.9 7.3 3.5c5-.4 6.6-2.9 6.6-2.9"
           class="st0"
           id="path263" /></g></g>
        <g id="shape-09829ce9-e715-80b1-8004-5ffbd4198583"><g
         class="fills"
         id="fills-09829ce9-e715-80b1-8004-5ffbd4198583"><path
           d="m63.1 126.7 4.4 29.9v5.6s-3.6 5.2-5.6 6.9c-.3.3-.8.3-1.1.4-4.7 1.7-6.8 2.3-5.6 3.3 1.1 1.1 9.1 4.5 15.7 1.1 6.8-3.3 5.2-2.8 5.5-3.1.2-.2 1.3 5.4 1.3 5.4h2.4s1.9-4.5-.5-12.4c-.5-1.7-1.6-4.5-1.6-6.8s1-28.1 1-28.1"
           class="st0"
           id="path267" /></g></g>
        <g id="shape-09829ce9-e715-80b1-8004-5ffbd4198584"><g
         class="fills"
         id="fills-09829ce9-e715-80b1-8004-5ffbd4198584"><path
           d="m107.1 129.4-3.7 29.1-.5 4.3s5.6 6.7 7.5 8.6c1.1 1.1 3.8 4.3 2.7 5.4-1.1 1.1-3.8.4-10.8-2.2-4.4-1.6-8.6-3.8-8.6-3.2l-1.3 5.4H90s-1.9-4.4.5-11.9c.5-1.6 2.5-4.9 2.5-7 0-2.2-1.7-26.4-1.7-26.4"
           class="st0"
           id="path271" /></g></g>
        <g id="shape-09829ce9-e715-80b1-8004-5ffbd4198585"><g
         class="fills"
         id="fills-09829ce9-e715-80b1-8004-5ffbd4198585"><path
           d="M67.9 160.6s.9 1.1 2.2 1.1c2.9 0 7.9-1.1 8.6-1.1"
           class="st0"
           id="path275" /></g></g>
        <g id="shape-09829ce9-e715-80b1-8004-5ffbd419c31f"><g
         class="fills"
         id="fills-09829ce9-e715-80b1-8004-5ffbd419c31f"><path
           d="M91.6 161.7s.9 1.1 2.2 1.1c2.9 0 9 1.1 9.7 1.1"
           class="st0"
           id="path279" /></g></g>
        <g id="shape-09829ce9-e715-80b1-8004-5ffbd419c320"><g
         class="fills"
         id="fills-09829ce9-e715-80b1-8004-5ffbd419c320"><path
           d="M77.8 62c.5-1.4.4-3-.4-4.6-1-2-2.3-3.3-3.4-3.7-.8-.2-1.6 0-2.6.5-1.8 1.3-2.4 3.2-2.6 4.6.1 2.5 1.2 5 2.6 5.9.8.5 1.7.6 2.7.3 1.8-.5 3.2-1.6 3.7-3Z"
           class="st2"
           id="path283" /></g></g>
        <g id="shape-09829ce9-e715-80b1-8004-5ffbd41c08fc"><g
         class="fills"
         id="fills-09829ce9-e715-80b1-8004-5ffbd41c08fc"><path
           d="M172.6 74c-.4-.2-.9-.5-5.9.5 1.7-1.5 2.5-2 2.7-2.4.8-1.1 1.3-2.7.6-3.9-.2-.4-.9-1.3-2.4-1.2-2.5.1-4.8 1.6-6.4 2.5-.2.1-.4.3-.6.3-1.4.8-3.2 2.2-4.4 3 .1-.2.1-.5.2-.8.4-1.6 1-3.7.1-5.4l-.1-.2-.2-.1c-.9-.5-1.6-.8-2.4-.6-1.3.3-2 1.6-2.8 2.9l-.3.5c-1.7 3.1-2 6.6-.6 9.6l.1.1c.1.2.3.5.5 1-1.4 3-5.2 9.6-9.1 10.6-1.3.3-2.5 0-3.7-.9-2.8-2.5-4.6-5.3-5.7-7.1l1.7-13.3c1.4-10.6-.5-20.3-5.8-29.3-5-8.5-11.9-14.5-20.8-18.5-1.1-.5-1.7-1.6-1.6-2.8l.4-3.2c.4-3.1-.3-6-2.3-8.5-1.9-2.6-4.5-4-7.6-4.4-3.1-.4-6 .3-8.5 2.3-2.6 1.9-4 4.5-4.4 7.6l-.3 3.2c-.1 1.2-1.1 2.2-2.3 2.4-9.6 1.5-17.9 5.7-24.8 12.5-7.4 7.3-11.7 16.3-13.1 26.8l-1.7 13.6c-1.6 1.9-4.6 5.1-8.5 8-3.4 2.6-6.6 4.3-9.3 5.1-.2-.5-.4-.9-.6-1.1-1.1-1.7-7.4-6.4-9.6-5.3-.9.5-1.5 1.2-1.6 1.9-.2 1.1.1 2.3 1.2 3.8.8 1.1 1.5 1.7 2 2.4.5.5.9.9 1.1 1.2-1.3.8-4 2.2-5.4 3.1-.2.1-5.1 3.2-5.9 6.5-.9 3.1 2.6 6.6 4.6 7.3.2.1.5.1.8.1 1.3 0 2.9-1 4.7-2.2 1.7-1.1 3.8-2.3 5.2-2.5 4.8-.5 6.5-3.4 6.9-4.6.1-.2.1-.5.1-.9 2.4-.4 7.6-2 11.9-4.3l-2.5 19.3c-.1 1.1-1 2-2 2.4l-12.4 3.1c-1.1.3-1.9 1.2-2 2.4l-.5 4.5c-.2 1.5.9 2.9 2.4 3.1 6 .8 21.4 2.8 39.2 5.1l4.2 28.3v5.2c-.8 1.1-3.6 5.1-5.3 6.5 0 0-.2 0-.3.1-.1 0-.3.1-.4.1l-1.5.5c-3.4 1.2-4.8 1.7-5.1 2.9-.1.4 0 1 .6 1.6 1.4 1.4 9.8 5 16.9 1.3 2.2-1.1 3.6-1.7 4.4-2.3.2 1.1.5 2.5.8 3.8l.2.9h4l.3-.6c.1-.2 2-5-.5-13.1-.1-.3-.2-.6-.3-1-.5-1.6-1.3-3.8-1.3-5.5 0-1.8.6-20.6.9-26.4 3.4.4 6.9.9 10.3 1.3.6 8.4 1.7 24.4 1.7 26.1 0 1.3-.9 3.1-1.6 4.6-.3.8-.6 1.5-.9 2-2.6 7.8-.5 12.4-.5 12.6l.3.6h4l1.3-5.3c.6.2 1.5.6 2.4 1 1.4.6 3.2 1.4 5.1 2 4.8 1.8 7.8 2.7 9.7 2.7 1 0 1.7-.3 2.3-.9.9-.9.8-2.3-.4-4-.8-1.2-1.7-2.3-2.3-2.9-1.6-1.6-6-6.8-7.2-8.2l3.6-28.3c13.7 1.8 25.2 3.2 30.8 4 1.8.2 3.3-1.4 3.1-3.2l-.6-4c-.1-.8-.5-1.4-1.2-1.8l-9.5-6.7c-.9-.5-1.3-1.6-1.2-2.6l2.7-21.2c2.7 2 7.3 4.6 12 4.6h.8c7.5-1.2 14.3-13.1 14.9-16.7h.3c1.7 0 4.2-.6 6.6-3.8.6-.9 2.6-1.8 4.2-2.7 2.8-1.4 5.2-2.7 5.3-4.5-.4-.7-.9-1.4-1.9-2.2ZM25.4 120.3c-.4 0-.9-.4-.9-.9 0-.4.4-.9.9-.9.4 0 .9.4.9.9 0 .4-.3.9-.9.9Zm6.5-3.3c-.4 0-.9-.4-.9-.9s.4-.9.9-.9c.4 0 .9.4.9.9s-.4.9-.9.9Zm2.7 4.8c-.4 0-.9-.4-.9-.9 0-.4.4-.9.9-.9.4 0 .9.4.9.9 0 .4-.5.9-.9.9Zm100.7 13.3c.4 0 .9.4.9.9 0 .4-.4.9-.9.9-.4 0-.9-.4-.9-.9.1-.4.5-.9.9-.9Zm-3.6-5.4c.4 0 .9.4.9.9 0 .4-.4.9-.9.9s-.9-.4-.9-.9c0-.4.4-.9.9-.9Zm-5.6-15.3c0 .4-.4.9-.9.9-.4 0-.9-.4-.9-.9s.4-.9.9-.9c.4.1.9.5.9.9Zm-5.5-7.2c0 .3-.2.5-.5.5s-.5-.2-.5-.5.2-.5.5-.5.5.3.5.5Zm-.6 3.3c0 .3-.2.5-.5.5s-.5-.2-.5-.5.2-.5.5-.5c.3-.1.5.2.5.5Zm0-7c0 .3-.2.5-.5.5s-.5-.2-.5-.5.2-.5.5-.5c.3-.1.5.2.5.5Zm-1-3.8c.3 0 .5.2.5.5s-.2.5-.5.5-.5-.2-.5-.5c-.1-.2.1-.5.5-.5Zm-2.7 2.7c.3 0 .5.2.5.5s-.2.5-.5.5-.5-.2-.5-.5c-.1-.2.1-.5.5-.5Zm-1.7 3.2c.3 0 .5.2.5.5s-.2.5-.5.5-.5-.2-.5-.5c0-.2.2-.5.5-.5Zm-3.2-4.8c.3 0 .5.2.5.5s-.2.5-.5.5-.5-.2-.5-.5c0-.2.2-.5.5-.5Zm0 5.9c.3 0 .5.2.5.5s-.2.5-.5.5-.5-.2-.5-.5c0-.2.2-.5.5-.5Zm-44.8-48c.2-1.8 1-4.5 3.7-6.2 1.4-1 2.9-1.2 4.3-.9 1.8.5 3.4 2 4.8 4.7 1.1 2.3 1.3 4.4.4 6.5-.9 2-2.6 3.6-5.1 4.3-.6.2-1.2.3-1.8.3-1 0-1.9-.3-2.8-.9-2.5-1.7-3.4-5.2-3.6-7.8Zm8.4 53.8c.4 0 .9.4.9.9s-.4.9-.9.9-.9-.4-.9-.9.5-.9.9-.9Zm-.8-9c0-.3.2-.5.5-.5s.5.2.5.5-.2.5-.5.5-.5-.2-.5-.5Zm-5.9-3.3c-.3 0-.5-.2-.5-.5s.2-.5.5-.5.5.2.5.5c.1.3-.2.5-.5.5Zm1.3 4.8c.4 0 .9.4.9.9s-.4.9-.9.9c-.4 0-.9-.4-.9-.9s.5-.9.9-.9Zm-1.3 5.5c.6 0 1.1.4 1.1 1.1 0 .6-.4 1.1-1.1 1.1-.6 0-1.1-.4-1.1-1.1 0-.6.6-1.1 1.1-1.1Zm1.1 8.6c.6 0 1.1.4 1.1 1.1 0 .6-.4 1.1-1.1 1.1-.6 0-1.1-.4-1.1-1.1 0-.6.6-1.1 1.1-1.1Zm1.2 6.8c.4 0 .9.4.9.9 0 .4-.4.9-.9.9s-.9-.4-.9-.9.5-.9.9-.9Zm-5.9-19.4c0 .4-.4.9-.9.9s-.9-.4-.9-.9c0-.4.4-.9.9-.9s.9.4.9.9Zm-.7 4c-.3 0-.5-.2-.5-.5s.2-.5.5-.5.5.2.5.5c0 .2-.2.5-.5.5Zm.5 11.3c0 .3-.2.5-.5.5s-.5-.2-.5-.5.2-.5.5-.5c.3-.1.5.3.5.5Zm-4.8-24.3c.3 0 .5.2.5.5s-.2.5-.5.5-.5-.2-.5-.5c0-.1.2-.5.5-.5Zm-4.3 3.3c.3 0 .5.2.5.5s-.2.5-.5.5-.5-.2-.5-.5c0-.2.2-.5.5-.5Zm-5.2-.6c.4 0 .9.4.9.9 0 .4-.4.9-.9.9s-.9-.4-.9-.9c.1-.4.5-.9.9-.9Zm-2.4 11.3c0 .6-.4 1.1-1.1 1.1-.6 0-1.1-.4-1.1-1.1 0-.6.4-1.1 1.1-1.1.7.1 1.1.6 1.1 1.1Zm-1.6-8.6c0 .3-.2.5-.5.5s-.5-.2-.5-.5.2-.5.5-.5.5.3.5.5Zm-1-5.9c.3 0 .5.2.5.5s-.2.5-.5.5-.5-.2-.5-.5c-.1-.2.1-.5.5-.5Zm-20.5-3.1c-.3.9-1.4 2.8-5.2 3.3-1.9.3-4.1 1.6-6 2.8-1.3.8-3.1 1.9-3.7 1.8-.5-.2-1.1-.7-1.7-1.3l2-1.6 5.5-3.4c.4-.3.6-1 .3-1.5-.3-.4-1-.6-1.5-.3l-5.6 3.4-2.1 1.7c-.3-.6-.4-1.2-.3-1.7.5-1.8 3.6-4.3 5.1-5.2 1.2-.8 3.2-1.9 4.6-2.7.5 1.8 1.8 3.9 2.2 4.4.3.5 1 .6 1.5.3s.6-1 .3-1.5c-.9-1.4-2.2-3.9-2.2-4.8V87.3c-.1-1.4-1-2.3-1.8-3.1-.5-.5-1.2-1.2-1.8-2-.9-1.3-.9-1.8-.9-2 0-.1.1-.2.4-.5 1.2.1 5.9 3 6.9 4.5 1.6 2 4.3 8.5 4 9.7Zm1.8-2.2c-.4-1.8-1.4-4-2.3-5.8 2.9-1 6-2.7 9.6-5.4 2.3-1.7 4.7-3.9 6.7-5.9l-1.6 12.3c-4.1 2.4-10.3 4.4-12.4 4.8Zm13.3 17.7c-.3 0-.5-.2-.5-.5s.2-.5.5-.5.5.2.5.5-.2.5-.5.5Zm.5-5.1c0-.4.4-.9.9-.9.4 0 .9.4.9.9 0 .4-.4.9-.9.9s-.9-.3-.9-.9Zm1.3 7.8c.4 0 .9.4.9.9s-.4.9-.9.9c-.4 0-.9-.4-.9-.9s.5-.9.9-.9Zm.1 11.4c-.4 0-.9-.4-.9-.9 0-.4.4-.9.9-.9.4 0 .9.4.9.9s-.4.9-.9.9Zm.5-5.4c-.4 0-.9-.4-.9-.9 0-.4.4-.9.9-.9.4 0 .9.4.9.9s-.3.9-.9.9Zm2.6-10.3c-.4 0-.9-.4-.9-.9 0-.4.4-.9.9-.9.4 0 .9.4.9.9 0 .4-.3.9-.9.9Zm1.8 12.5c-.4 0-.9-.4-.9-.9 0-.4.4-.9.9-.9.4 0 .9.4.9.9-.1.4-.4.9-.9.9Zm1-3.3c-.4 0-.9-.4-.9-.9s.4-.9.9-.9c.4 0 .9.4.9.9s-.3.9-.9.9Zm1.3-11.6c0-.4.4-.9.9-.9.4 0 .9.4.9.9 0 .4-.4.9-.9.9-.4 0-.9-.4-.9-.9Zm1.6 4c0 .3-.2.5-.5.5s-.5-.2-.5-.5.2-.5.5-.5c.3-.1.5.3.5.5Zm-.3 5.3c.4 0 .9.4.9.9 0 .4-.4.9-.9.9s-.9-.4-.9-.9c.1-.5.5-.9.9-.9Zm.1 8.7c-.4 0-.9-.4-.9-.9 0-.4.4-.9.9-.9s.9.4.9.9-.3.9-.9.9Zm2.7-10.7c-.4 0-.9-.4-.9-.9s.4-.9.9-.9.9.4.9.9-.3.9-.9.9Zm0-2.8c-.4 0-.9-.4-.9-.9s.4-.9.9-.9.9.4.9.9-.3.9-.9.9Zm2.6 5.4c-.4 0-.9-.4-.9-.9s.4-.9.9-.9c.4 0 .9.4.9.9s-.4.9-.9.9Zm1.9-7.5c-.3 0-.5-.2-.5-.5s.2-.5.5-.5.5.2.5.5c.1.2-.1.5-.5.5Zm-.2-2.2c-.4 0-.9-.4-.9-.9 0-.4.4-.9.9-.9s.9.4.9.9-.3.9-.9.9Zm2.4 18.3c-.6 0-1.1-.4-1.1-1.1 0-.6.4-1.1 1.1-1.1.7 0 1.1.4 1.1 1.1 0 .7-.5 1.1-1.1 1.1Zm1.6-11.3c-.3 0-.5-.2-.5-.5s.2-.5.5-.5.5.2.5.5-.2.5-.5.5Zm.6-2.1c-.3 0-.5-.2-.5-.5s.2-.5.5-.5.5.2.5.5c0 .2-.2.5-.5.5Zm.5-8.1c0-.3.2-.5.5-.5s.5.2.5.5-.2.5-.5.5-.5-.2-.5-.5Zm.4 27.2c4.3.5 8.8 1.2 13.4 1.7-.2 5.6-.9 24.7-.9 26.7 0 .9.1 1.8.3 2.8-.2 0-.4.1-.8.1-1.8.3-4.6.8-6.5.8-.8 0-1.3-.6-1.3-.6l-.1.1v-3.4l-4.1-28.2Zm14.9 46.5H77c-1-5.1-1.2-5.2-1.8-5.4l-.6-.2-.4.4c-.1.1-.2.2-.2.3-.4.2-1.6 1-5 2.6-5.7 2.9-12.4.4-14.1-.6.8-.3 2-.9 3.3-1.3l1.5-.5h.2c.3-.1.9-.2 1.3-.5 2.2-1.8 5.6-6.9 5.8-7.1l.2-.2c.4.2.9.3 1.4.3 2 0 5-.5 6.8-.8.3-.1.6-.1 1-.2.1.4.3.9.4 1.3.1.3.2.6.3 1 1.6 5.6.9 9.5.6 10.9Zm-.2-52.2c-.6 0-1.1-.4-1.1-1.1 0-.6.4-1.1 1.1-1.1.6 0 1.1.4 1.1 1.1 0 .7-.5 1.1-1.1 1.1Zm2.5-14.4c-.4 0-.9-.4-.9-.9 0-.4.4-.9.9-.9.4 0 .9.4.9.9-.1.5-.4.9-.9.9Zm2.1 5.4c-.4 0-.9-.4-.9-.9 0-.4.4-.9.9-.9.4 0 .9.4.9.9 0 .4-.4.9-.9.9Zm2.6 12.3c-.4 0-.9-.4-.9-.9 0-.4.4-.9.9-.9.4 0 .9.4.9.9 0 .4-.4.9-.9.9Zm.3-8.1c-.3 0-.5-.2-.5-.5s.2-.5.5-.5.5.2.5.5-.2.5-.5.5Zm1.6-8.6c-.6 0-1.1-.4-1.1-1.1 0-.6.4-1.1 1.1-1.1.6 0 1.1.4 1.1 1.1 0 .6-.4 1.1-1.1 1.1ZM77 80.3c-.5-.2-.8-.9-.5-1.4.2-.5.9-.8 1.4-.5.1 0 7.8 3.6 12.6 2.9 1.5-.2 5-1.2 6.7-2.9.4-.4 1.1-.4 1.5 0 .4.4.4 1.1 0 1.5-2.3 2.2-6.2 3.2-7.9 3.4-.5.2-1.1.2-1.5.2-5.3 0-11.9-3-12.3-3.2Zm26.9 27.5c-.3 0-.5-.2-.5-.5s.2-.5.5-.5.5.2.5.5c0 .2-.2.5-.5.5Zm.8 1.5c.4 0 .9.4.9.9 0 .4-.4.9-.9.9-.4 0-.9-.4-.9-.9.1-.5.5-.9.9-.9Zm-.3 4.4c0 .6-.4 1.1-1.1 1.1-.6 0-1.1-.4-1.1-1.1 0-.6.4-1.1 1.1-1.1.7 0 1.1.6 1.1 1.1Zm-2.7-8.1c-.3 0-.5-.2-.5-.5s.2-.5.5-.5.5.2.5.5c.1.3-.2.5-.5.5Zm0 2.7c0 .3-.2.5-.5.5s-.5-.2-.5-.5.2-.5.5-.5.5.3.5.5Zm0 22.6c0 .3-.2.5-.5.5s-.5-.2-.5-.5.2-.5.5-.5.5.3.5.5Zm-.4-4.6c0 .4-.4.9-.9.9s-.9-.4-.9-.9c0-.4.4-.9.9-.9s.9.5.9.9Zm-2-14.7c-.4 0-.9-.4-.9-.9 0-.4.4-.9.9-.9.4 0 .9.4.9.9s-.3.9-.9.9Zm-3.2 5.9c.4 0 .9.4.9.9 0 .4-.4.9-.9.9s-.9-.4-.9-.9c.1-.5.5-.9.9-.9Zm-.8-11.9c0-.3.2-.5.5-.5s.5.2.5.5-.2.5-.5.5-.5-.2-.5-.5Zm2.6 17.2c.6 0 1.1.4 1.1 1.1 0 .6-.4 1.1-1.1 1.1-.6 0-1.1-.4-1.1-1.1.1-.5.6-1.1 1.1-1.1Zm-.5-19.9c0-.3.2-.5.5-.5s.5.2.5.5-.2.5-.5.5c-.3.1-.5-.2-.5-.5Zm-5.6 13.9c.4 0 .9.4.9.9 0 .4-.4.9-.9.9-.4 0-.9-.4-.9-.9s.5-.9.9-.9Zm-1.4-11.2c-.3 0-.5-.2-.5-.5s.2-.5.5-.5.5.2.5.5-.2.5-.5.5Zm2.2 2.7c0-.3.2-.5.5-.5s.5.2.5.5-.2.5-.5.5-.5-.2-.5-.5Zm-2.7 15.4c0-.4.4-.9.9-.9.4 0 .9.4.9.9 0 .4-.4.9-.9.9s-.9-.4-.9-.9Zm18.1 49.5c1.4 1.4 2.6 3.2 2.6 3.9-1.1.6-6.6-1.3-9.6-2.5-1.8-.6-3.6-1.4-5-2-3.2-1.4-3.9-1.6-4.5-1.2l-.5.4v.4l-1.1 4.4h-.8c-.4-1.4-1-5.1.8-10.5.1-.4.4-1.1.8-1.7.4.2.9.3 1.4.3 1.8 0 5.2.4 7.3.8 1.3.2 1.9.3 2.3.3 1.6 2.3 4.9 6 6.3 7.4Zm-7.9-9.6c-.2 0-.3 0-.5-.1-2.3-.3-5.6-.8-7.6-.8-.2 0-.3 0-.5-.1.5-1.3 1-2.6 1-3.7 0-1.9-1.4-21.7-1.7-25.8 4.4.5 8.8 1.2 12.9 1.7l-3.6 28.8Zm3.8-41.8c-.6 0-1.1-.4-1.1-1.1 0-.6.4-1.1 1.1-1.1.6 0 1.1.4 1.1 1.1 0 .6-.5 1.1-1.1 1.1Zm2.1 5.9c-.6 0-1.1-.4-1.1-1.1 0-.6.4-1.1 1.1-1.1.6 0 1.1.4 1.1 1.1 0 .7-.4 1.1-1.1 1.1Zm.2-11.7c-.4 0-.9-.4-.9-.9 0-.4.4-.9.9-.9.4 0 .9.4.9.9 0 .4-.3.9-.9.9Zm.9-7.7c-.3 0-.5-.2-.5-.5s.2-.5.5-.5.5.2.5.5-.2.5-.5.5Zm-.2-3.1c-.4 0-.9-.4-.9-.9 0-.4.4-.9.9-.9.4 0 .9.4.9.9 0 .4-.4.9-.9.9Zm1.2-45.7c-.1.1-1.9 2.9-7.3 3.3-.3.1-.6.1-.9.1-5 0-7.4-3.9-7.5-4-.3-.5-.1-1.2.3-1.5.5-.3 1.2-.1 1.5.3.1.1 2.2 3.2 6.4 2.9 4.2-.3 5.6-2.3 5.7-2.4.3-.4 1-.6 1.5-.3.5.4.6 1.1.3 1.6Zm1.2 50.6c0-.4.4-.9.9-.9s.9.4.9.9c0 .4-.4.9-.9.9s-.9-.3-.9-.9Zm.5 6.8c0-.6.4-1.1 1.1-1.1.6 0 1.1.4 1.1 1.1 0 .6-.4 1.1-1.1 1.1-.6 0-1.1-.4-1.1-1.1Zm1.6 14.6c-.3 0-.5-.2-.5-.5s.2-.5.5-.5.5.2.5.5-.2.5-.5.5Zm-.2-6.9c-.4 0-.9-.4-.9-.9 0-.4.4-.9.9-.9s.9.4.9.9c0 .4-.4.9-.9.9Zm2.2-5c-.4 0-.9-.4-.9-.9s.4-.9.9-.9c.4 0 .9.4.9.9s-.4.9-.9.9Zm.7-9.7c-.3 0-.5-.2-.5-.5s.2-.5.5-.5.5.2.5.5-.2.5-.5.5Zm1.6 18.9c-.6 0-1.1-.4-1.1-1.1 0-.6.4-1.1 1.1-1.1.6 0 1.1.4 1.1 1.1 0 .6-.4 1.1-1.1 1.1Zm.9-18.9c-.4 0-.9-.4-.9-.9s.4-.9.9-.9c.4 0 .9.4.9.9s-.4.9-.9.9Zm1.3-4.3c-.3 0-.5-.2-.5-.5s.2-.5.5-.5.5.2.5.5-.2.5-.5.5Zm1.3 8.2c-.4 0-.9-.4-.9-.9 0-.4.4-.9.9-.9.4 0 .9.4.9.9-.1.5-.4.9-.9.9Zm1.9 17.7c-.6 0-1.1-.4-1.1-1.1 0-.6.4-1.1 1.1-1.1.6 0 1.1.4 1.1 1.1 0 .6-.4 1.1-1.1 1.1Zm.9-6.9c-.4 0-.9-.4-.9-.9 0-.4.4-.9.9-.9.4 0 .9.4.9.9-.1.4-.4.9-.9.9Zm0-14.7c-.4 0-.9-.4-.9-.9s.4-.9.9-.9c.4 0 .9.4.9.9s-.4.9-.9.9Zm1.7-4.1c0-.4.4-.9.9-.9.4 0 .9.4.9.9s-.4.9-.9.9-.9-.3-.9-.9Zm1.5 28.5c-.4 0-.9-.4-.9-.9 0-.4.4-.9.9-.9.4 0 .9.4.9.9 0 .4-.4.9-.9.9Zm.2-8.2c-.6 0-1.1-.4-1.1-1.1 0-.6.4-1.1 1.1-1.1.6 0 1.1.4 1.1 1.1 0 .6-.4 1.1-1.1 1.1Zm30.2-38.8c-.4 3.1-7 14-12.9 14.9-4.7.3-10-3.1-12.2-5l1.5-11.3c1.2 1.7 2.7 3.6 4.7 5.4 1.3 1 2.6 1.5 4 1.5.5 0 1-.1 1.5-.2 4.5-1.1 8.2-7.2 9.9-10.5 1.3 2 2.5 3.8 3.6 4.6-.1.3-.1.4-.1.6Zm12.2-8.2c-2 1.1-3.9 2-4.8 3.3-1.7 2.2-3.7 3.2-5.6 2.9-1.1-.2-3.7-4.6-4.4-6-.3-.5-.5-1-.8-1.3-1.3-3.1-.4-5.8.6-7.6l.3-.5c.4-.8 1-1.8 1.4-1.8.1 0 .2 0 .4.1.3 1.1 0 2.4-.3 3.7-.4 1.6-.9 3.4.8 4.2 1 .4 1.9 2.6 2.3 3.6.2.5.8.9 1.3.8.5-.2.9-.8.8-1.3-.1-.3-.8-2.5-2.2-3.9 1-.8 3.1-2.4 4.4-3.1.2-.1.4-.2.6-.4 1.3-.8 3.4-2 5.3-2.2h.4c.1.1 0 .9-.4 1.6-.2.2-1.5 1.3-2.5 2.2-3.6 3-3.8 3.2-3.3 4.1.2.4.6.8 1.4.5 5.3-1.4 7.6-1.7 8.3-1.7.3.2.3.4.3.4-.2.2-2.9 1.8-4.3 2.4Z"
           class="st2"
           id="path287" /></g></g></g>
</svg>
