<?xml version="1.0" encoding="UTF-8" standalone="no"?>
<svg width="180" height="180" id="screenshot-09829ce9-e715-80b1-8004-5ff9806b24db" fill="none"
    version="1.1" xmlns="http://www.w3.org/2000/svg">
    <defs id="defs365" />
    <g xml:space="preserve" style="fill:#000000" id="g360"><g
       id="shape-09829ce9-e715-80b1-8004-5ff9806b8fa2"
       style="fill:#000000"><g
         class="fills"
         id="fills-09829ce9-e715-80b1-8004-5ff9806b8fa2"
         style="fill:#000000"><path
           d="M80.6 61.5c2.6-.6 4.6-2.1 5.2-3.6.3-.8.2-1.5-.3-2.4-1.9-2.8-3.4-3.2-6.4-1.8-.8.4-1.2.5-1.5.6-.2.1-.2.1-1.5 1.3-.6.5-.4 2.1.3 3.4.8 1.5 2.3 2.9 4.2 2.5Z"
           class="st1"
           style="fill:#000000;fill-opacity:1"
           id="path348" /></g></g>
        <g id="shape-09829ce9-e715-80b1-8004-5ff9806b8fa3" style="fill:#000000"><g
         class="fills"
         id="fills-09829ce9-e715-80b1-8004-5ff9806b8fa3"
         style="fill:#000000"><path
           d="M101.7 64.6c2.9 0 6.5-.9 6.5-4.9 0-3.9-2.7-7-5.9-7-1.7 0-3.4.9-4.4 2.4-1 1.3-1.5 2.9-1.5 4.6.1 2.3.4 2.7 1.8 4.1.8.8 2 .8 3.5.8Z"
           class="st1"
           style="fill:#000000;fill-opacity:1"
           id="path352" /></g></g>
        <g id="shape-09829ce9-e715-80b1-8004-5ff9806e7dae" style="fill:#000000"><g
         class="fills"
         id="fills-09829ce9-e715-80b1-8004-5ff9806e7dae"
         style="fill:#000000"><path
           d="M165.5 109.4c-.8-3.4-5.7-6.8-5.7-6.9-1.4-1-4.1-2.7-5.4-3.5.2-.4.5-.9 1.2-1.5.5-.5 1.3-1.3 2.1-2.4 1.1-1.6 1.5-2.9 1.3-4-.2-.9-.8-1.5-1.6-1.9-2.3-1.2-8.8 5.3-9.6 6.7-.1.2-.3.5-.5 1-4.6-1.5-14.1-9.3-18.3-15.9 5.4-6.6 26.8-21.8 26.8-30.6 0-9.1-35.5-11.1-36.2-11.9C117 36.1 101.5 1.6 92 .9c-7.8-.5-24.4 34-26.8 36.4-2.8 2.8-42.2 4.2-39.8 16.1 2.2 11.2 25 26.5 26.7 31 .1.2.1.4.1.6-1.1 1.6-4.5 5.6-9.2 9.4-3.2 2.6-6.3 4.3-9.1 5.3-.3-.5-.5-.9-.6-1-1.2-1.7-7.6-6.2-9.7-5.2-.9.4-1.5 1.1-1.6 1.9-.2 1.1.1 2.4 1.3 3.9.8 1 1.5 1.7 2.1 2.3.6.6 1 1 1.2 1.3-1.3.8-4 2.3-5.3 3.2 0 0-5 3.4-5.8 6.6-.8 3 2.7 6.5 4.9 7.2.2.1.4.1.6.1 1.3 0 2.8-1 4.6-2.2 1.7-1.1 3.7-2.4 5.3-2.7 3.5-.5 5.8-2.3 6.7-4.8 1.5-.3 6.8-1.4 11.1-4.2-2.4 13-3.9 26.9 2.8 27.6 2.2.2 6.4-1.3 11.2-3.5.2 2.9.9 13.3 1.2 20.6.2 5.6.1 7.1 0 7.6-.3 1.8-2.7 4-5.3 6.3-1 .9-1.9 1.7-2.9 2.7-2.6 2.5-3.7 6.3-2.6 8.9.6 1.6 2.1 2.6 3.9 2.6h.4c1.8 0 4.5 0 8.2-1.6 5.4-2.2 8.6-5 9.8-8.1C77 164.7 77 157.6 77 152c0-2.8 0-5.3.2-7 .6-5.4-.5-21.1-.6-21.7 0-.1 0-.2-.1-.3 5.9-3.4 10.8-6.3 11.6-6.6 1.7-.9 6.8 2.2 12.9 5.8.2 2.3 1 13 1 22.6 0 1.6-.2 4.5-.3 6.9-.1 1.8-.2 3.4-.2 4 0 1.9 0 8 .6 11 1 4.1 5.7 6.5 9.3 8 3.6 1.5 7.7 1.5 9.6 1.5H121.6c1.8 0 3.4-1 4.1-2.6 1-2.4.1-5.4-2.1-7.8-2.1-2.1-4.6-2.5-6.5-2.9-.8-.1-1.8-.3-2.1-.6 0-.3.1-1.4.1-2.8.2-3.9.5-10.3.4-16.1-.1-6.1-.5-11.3-.8-13.9 7.1 3.2 13.5 4.6 16.3-.1 3.2-5.6 1.4-17.7-.8-28.3 2.1 1.4 4.6 2.8 6.5 3.6l1.5.6c1.6.8 3.2 1.5 5 1.6h.1c1 2.4 3.4 4.1 6.6 4.6 1.5.3 3.5 1.6 5.3 2.8 1.8 1.3 3.4 2.3 4.6 2.3.2 0 .4 0 .6-.1 2.4-.3 5.8-3.9 5.1-7.1Zm-129.8.4c-.5 1.7-2.5 3-5.1 3.5-1.9.3-4.2 1.7-6.1 2.9-1.2.8-3 1.9-3.5 1.8-.5-.2-1.2-.6-1.8-1.2l1.8-1.7 5.5-3.6c.5-.3.6-1 .3-1.5s-1-.6-1.5-.3l-5.5 3.6-2.1 1.8c-.3-.6-.4-1.2-.3-1.7.4-1.8 3.6-4.4 4.9-5.3 1.1-.8 3.2-2.1 4.6-2.8.6 1.8 1.9 3.8 2.3 4.3.3.5 1 .6 1.5.3s.6-1 .3-1.5c-.9-1.4-2.2-3.8-2.2-4.8 0-1.5-1-2.5-1.9-3.5-.5-.5-1.2-1.2-1.8-1.9-1-1.3-1-1.9-.9-2.1 0-.1.1-.2.4-.4 1.2 0 6.1 2.9 7 4.3 1.6 2.2 4.4 8.6 4.1 9.8Zm12.6 10.5c-.3 0-.5-.2-.5-.5s.2-.5.5-.5.5.2.5.5c.1.3-.3.5-.5.5Zm.6-5.1c0-.4.3-.9.8-.9.4 0 .9.3.9.9 0 .5-.3.9-.9.9-.5-.1-.8-.4-.8-.9Zm.5 8.7c0-.4.3-.9.9-.9.5 0 .9.3.9.9 0 .6-.3.9-.9.9-.6-.1-.9-.5-.9-.9Zm1.3 5c-.4 0-.9-.3-.9-.9 0-.5.3-.9.9-.9.5 0 .9.3.9.9 0 .6-.5.9-.9.9Zm-1.4-25.7c-3.7 3.4-9.6 4.8-11.7 5.2-.4-1.9-1.6-4.6-2.6-6.7 2.9-1.1 6.1-2.9 9.4-5.6 2.6-2.1 5.5-4.9 7.6-7.2-.5 3.6-1.6 8.7-2.7 14.3Zm7.1 19.3c0 .6-.4 1.1-1.1 1.1-.7 0-1.1-.4-1.1-1.1 0-.6.4-1.1 1.1-1.1.7 0 1.1.5 1.1 1.1Zm-1.6-8.7c0 .3-.2.5-.5.5s-.5-.2-.5-.5.2-.5.5-.5.5.2.5.5Zm-1.1-5.9c.3 0 .5.2.5.5s-.2.5-.5.5-.5-.2-.5-.5.2-.5.5-.5Zm-.3 10.8c-.4 0-.9-.3-.9-.9 0-.6.3-.9.9-.9.5 0 .9.3.9.9 0 .6-.5.9-.9.9Zm1.6 12.4c-.4 0-.9-.3-.9-.9 0-.6.3-.9.9-.9.5 0 .9.3.9.9 0 .6-.4.9-.9.9Zm1.1-3.2c-.4 0-.9-.3-.9-.9 0-.5.3-.9.9-.9.5 0 .9.3.9.9 0 .5-.5.9-.9.9Zm1.4-11.6c0-.4.3-.9.9-.9.5 0 .9.3.9.9 0 .6-.3.9-.9.9-.6 0-.9-.5-.9-.9Zm1.6 4c0 .3-.2.5-.5.5s-.5-.2-.5-.5.2-.5.5-.5.5.2.5.5Zm-.3 7c-.4 0-.9-.3-.9-.9 0-.6.3-.9.9-.9.5 0 .9.3.9.9 0 .6-.5.9-.9.9Zm0-14.6c-.4 0-.9-.3-.9-.9 0-.6.3-.9.9-.9.5 0 .9.3.9.9 0 .6-.5.9-.9.9Zm2.7 10.8c-.4 0-.9-.3-.9-.9 0-.5.3-.9.9-.9.5 0 .9.3.9.9 0 .6-.5.9-.9.9Zm0-2.7c-.4 0-.9-.3-.9-.9 0-.6.3-.9.9-.9.5 0 .9.3.9.9 0 .6-.5.9-.9.9Zm66.3-10.2c.3 0 .5.2.5.5s-.2.5-.5.5-.5-.2-.5-.5.1-.5.5-.5Zm.5 4.3c-.3 0-.5-.2-.5-.5s.2-.5.5-.5.5.2.5.5c.1.3-.3.5-.5.5Zm1.1 3.2c0 .3-.2.5-.5.5s-.5-.2-.5-.5.2-.5.5-.5.5.2.5.5Zm-2.7-2.7c.3 0 .5.2.5.5s-.2.5-.5.5-.5-.2-.5-.5c-.1-.2.2-.5.5-.5Zm-1.6-2.1c.3 0 .5.2.5.5s-.2.5-.5.5-.5-.2-.5-.5c-.1-.3.1-.5.5-.5Zm-2.2 6.5c.3 0 .5.2.5.5s-.2.5-.5.5-.5-.2-.5-.5.2-.5.5-.5Zm-4.1.5c.4 0 .9.3.9.9 0 .5-.3.9-.9.9-.6 0-.9-.3-.9-.9 0-.6.5-.9.9-.9Zm-3.2-5.9c.4 0 .9.3.9.9 0 .5-.3.9-.9.9-.5 0-.9-.3-.9-.9 0-.6.4-.9.9-.9Zm-1.3 6.8c0 .4-.3.9-.9.9-.5 0-.9-.3-.9-.9 0-.5.3-.9.9-.9.5 0 .9.4.9.9Zm-1.7-3.6c.3 0 .5.2.5.5s-.2.5-.5.5-.5-.2-.5-.5.2-.5.5-.5Zm-.5 5.9c.6 0 1.1.4 1.1 1.1 0 .6-.4 1.1-1.1 1.1-.6 0-1.1-.4-1.1-1.1 0-.6.4-1.1 1.1-1.1ZM111 116c0 .3-.2.5-.5.5s-.5-.2-.5-.5.2-.5.5-.5c.3-.1.5.2.5.5Zm-.5 3.2c0 .3-.2.5-.5.5s-.5-.2-.5-.5.2-.5.5-.5.5.2.5.5ZM96.1 53.8c1.5-2.1 3.8-3.2 6.2-3.2 4.4 0 8.1 4.1 8.1 9.2 0 4.4-3.2 7-8.6 7-1.7 0-3.6 0-5.1-1.4-1.8-1.7-2.5-2.8-2.5-5.6.1-2.2.7-4.4 1.9-6Zm11.9 67c.4 0 .9.3.9.9 0 .6-.3.9-.9.9-.5 0-.9-.3-.9-.9 0-.6.5-.9.9-.9Zm-1.3-6.4c-.3 0-.5-.2-.5-.5s.2-.5.5-.5.5.2.5.5c0 .2-.3.5-.5.5Zm-1.6 2.1c0 .3-.2.5-.5.5s-.5-.2-.5-.5.2-.5.5-.5.5.2.5.5ZM74.6 54.1c1.5-1.5 1.6-1.6 2.4-1.8.2-.1.5-.2 1.2-.5 4-1.9 6.5-1.3 9.1 2.5 1 1.4 1.2 2.9.5 4.3-.9 2.2-3.5 4.1-6.7 4.9-.4.1-.9.1-1.2.1-2.2 0-4.1-1.3-5.4-3.6-1.3-2.1-1.2-4.4.1-5.9Zm-1.4 63.3c0 .4-.3.9-.9.9-.5 0-.9-.3-.9-.9 0-.5.3-.9.9-.9.6 0 .9.4.9.9Zm0 3.4c0 .3-.2.5-.5.5s-.5-.2-.5-.5.2-.5.5-.5.5.2.5.5Zm-1.6-8.1c.3 0 .5.2.5.5s-.2.5-.5.5-.5-.2-.5-.5.1-.5.5-.5Zm-1.1 7.6c.3 0 .5.2.5.5s-.2.5-.5.5-.5-.2-.5-.5.2-.5.5-.5Zm-.6 2.2c.3 0 .5.2.5.5s-.2.5-.5.5-.5-.2-.5-.5.2-.5.5-.5Zm-1.6-14.1c.3 0 .5.2.5.5s-.2.5-.5.5-.5-.2-.5-.5.2-.5.5-.5Zm-.8 11.9c.4 0 .9.3.9.9 0 .5-.3.9-.9.9-.6 0-.9-.3-.9-.9 0-.6.4-.9.9-.9Zm-1.3-1.6c-.3 0-.5-.2-.5-.5s.2-.5.5-.5.5.2.5.5-.3.5-.5.5Zm-.4-3.8c.4 0 .9.3.9.9 0 .6-.3.9-.9.9-.5 0-.9-.3-.9-.9 0-.6.5-.9.9-.9Zm-1.8-3.2c.3 0 .5.2.5.5s-.2.5-.5.5-.5-.2-.5-.5.2-.5.5-.5Zm-.5 13.8c0-.4.3-.9.9-.9.5 0 .9.3.9.9 0 .6-.3.9-.9.9-.6 0-.9-.5-.9-.9Zm1.5 50.1c-3.5 1.4-5.8 1.4-7.7 1.4h-.2c-1 0-1.6-.4-1.9-1.2-.6-1.5 0-4.4 2.1-6.5.9-.9 1.8-1.8 2.8-2.6 1.3-1.2 2.5-2.3 3.5-3.4.2 0 .3.1.5.1 2.8.5 8.2 1.7 9.6 5.3-1.1 2.7-4 5.1-8.7 6.9Zm10.3-30.4c-.2 1.8-.2 4.3-.2 7.2 0 4.3 0 9.5-.8 13.5-2.4-2.8-6.7-3.9-9.3-4.4.4-.8.9-1.5 1-2.3.1-.5.2-2.1 0-8.1-.3-8.6-1.2-21.4-1.2-21.5 3.2-1.6 6.7-3.4 9.9-5.2.3 3 1.2 16.1.6 20.8Zm1.7-34.1c-.3 0-.5-.2-.5-.5s.2-.5.5-.5.5.2.5.5-.3.5-.5.5Zm1.3 6.5c-.4 0-.9-.3-.9-.9 0-.5.3-.9.9-.9.5 0 .9.3.9.9-.1.6-.5.9-.9.9Zm5.2-2.7c-.3 0-.5-.2-.5-.5s.2-.5.5-.5.5.2.5.5-.3.5-.5.5Zm15.6 1.6c-.3 0-.5-.2-.5-.5s.2-.5.5-.5.5.2.5.5c.1.3-.3.5-.5.5Zm2.7 3.3c-.3 0-.5-.2-.5-.5s.2-.5.5-.5.5.2.5.5-.3.5-.5.5Zm.4-39.9c-2.7 2.4-7.6 3.6-9.5 3.9-.5.1-1.2.1-1.8.1-6.4 0-14.5-3.5-14.8-3.6-.5-.2-.8-.9-.5-1.4.2-.5.9-.8 1.4-.5.1 0 9.5 4 15.5 3.4 1.8-.2 6.2-1.4 8.3-3.4.4-.4 1.1-.3 1.5.1.4.3.3.9-.1 1.4Zm2.1 85.3c-.2-1.9-.4-5.1-.4-9.2 0-.5.1-2.2.2-3.9.2-2.5.3-5.4.3-7 0-8.3-.6-17.3-.9-21.2 2.9 1.7 5.9 3.5 9 5 .2 1.5.9 7.7 1 15 .1 5.7-.2 12.1-.4 16-.1 1.5-.1 2.5-.1 2.9 0 .3 0 .5.1.8-2.1.1-4.3.2-5 .3-1.9.2-3.1.6-3.8 1.3Zm10.8.1 1.7.2c1.8.3 3.7.6 5.2 2.3 1.9 1.9 2.2 4.2 1.6 5.4-.3.9-1.1 1.3-2.1 1.3h-.2c-1.7 0-5.7 0-9-1.4-2.7-1.2-6.4-2.9-7.7-5.5v-.2c0-.1.2-1.2 3.5-1.6 1-.2 4.8-.6 7-.5Zm-.1-38.5c-.4 0-.9-.3-.9-.9 0-.6.3-.9.9-.9.6 0 .9.3.9.9 0 .6-.5.9-.9.9Zm.9-7.6c-.3 0-.5-.2-.5-.5s.2-.5.5-.5.5.2.5.5-.3.5-.5.5Zm1.6 6.5c-.6 0-1.1-.4-1.1-1.1 0-.6.4-1.1 1.1-1.1.7 0 1.1.4 1.1 1.1 0 .7-.6 1.1-1.1 1.1Zm2.2 3.2c-.6 0-1.1-.4-1.1-1.1 0-.7.4-1.1 1.1-1.1.7 0 1.1.4 1.1 1.1 0 .7-.6 1.1-1.1 1.1Zm.5-10.2c-.3 0-.5-.2-.5-.5s.2-.5.5-.5.5.2.5.5-.3.5-.5.5Zm0-6c-.3 0-.5-.2-.5-.5s.2-.5.5-.5.5.2.5.5-.3.5-.5.5Zm1.6 18.5c-.4 0-.9-.3-.9-.9 0-.6.3-.9.9-.9.6 0 .9.3.9.9 0 .6-.4.9-.9.9Zm1.1-2.3c-.6 0-1.1-.4-1.1-1.1 0-.7.4-1.1 1.1-1.1.6 0 1.1.4 1.1 1.1 0 .7-.6 1.1-1.1 1.1Zm0-4.3c-.6 0-1.1-.4-1.1-1.1 0-.6.4-1.1 1.1-1.1.6 0 1.1.4 1.1 1.1 0 .7-.6 1.1-1.1 1.1Zm.5-7c-.3 0-.5-.2-.5-.5s.2-.5.5-.5.5.2.5.5-.2.5-.5.5Zm1.1 2.5c0-.4.3-.9.9-.9.5 0 .9.3.9.9 0 .6-.3.9-.9.9-.5-.1-.9-.5-.9-.9Zm1.3 10.5c-.4 0-.9-.3-.9-.9 0-.5.3-.9.9-.9.5 0 .9.3.9.9 0 .5-.4.9-.9.9Zm.9-5.3c-.4 0-.9-.3-.9-.9 0-.5.3-.9.9-.9.5 0 .9.3.9.9 0 .5-.5.9-.9.9Zm1.1-3.9c0-.3.2-.5.5-.5s.5.2.5.5-.2.5-.5.5-.5-.2-.5-.5Zm1.3 6.6c-.6 0-1.1-.4-1.1-1.1 0-.6.4-1.1 1.1-1.1.6 0 1.1.4 1.1 1.1-.1.6-.5 1.1-1.1 1.1Zm1.6-8.8c.4 0 .9.3.9.9 0 .6-.3.9-.9.9-.5 0-.9-.3-.9-.9 0-.6.5-.9.9-.9Zm12.5-14c-1.2-.1-2.6-.8-3.9-1.4-.5-.2-1.1-.5-1.5-.8-3.6-1.5-6.7-3.7-8-4.8-1.4-6.8-2.8-12.9-2.3-15.1 4.3 6.3 13.1 13.7 18.4 15.7-1.1 1.9-2.3 4.4-2.7 6.4Zm19.8 6.6-1.8-1.6-2.7-1.8-2.4-1.4c-.5-.3-1.2-.1-1.5.4-.3.5-.1 1.2.4 1.5l2.3 1.3 2.5 1.6 1.9 1.8c-.6.6-1.3 1.2-1.8 1.3-.5 0-2.3-1.2-3.5-1.9-1.9-1.3-4.1-2.8-6.1-3.1-3.7-.6-4.8-2.6-5.1-3.7-.3-1 1.6-5.3 4.1-9.1 1.1-1.6 5.7-5.5 7-5.8.3.2.3.4.4.4 0 .2.1.9-.9 2.3-.6.9-1.3 1.5-1.8 2.1-1 1-1.9 1.9-1.9 3.6 0 1.2-1.4 3.7-2.2 5.1-.3.5-.2 1.2.3 1.5.5.3 1.2.2 1.5-.3.2-.3 1.5-2.5 2.2-4.5 1.4.9 3.5 2.2 4.5 2.9 1.3 1 4.4 3.7 4.9 5.6.1.5 0 1.1-.3 1.8Z"
           class="st1"
           style="fill:#000000;fill-opacity:1"
           id="path356" /></g></g></g>
</svg>
