<?xml version="1.0" encoding="UTF-8" standalone="no"?>
<svg width="180" height="180" id="screenshot-09829ce9-e715-80b1-8004-60f84eb02059" fill="none"
    version="1.1" xmlns="http://www.w3.org/2000/svg">
    <defs id="defs911" />
    <g xml:space="preserve" style="fill:rgb(0, 0, 0)" id="g906"><g
       id="shape-09829ce9-e715-80b1-8004-60f84eb06de0"
       style="fill: rgb(0, 0, 0);"><g
         id="shape-09829ce9-e715-80b1-8004-60f84eb06de1"><g
           class="fills"
           id="fills-09829ce9-e715-80b1-8004-60f84eb06de1"><path
             d="M79.2 16.8c-.3-.3-.9-.6-1.6-.6-.2 0-.4 0-.6.1-.9.2-2 1.8-2 2.9 0 .9.7 1.7 1.6 1.7 1.1 0 3.5-1.8 3.5-2.5 0-.4-.3-1.1-.9-1.6Z"
             class="st1"
             id="path889" /></g></g><g id="shape-09829ce9-e715-80b1-8004-60f84eb0bdec"><g
           class="fills"
           id="fills-09829ce9-e715-80b1-8004-60f84eb0bdec"><path
             d="M96 16.4c-.6 0-1.6.1-1.6 1.1 0 .9.7 1.7 1.6 1.7.9 0 2-.6 2-1.4-.1-.9-1-1.4-2-1.4Z"
             class="st1"
             id="path893" /></g></g><g id="shape-09829ce9-e715-80b1-8004-60f84eb0bded"><g
           class="fills"
           id="fills-09829ce9-e715-80b1-8004-60f84eb0bded"><path
             d="M94.1 28.2c-.5.2-1 .4-1.4.5.6.5 1.1.8 1.5.8.4-.1.6-.1.6-.2 0-.3-.3-.7-.7-1.1Z"
             class="st1"
             id="path897" /></g></g><g id="shape-09829ce9-e715-80b1-8004-60f84eb30000"><g
           class="fills"
           id="fills-09829ce9-e715-80b1-8004-60f84eb30000"><path
             d="M135.6 55.4c-.5-1.6-1.8-2.5-3.7-2.7-.9-.1-2.2-.2-7.7 2l-1.8.8c.2-1.6.1-3.3-.8-4.1-.9-.8-1.8-.8-2.3-.6-1.8.5-2.6 3.2-3.5 6-.2.8-.5 1.6-.7 2.2-1.2 3.2-.3 6.6-.2 6.8 0 .2.1.3.2.4-.2.6-.8 2.5-3 6.5s-7.9 6.8-9.8 7.7l.7-28.1v-.1c0-.1.2-.3.3-.5v-.1l.1-.1c0-.1.2-.5.5-1.1 1.2-2.6 4-9 4.7-11.4.2-.6.3-1.2.4-1.9.1-.4.1-.8.2-1.2.1-.6.1-1.3.1-1.8v-2.6c-.1-3.3-.3-9-1-13.8-1.8-11.1-8.9-14.5-10-14.9-1-.6-8.9-4.9-21.1-.5-6.8 2.5-11.2 9.1-12.7 19.1-1.1 7.4-.3 14-.2 14.2l.1.7c.1.5.4 2.1.6 2.5.7 2.3 4.2 8.7 6.2 12.1.3.5.5.9.7 1.2.3.5.5.9.5 1l.2.5 2.2 27.1c-2-1.1-6.4-3.9-8.4-7.6-2.2-4.1-2.4-5.4-2.4-5.6v-.3c.3-1 1.3-4.1.2-6.9l-.2-.8c-1-2.7-2.2-5.8-4.2-6.3-.6-.2-1.5-.1-2.5.7-.8.7-.9 2-.8 3.1l-1.7-.7c-5.5-2.2-6.8-2.1-7.8-2-1.8.2-3.1 1.1-3.6 2.7-.7 2.2.3 5.3 1.6 6.4 1.5 1.3 2.6 1.7 4.3 2.3 1 .3 2.3.8 4.2 1.6.1 0 .4.1.8.3 2.6.8 3.5 1.2 3.8 1.5.2.5 2.2 7 5.1 10.9 3 4.1 11.7 8.3 12 8.4.2.1.3.1.5.1l5.7 49.4c0 .5.3.9.6 1.1.6.4 1.7 1.1 3.1 1.6l1.3.4 1.5 20.6-26.2 7.4c-.4.1-2.2.9-2.5 2.4-.1.5-.1 1.4.8 2.2 2.1 2 14.6 5.9 30.1 5.9h1.2c18.7-.2 29-5.9 29.1-6 .8-.5 1.3-1.4 1.1-2.3-.2-1.1-1.1-1.9-2.3-2.2L95 162c.3-3.7.7-10 1.4-21.2h.1c1.4-.4 2.5-.9 3.1-1.2.5-.3.8-.7.8-1.3l1.9-49.9c.1 0 .3 0 .4-.1.4-.2 10.1-5.1 13.1-9.2 2.9-4 5.1-10.9 5.2-11.2v-.1c.1-.1.1-.2.2-.3.3-.2 1.2-.7 3.8-1.5.4-.1.7-.2.8-.3 1.9-.8 3.1-1.2 4.2-1.6 1.7-.6 2.7-.9 4.3-2.3.9-1.1 2-4.2 1.3-6.4Zm-32.5-12.1c-.3 0-.6-.3-.6-.6s.3-.6.6-.6.6.3.6.6-.3.6-.6.6Zm2.7-3.3h-.2c-.3 0-.6-.3-.6-.6s.3-.6.6-.6c.2 0 .4.1.5.3 0 .3-.1.6-.3.9Zm1.3-7.4h-.2c-.3 0-.6-.3-.6-.6s.3-.6.6-.6h.1c.1.5.1.9.1 1.2Zm-.2-5.7c0 .4 0 .7.1 1.1h-.2c-.3 0-.6-.3-.6-.6s.3-.6.6-.6l.1.1Zm-.6-7.1c0 .3.1.6.1.9-.2-.1-.3-.3-.3-.5 0-.1.1-.3.2-.4Zm-.4 4.7c0 .3-.3.6-.6.6s-.6-.3-.6-.6.3-.6.6-.6.6.3.6.6Zm-.6 5.8c0 .4-.3.7-.7.7-.4 0-.7-.3-.7-.7 0-.4.3-.7.7-.7.4 0 .7.3.7.7Zm-.7-17.6c.1.3.2.5.3.8-.1.1-.2.1-.3.1-.3 0-.5-.2-.5-.5 0-.2.2-.4.5-.4Zm-.3 3.1c.3 0 .6.3.6.6s-.3.6-.6.6-.6-.3-.6-.6.3-.6.6-.6Zm-1 3.5c.3 0 .5.2.5.5s-.2.5-.5.5-.5-.2-.5-.5.2-.5.5-.5Zm-.9-10.5c.2.2.4.5.6.8-.1.1-.2.1-.3.1-.3 0-.5-.2-.5-.5 0-.1.1-.3.2-.4Zm.3 17.7c.3 0 .5.2.5.5s-.2.5-.5.5-.5-.2-.5-.5.2-.5.5-.5Zm0 6c.3 0 .5.2.5.5s-.2.5-.5.5-.5-.2-.5-.5.2-.5.5-.5Zm-.9-17.6c0 .3-.2.5-.5.5s-.5-.2-.5-.5.2-.5.5-.5.5.2.5.5Zm-1.9 16c.3 0 .5.2.5.5s-.2.5-.5.5-.5-.2-.5-.5.2-.5.5-.5Zm-1-3.6c0-.3.3-.6.6-.6s.6.3.6.6-.3.6-.6.6c-.4-.1-.6-.3-.6-.6Zm1.2 6c.3 0 .6.3.6.6s-.3.6-.6.6-.6-.3-.6-.6.3-.6.6-.6Zm.4-10.4c0-.3.2-.5.5-.5s.5.2.5.5-.2.5-.5.5-.5-.2-.5-.5Zm.7-10.8c0 .3-.2.5-.5.5s-.5-.2-.5-.5.2-.5.5-.5.5.3.5.5Zm-1.4-3.7c.3 0 .6.3.6.6s-.3.6-.6.6-.6-.3-.6-.6.3-.6.6-.6ZM97.9 5c.2.1.5.3.9.5 0 .3-.3.6-.6.6s-.6-.3-.6-.6c0-.2.1-.4.3-.5Zm-1.1 3c0 .3-.3.6-.6.6s-.6-.3-.6-.6.3-.6.6-.6c.4 0 .6.3.6.6Zm-.5-3.7c-.1.1-.3.2-.4.2-.3 0-.6-.3-.7-.6.5.1.8.2 1.1.4ZM94.6 11c0 .3-.2.5-.5.5s-.5-.2-.5-.5.2-.5.5-.5c.3.1.5.3.5.5Zm-.7-5.1c.3 0 .5.2.5.5s-.2.5-.5.5-.5-.2-.5-.5.3-.5.5-.5Zm2.2 8.1c2 0 4.2 1.4 4.2 3.7 0 2.3-2.2 3.7-4.3 3.7-2.1 0-3.9-1.8-3.9-4 .1-2 1.6-3.4 4-3.4Zm1.1 12.7c-.3.2-.6.3-1 .4.5.8 1 1.7.7 2.7-.2.7-.8 1.5-2.5 1.8H94c-1.7 0-3.3-1.6-3.9-2.4-2 .5-3.7.7-5 .7-2.6 0-3.9-.7-4.1-.8-.6-.3-.7-1-.4-1.6.3-.5 1-.7 1.6-.4.1.1 3.5 1.7 11.7-1.5h.1c.7-.3 1.5-.6 2.4-1 .6-.3 1.3 0 1.5.6.1.5-.1 1.2-.7 1.5Zm.4 6.8c0 .3-.3.6-.6.6s-.6-.3-.6-.6.3-.6.6-.6c.4.1.6.3.6.6Zm-3.2.9c0 .3-.3.6-.6.6s-.6-.3-.6-.6.3-.6.6-.6.6.3.6.6ZM90.3 33c0 .3-.3.6-.6.6s-.6-.3-.6-.6.3-.6.6-.6c.4 0 .6.3.6.6Zm-3.5-.6c0 .3-.3.6-.6.6s-.6-.3-.6-.6.3-.6.6-.6.6.3.6.6Zm-2.3 1.5c0 .3-.2.5-.5.5s-.5-.2-.5-.5.2-.5.5-.5.5.2.5.5Zm-1.8-1.7c0 .3-.3.6-.6.6s-.6-.3-.6-.6.3-.6.6-.6c.4 0 .6.2.6.6Zm4.2-11.7c-.3-.1-.4-.4-.3-.7.1-.3.4-.4.7-.3.3.1.4.4.3.7-.1.3-.4.4-.7.3Zm1.5-3.3c0-.3.2-.5.5-.5s.5.2.5.5-.2.5-.5.5-.5-.3-.5-.5Zm1.4 4.4c0-.3.3-.6.6-.6s.6.3.6.6-.3.6-.6.6c-.4 0-.6-.3-.6-.6Zm3.1 1.4c0-.3.2-.5.5-.5s.5.2.5.5-.2.5-.5.5-.6-.2-.5-.5Zm-.6-15.2c.3 0 .6.3.6.6s-.3.6-.6.6-.6-.3-.6-.6c0-.4.3-.6.6-.6Zm-1.2-3.4c.3 0 .5.2.5.5s-.2.5-.5.5-.5-.2-.5-.5.2-.6.5-.5Zm-.2 9.9c0 .3-.3.6-.6.6s-.6-.3-.6-.6.3-.6.6-.6.6.3.6.6Zm-.8-3.6c0 .3-.3.6-.6.6s-.6-.3-.6-.6.3-.6.6-.6c.4.1.6.3.6.6Zm-2-8.1h1.2c.1.1.1.2.1.3 0 .4-.3.7-.7.7-.4.1-.7-.2-.7-.6 0-.2 0-.3.1-.4Zm.2 3.8c.3 0 .6.3.6.6s-.3.6-.6.6-.6-.3-.6-.6.3-.6.6-.6Zm-1.1 6.7c.3 0 .6.3.6.6s-.3.6-.6.6-.6-.3-.6-.6.3-.6.6-.6ZM87 23.6c.2.1.4.4.2.6-.1.2-.4.4-.6.2-.2-.1-.4-.4-.2-.6.1-.2.3-.3.6-.2Zm-.7-6.9c-.1.3-.5.4-.8.3-.3-.1-.4-.5-.3-.8.1-.3.5-.4.8-.3.3.2.4.5.3.8Zm-.9-7.4c-.3 0-.6-.3-.6-.6s.3-.6.6-.6.6.3.6.6c0 .4-.3.6-.6.6Zm-.6-6.5c.4 0 .8-.1 1.1-.1v.2c0 .3-.3.6-.6.6-.3-.1-.5-.3-.5-.7Zm-.3 2.5c.3 0 .6.3.6.6s-.3.6-.6.6-.6-.3-.6-.6.2-.6.6-.6Zm-.7 7.1c.3 0 .6.3.6.6s-.3.6-.6.6-.6-.3-.6-.6.3-.6.6-.6Zm-1 11.6c-.1.3-.5.4-.8.3-.3-.1-.4-.5-.3-.8.1-.3.5-.4.8-.3.2.1.4.5.3.8ZM82 10.7c-.3 0-.6-.3-.6-.6s.3-.6.6-.6.6.3.6.6c-.1.4-.3.6-.6.6Zm-.9-7.2c.4-.1.7-.2 1-.3.2.1.4.4.4.6 0 .4-.4.7-.8.7s-.7-.4-.7-.8c0 0 0-.1.1-.2Zm-.6 2.6c.3 0 .6.3.6.6s-.3.6-.6.6-.6-.3-.6-.6.2-.6.6-.6Zm-3.1-.9c.3 0 .6.3.6.6s-.3.6-.6.6-.6-.3-.6-.6c.1-.3.3-.6.6-.6Zm-.1 5.1c.3 0 .6.3.6.6s-.3.6-.6.6-.6-.3-.6-.6.3-.6.6-.6ZM75.9 8c.3 0 .5.2.5.5s-.2.5-.5.5-.5-.2-.5-.5.2-.5.5-.5Zm.6 6c1.5-.3 2.9 0 4.1 1 1.1.9 1.8 2.2 1.8 3.4 0 2.3-3.8 4.8-5.8 4.8-2.1 0-3.9-1.8-3.9-4 0-2 1.7-4.7 3.8-5.2Zm1.7 13.6c.3 0 .5.2.5.5s-.2.5-.5.5-.5-.2-.5-.5.2-.5.5-.5Zm-.5-1.7c-.3 0-.6-.3-.6-.6s.3-.6.6-.6.6.3.6.6c0 .4-.3.6-.6.6Zm.9 7.5c.2 0 .4.2.4.5 0 .2-.2.4-.5.4-.2 0-.4-.2-.4-.5.1-.2.3-.4.5-.4Zm.4-2.3c0-.3.2-.5.5-.5s.5.2.5.5-.2.5-.5.5-.5-.2-.5-.5Zm-2.8 1.3c.3 0 .5.2.5.5s-.2.5-.5.5-.5-.2-.5-.5.2-.5.5-.5Zm-.6-1.8c-.3 0-.5-.2-.5-.5s.2-.5.5-.5.5.2.5.5-.3.5-.5.5ZM73 25.1c-.3 0-.5-.2-.5-.5s.2-.5.5-.5.5.2.5.5-.2.5-.5.5Zm.5 6.2c0 .3-.3.6-.6.6s-.6-.3-.6-.6.3-.6.6-.6c.4 0 .6.3.6.6Zm-.3-23.8c.1.1.2.3.2.4 0 .3-.3.6-.6.6-.1 0-.3-.1-.4-.2.2-.3.5-.5.8-.8Zm-.3 3.6c.3 0 .6.3.6.6s-.3.6-.6.6-.6-.3-.6-.6c0-.4.2-.6.6-.6Zm-.5 16.3c.3 0 .6.3.6.6s-.3.6-.6.6-.6-.3-.6-.6c.1-.4.3-.6.6-.6Zm-1-12c.3 0 .6.3.6.6s-.3.6-.6.6-.6-.3-.6-.6c0-.4.3-.6.6-.6ZM71 34.5c0 .3-.3.6-.6.6s-.6-.3-.6-.6.3-.6.6-.6.6.3.6.6Zm-1.7-3.6c.3 0 .6.3.6.6s-.3.6-.6.6-.6-.3-.6-.6c0-.4.3-.7.6-.6Zm-.2-2.1c0-.3.2-.5.5-.5s.5.2.5.5-.2.5-.5.5c-.3-.1-.5-.3-.5-.5Zm1.3-4c0 .3-.2.5-.5.5s-.5-.2-.5-.5.2-.5.5-.5.5.2.5.5Zm-1.5-10.9c.1 0 .1 0 0 0Zc.3 0 .5.2.5.5s-.2.5-.5.5c-.1 0-.3-.1-.3-.2.1-.3.2-.6.3-.8Zm.2 4.6c.3 0 .6.3.6.6s-.3.6-.6.6-.6-.3-.6-.6c.1-.3.3-.6.6-.6Zm-1.2 7.2c0 .3-.3.6-.6.6s-.6-.3-.6-.6.3-.6.6-.6c.4.1.6.3.6.6ZM66.7 23c.1-.1.2-.3.4-.2.3 0 .5.2.5.5s-.2.5-.5.5c-.2 0-.4-.1-.4-.3V23Zm-.3 7.5v-.9h.1c.3 0 .5.2.5.5-.1.2-.3.4-.6.4Zm.2 3.8c0-.3.2-.5.5-.5s.5.2.5.5-.2.5-.5.5-.5-.3-.5-.5Zm3.5 6.2c-.3 0-.6-.3-.6-.6s.3-.6.6-.6.6.3.6.6c-.1.3-.3.6-.6.6Zm1.2 4.2c-.3 0-.5-.2-.5-.5s.2-.5.5-.5.5.2.5.5-.2.5-.5.5Zm-1.1-7H67l-.1-1.4h3.2L107 36c0 .4-.2 1-.3 1.4l-36.5.3Zm27.5 2.4c-.3 0-.6-.3-.6-.6s.3-.6.6-.6.6.3.6.6-.3.6-.6.6Zm.2 5.1c0 .3-.2.5-.5.5s-.5-.2-.5-.5.2-.5.5-.5.5.2.5.5Zm.8-3.4c.3 0 .6.3.6.6s-.3.6-.6.6-.6-.3-.6-.6c0-.4.3-.6.6-.6Zm.4 5.8c.3 0 .6.3.6.6s-.3.6-.6.6-.6-.3-.6-.6c0-.4.3-.7.6-.6ZM95.5 43c0-.3.3-.6.6-.6s.6.3.6.6-.3.6-.6.6-.6-.3-.6-.6Zm.2 5.3c0 .3-.2.5-.5.5s-.5-.2-.5-.5.2-.5.5-.5.6.3.5.5ZM94 40.8c-.4 0-.7-.4-.7-.8s.4-.7.8-.7.7.4.7.8c-.1.4-.4.7-.8.7Zm.2 3.5c0 .3-.3.6-.6.6s-.6-.3-.6-.6.3-.6.6-.6c.3.1.6.3.6.6Zm-1.8 5c0 .3-.2.5-.5.5s-.5-.2-.5-.5.2-.5.5-.5.6.2.5.5Zm-2-2.5c.3 0 .6.3.6.6s-.3.6-.6.6-.6-.3-.6-.6.3-.6.6-.6Zm-1.1-5.2c0-.3.3-.6.6-.6s.6.3.6.6-.3.6-.6.6c-.4 0-.6-.3-.6-.6Zm-.8-2.2c-.3 0-.5-.2-.5-.5s.2-.5.5-.5.5.2.5.5-.2.5-.5.5Zm.3 4.5c0 .3-.3.6-.6.6s-.6-.3-.6-.6.3-.6.6-.6c.4 0 .6.2.6.6ZM86.9 49c.3 0 .5.2.5.5s-.2.5-.5.5-.5-.2-.5-.5.2-.5.5-.5Zm-.7-2.8c0-.3.2-.5.5-.5s.5.2.5.5-.2.5-.5.5-.5-.2-.5-.5Zm-.9-5.1c-.3 0-.6-.3-.6-.6s.3-.6.6-.6.6.3.6.6c0 .4-.3.6-.6.6Zm.5 2.6c0 .3-.3.6-.6.6s-.6-.3-.6-.6.3-.6.6-.6c.4 0 .6.3.6.6Zm-1.7 3.5c0 .3-.3.6-.6.6s-.6-.3-.6-.6.3-.6.6-.6c.4 0 .6.3.6.6ZM81.6 44c.3 0 .5.2.5.5s-.2.5-.5.5-.5-.2-.5-.5.2-.5.5-.5Zm-.8-4.1c0-.3.3-.6.6-.6s.6.3.6.6-.3.6-.6.6-.6-.3-.6-.6Zm-.6 3.2c-.3 0-.6-.3-.6-.6s.3-.6.6-.6.6.3.6.6c-.1.3-.3.6-.6.6Zm.4 6.2c0 .3-.2.5-.5.5s-.5-.2-.5-.5.2-.5.5-.5.5.3.5.5Zm-1.1-2.6c0 .3-.3.6-.6.6s-.6-.3-.6-.6.3-.6.6-.6c.4 0 .6.2.6.6Zm-1.3-5.8c0 .3-.2.5-.5.5s-.5-.2-.5-.5.2-.5.5-.5.5.2.5.5ZM75 39.6c0-.3.2-.5.5-.5s.5.2.5.5-.2.5-.5.5c-.3-.1-.5-.3-.5-.5Zm.3 8.9c0 .3-.2.5-.5.5s-.5-.2-.5-.5.2-.5.5-.5.5.2.5.5ZM73.2 43c-.3 0-.6-.3-.6-.6s.3-.6.6-.6.6.3.6.6c-.1.3-.3.6-.6.6Zm1.1 1.7c.3 0 .6.3.6.6s-.3.6-.6.6-.6-.3-.6-.6c.1-.4.3-.6.6-.6Zm-9.4 33.9c-2.7-3.7-4.7-10.2-4.7-10.3-.3-1.2-2.1-2-5.3-2.9-.3-.1-.4-.1-.5-.2-1.9-.8-3.3-1.3-4.3-1.7-1.6-.5-2.3-.8-3.5-1.8-.2-.2-.5-.7-.7-1.2l7.3 2.4c.1 0 .2.1.4.1.5 0 .9-.3 1.1-.8.2-.6-.1-1.3-.7-1.5l-8.3-2.8v-.2c.1-.5.5-1 1.6-1.1h.1c.5-.1 1.7-.2 6.6 1.8l3.8 1.6c.4.2.9.1 1.2-.2.3-.3.5-.8.3-1.2-.4-1.2-.6-2.7-.4-3 .1-.1.3-.3.4-.2.9.2 2.1 3.5 2.6 4.9l.3.8c.9 2.4-.3 5.4-.3 5.5-.1.2-.1.5 0 .7-.1 1.5 1.3 4.5 2.6 6.8 3 5.5 10.1 9 10.4 9.1.1 0 .2 0 .2.1l.2 2.6c-2.1-1-8.3-4.3-10.4-7.3Zm53.7 92.3c.5.1.8.4.9.6 0 .1 0 .2-.2.3-1.9 1.2-12.2 5.5-28 5.7-16.5.2-28.6-4-29.9-5.3-.3-.2-.3-.4-.3-.4 0-.2.6-.6 1.2-.9l25.6-7.3.2 2.7c0 .2.4 1.8 3.2 1.9h.2c1.2 0 2.2-.8 2.6-1.2.2-.2.4-.3.7-3.1l23.8 7Zm-26.1-5.1c-.4.3-.7.5-1.1.5-.8 0-1.2-.2-1.3-.4l-1.7-24.5c.8.1 1.7.2 2.7.1 1.1 0 2.1-.1 3-.3h.2c-.6 9.2-1.4 22.5-1.8 24.6ZM100.7 52s0 .1 0 0Zc-3.1.3-7.7.6-13.5.7h-3c-4.1 0-7.3-.1-9.6-.2l-.1-.3-.4-1.2c2.8.1 7.3.3 13.3.2 6.2-.1 11-.4 14-.6-.3.3-.6 1-.7 1.4Zm.6-6.7c-.3 0-.6-.3-.6-.6s.3-.6.6-.6.6.3.6.6c0 .4-.3.7-.6.6Zm.7-5.1c-.3 0-.6-.3-.6-.6s.3-.6.6-.6.6.3.6.6-.3.6-.6.6ZM132.4 60c-1.2 1-1.9 1.3-3.5 1.8-1.1.4-2.4.8-4.3 1.6-.1 0-.3.1-.5.2-3.4 1-5.1 1.8-5.3 3.1-.1.1-.1.2-.2.3 0 .1-2.2 6.8-4.9 10.6-2.2 3.1-9.3 6.9-11.5 8.1l.1-3h.2c.4-.1 8.7-3.5 11.7-9 2.8-5.3 3.2-7.2 3.3-7.5.1-.4-.1-.7-.3-1v-.3s-.8-2.8.2-5.3c.3-.7.5-1.5.8-2.3.4-1.4 1.3-4.2 1.8-4.5 0 0 .1 0 .2.1.2.4.1 2.3-.3 4-.1.4 0 .9.4 1.1.3.3.8.4 1.2.2l3.8-1.6c4.9-2 6.1-1.9 6.6-1.9h.1c.7.1 1.1.3 1.4.6l-8.4 3.2c-.6.2-.9.9-.7 1.5.2.5.6.7 1.1.7.1 0 .3 0 .4-.1l7.9-3c-.5 1.3-.9 2.1-1.3 2.4Z"
             class="st1"
             id="path901" /></g></g></g></g>
</svg>
