<?xml version="1.0" encoding="UTF-8" standalone="no"?>
<svg width="180" height="180" id="screenshot-d63f0f97-e08a-80e2-8004-8a77f81bed65" fill="none"
    version="1.1" xmlns="http://www.w3.org/2000/svg">
    <defs id="defs663" />
    <g xml:space="preserve" style="fill:#000000" id="g658"><g
       id="shape-d63f0f97-e08a-80e2-8004-8a77f81c12a6"
       style="fill:#000000"><g
         id="shape-d63f0f97-e08a-80e2-8004-8a77f81c545d"
         style="fill:#000000"><g
           class="fills"
           id="fills-d63f0f97-e08a-80e2-8004-8a77f81c545d"
           style="fill:#000000"><path
             d="M72.1 73.7c-2.2 0-4.5-.6-6.8-1.9-.5-.3-.6-.9-.3-1.3.3-.5.9-.6 1.3-.3 5.4 3.2 11.5 1.1 13.1-1.6.3-.5.9-.6 1.3-.3.5.3.6.9.3 1.3-1.3 2.2-4.8 4.1-8.9 4.1Z"
             class="st1"
             style="fill:#000000;fill-opacity:1"
             id="path645" /></g></g><g id="shape-d63f0f97-e08a-80e2-8004-8a77f81c545e"
        style="fill:#000000"><g
           class="fills"
           id="fills-d63f0f97-e08a-80e2-8004-8a77f81c545e"
           style="fill:#000000"><path
             d="M101.2 72.3c-2.2 0-4.7-.6-6.8-2.5-.4-.4-.5-1-.1-1.4.4-.4 1-.5 1.4-.1 5.2 4.5 12.6 0 12.7-.1.5-.3 1.1-.1 1.4.3.3.5.1 1.1-.3 1.4-.3.1-4 2.4-8.3 2.4Z"
             class="st1"
             style="fill:#000000;fill-opacity:1"
             id="path649" /></g></g><g id="shape-d63f0f97-e08a-80e2-8004-8a77f81f0961"
        style="fill:#000000"><g
           class="fills"
           id="fills-d63f0f97-e08a-80e2-8004-8a77f81f0961"
           style="fill:#000000"><path
             d="M151.4 119.9c-.9-.4-3.4-1.4-4.5-1.6l-.8-.1c-2.4-.5-5.7-1.1-8.4-3.6-4-3.8-8.8-14.8-11.3-20.9 4.1-4.8 7.4-10.4 9.5-16.7l-12.1-4.1c-5.1 15.1-19.2 25.3-35.2 25.3-20.5 0-37.1-16.7-37.1-37.1C51.5 40.7 68.2 24 88.6 24c13.9 0 26.3 7.7 32.7 19.5H96.4v12.8h40.9V13.8h-12.8v12.4C115.4 16.7 102.6 11 88.6 11c-27.5 0-49.9 22.4-49.9 49.9 0 11.6 4 22.2 10.6 30.7-3.9 13.9-9.6 23.9-11.8 26.7-1.3 1.5-3.8 2-6.5 2.5s-5.6 1.1-7.5 2.8c-.8.6-4.5 4.8-4.4 8.2.1 1.2.6 2.3 1.7 2.9.5.3 1.1.5 1.6.5.2 0 .4 0 .6-.1.7-.2 1.3-.6 1.9-1.2-1 1.6-1.2 3.3-.5 5.1 3.6 9.5 30.3 18.5 33.8 19.3l.3.1h.1c-.2 1.6-.6 3.7-1 5.4-1 4.6-1.5 7.3-.3 8.5.2.2.6.5 1.2.5.2 0 .4 0 .6-.1 2.8-.7 6.1-6.1 9.4-12.2 5.8 1 13 1.8 19.1 1.1 3.3-.3 5.5-.6 6.9-.8 3.2-.4 3.2-.4 5 0 .8.1 1.9.3 3.6.6.5.1 1 .2 1.6.3 4.2.7 8.7 1.3 12.3 1.3 2.5 0 4.6-.3 5.9-1.1 1-.6 1.6-1.5 1.4-2.5-.3-2.1-3.3-3.9-9.2-5.5-2.1-.6-3.3-1.4-4.4-2.1-.1-.1-.2-.1-.2-.2 1.8-.2 3.5-.4 4.9-.6 13.6-2.1 35.2-8.1 39.1-16 .8-1.6.8-3.2.1-4.8.7.3 1.9.8 3 .8.4 0 .8-.1 1.2-.2.8-.3 1.4-.8 1.7-1.6 1.3-2.5-1.8-5.7-9.1-9.3ZM98.3 51c-.3 0-.6-.2-.6-.5s.2-.6.5-.6.6.2.6.5-.2.6-.5.6Zm4.9-2.5c-.5 0-.9-.3-.9-.8s.3-.9.8-.9.9.3.9.8c.1.4-.3.8-.8.9Zm1.9 5.6c-.3 0-.6-.2-.6-.5s.2-.6.5-.6.6.2.6.5c0 .4-.2.6-.5.6Zm3.9-6.8c-.5 0-.9-.3-.9-.8s.3-.9.8-.9.9.3.9.8c0 .4-.3.8-.8.9Zm1.2 3.6c-.3 0-.6-.2-.6-.5s.2-.6.5-.6.6.2.6.5-.2.6-.5.6Zm3.7 4c-.3 0-.6-.2-.6-.5s.2-.6.5-.6.6.2.6.5-.2.6-.5.6Zm1.1-10.4c.3 0 .6.2.6.5s-.2.6-.5.6-.6-.2-.6-.5.2-.6.5-.6Zm.6 3.8c-.5 0-.9-.3-.9-.8s.3-.9.8-.9.9.3.9.8-.3.9-.8.9Zm2.2 3c-.3 0-.6-.2-.6-.5s.2-.6.5-.6.6.2.6.5-.2.5-.5.6Zm5.3 0c-.5 0-.9-.3-.9-.8s.3-.9.8-.9.9.3.9.8c0 .4-.4.8-.8.9Zm0-4.4c-.5 0-.9-.3-.9-.8s.3-.9.8-.9.9.3.9.8-.4.9-.8.9Zm4.3 1.8c-.3 0-.6-.2-.6-.5s.2-.6.5-.6.6.2.6.5-.2.6-.5.6Zm.3-5.5c.5 0 .9.3.9.8s-.3.9-.8.9-.9-.3-.9-.8c0-.4.3-.8.8-.9Zm-.2-12.2c-.1-.5.3-.9.8-1 .5-.1.9.3 1 .8.1.5-.3.9-.8 1-.5 0-.9-.3-1-.8Zm.9 23c-.3 0-.6-.2-.6-.5s.2-.6.5-.6.6.2.6.5-.2.6-.5.6Zm.4-16.3c-.5.1-.9-.3-1-.8-.1-.5.3-.9.8-1 .5-.1.9.3 1 .8 0 .5-.4 1-.8 1Zm4.1 15.1c-.4 0-.7-.2-.7-.6 0-.4.2-.7.6-.7.4 0 .7.2.7.6.1.3-.2.6-.6.7Zm1.1-11.1c-.6.1-1.1-.4-1.2-1-.1-.6.4-1.1 1-1.2.6-.1 1.1.4 1.2 1 0 .6-.4 1.1-1 1.2Zm.2-5.8c-.5.1-1-.3-1.1-.8-.1-.5.3-1 .8-1.1.5-.1 1 .3 1.1.8.1.6-.3 1.1-.8 1.1ZM136 15c.3 0 .7.2.7.6 0 .3-.2.7-.5.7s-.7-.2-.7-.6c-.1-.4.2-.7.5-.7Zm-.4 13.8c.1.5-.3.9-.8 1-.5.1-.9-.3-1-.8-.1-.5.3-.9.8-1 .5-.1.9.3 1 .8Zm-1.7-12.3c.3 0 .6.2.6.5s-.2.6-.5.6-.6-.2-.6-.5.2-.6.5-.6Zm-.1 2.2c.5-.1.9.3 1 .8.1.5-.3.9-.8 1-.5.1-.9-.3-1-.8 0-.6.4-1 .8-1Zm-.6 3.5c.4 0 .7.2.8.6 0 .4-.2.7-.6.8-.4 0-.7-.2-.8-.6-.1-.4.2-.7.6-.8Zm-1.7-6.9c.3 0 .6.2.6.5s-.2.6-.5.6-.6-.2-.6-.5.2-.6.5-.6Zm.1 30.1c.5 0 .9.3.9.8s-.3.9-.8.9-.9-.3-.9-.8c0-.4.3-.8.8-.9Zm-1.9-19.5c.5-.1.9.3 1 .8.1.5-.3.9-.8 1-.5.1-.9-.3-1-.8 0-.5.3-1 .8-1Zm-1.3-9.9c.3 0 .6.2.6.5s-.2.6-.5.6-.6-.2-.6-.5.2-.6.5-.6Zm-.9 2.8c.5-.1.9.3 1 .8.1.5-.3.9-.8 1-.5.1-.9-.3-1-.8 0-.5.4-.9.8-1Zm-.7 5.7c.1.5-.3.9-.8 1-.5.1-.9-.3-1-.8-.1-.5.3-.9.8-1 .5 0 1 .4 1 .8Zm-1.3-10.3c.3 0 .6.2.6.5s-.2.6-.5.6-.6-.2-.6-.5.2-.6.5-.6Zm-.1 25.2c.1.5-.3.9-.8 1-.5.1-.9-.3-1-.8-.1-.5.3-.9.8-1 .5 0 .9.3 1 .8Zm-2-11.6c.5-.1.9.3 1 .8.1.5-.3.9-.8 1-.5.1-.9-.3-1-.8-.1-.5.3-1 .8-1Zm-1.1 5.8c.6-.1 1.1.4 1.2 1 .1.6-.4 1.1-1 1.2-.6.1-1.1-.4-1.2-1 0-.6.4-1.2 1-1.2ZM50 56c-.3 0-.6-.2-.6-.5s.2-.6.5-.6.6.2.6.5-.2.5-.5.6Zm1.6-8.6c-.3 0-.6-.2-.6-.5s.2-.6.5-.6.6.2.6.5-.3.6-.5.6Zm9.7-12.6c-.5.1-.9-.3-1-.8-.1-.5.3-.9.8-1 .5-.1.9.3 1 .8.1.5-.3 1-.8 1Zm6.7-8c-.5.1-.9-.3-1-.8-.1-.5.3-.9.8-1 .5-.1.9.3 1 .8 0 .5-.3.9-.8 1Zm51.5 1.1c.6-.1 1.1.4 1.2 1 .1.6-.4 1.1-1 1.2-.6.1-1.1-.4-1.2-1-.1-.6.4-1.1 1-1.2Zm-1.8 6.1c.1.5-.3.9-.8 1-.5.1-.9-.3-1-.8-.1-.5.3-.9.8-1 .5 0 1 .4 1 .8ZM116 21.5c.6-.1 1.1.4 1.2 1 .1.6-.4 1.1-1 1.2-.6.1-1.1-.4-1.2-1-.1-.6.4-1.1 1-1.2Zm-1.1 7.5c.4 0 .8.3.8.7 0 .4-.3.8-.7.9-.4 0-.8-.3-.8-.7 0-.4.3-.8.7-.9Zm-2.5-1.6c.1.5-.3.9-.8 1-.5.1-.9-.3-1-.8-.1-.5.3-.9.8-1 .6 0 1 .3 1 .8Zm-1.8-6.7c.5-.1.9.3 1 .8.1.5-.3.9-.8 1-.5.1-.9-.3-1-.8 0-.5.3-.9.8-1Zm-1.9 5.4c.1.5-.3.9-.8 1-.5.1-.9-.3-1-.8-.1-.5.3-.9.8-1 .5-.1 1 .3 1 .8Zm-1.3-8.8c.3 0 .6.2.6.5s-.2.6-.5.6-.6-.2-.6-.5.2-.5.5-.6Zm-3.1-2.9c.3 0 .6.2.6.5s-.2.6-.5.6-.6-.2-.6-.5.2-.6.5-.6Zm-1.2 8.7c.5-.1.9.3 1 .8.1.5-.3.9-.8 1-.5.1-.9-.3-1-.8 0-.6.3-1 .8-1Zm-2.1-4.5c.6-.1 1.1.4 1.2 1 .1.6-.4 1.1-1 1.2-.6.1-1.1-.4-1.2-1 0-.6.4-1.1 1-1.2Zm-2.2-4.2c.5-.1.9.3 1 .8.1.5-.3.9-.8 1-.5.1-.9-.3-1-.8 0-.6.4-1 .8-1Zm-3.6 5.2c.1.5-.3.9-.8 1-.5.1-.9-.3-1-.8-.1-.5.3-.9.8-1 .6 0 1 .3 1 .8Zm-2-6.9c.3 0 .6.2.6.5s-.2.6-.5.6-.6-.2-.6-.5.2-.5.5-.6Zm-.7 3.1c.4 0 .8.3.9.7 0 .4-.3.8-.7.9-.4 0-.8-.3-.9-.7 0-.5.3-.9.7-.9Zm-3.9-1.2c.3 0 .6.2.6.5s-.2.6-.5.6-.6-.2-.6-.5.2-.6.5-.6Zm0 5.4c.5-.1.9.3 1 .8.1.5-.3.9-.8 1-.5.1-.9-.3-1-.8 0-.5.3-1 .8-1Zm-3.1-7c.3 0 .6.2.6.5s-.2.6-.5.6-.6-.2-.6-.5c0-.2.2-.5.5-.6Zm-1.8 4.2c.5-.1.9.3 1 .8.1.5-.3.9-.8 1-.5.1-.9-.3-1-.8-.1-.5.3-1 .8-1Zm-.6 4.9c.1.6-.4 1.1-1 1.2-.6.1-1.1-.4-1.2-1-.1-.6.4-1.1 1-1.2.6 0 1.1.4 1.2 1Zm-2.3-7.7c.3 0 .6.2.6.5s-.2.6-.5.6-.6-.2-.6-.5.2-.6.5-.6Zm-1.6 8.3c0 .3-.2.6-.5.6s-.6-.2-.6-.5.2-.6.5-.6.5.2.6.5Zm-1.3-4.2c.5-.1.9.3 1 .8.1.5-.3.9-.8 1-.5.1-.9-.3-1-.8 0-.5.4-1 .8-1Zm-1.2-3.7c.3 0 .6.2.6.5s-.2.6-.5.6-.6-.2-.6-.5c-.1-.3.2-.5.5-.6Zm-.3 7.7c.3 0 .6.2.6.5s-.2.6-.5.6-.6-.2-.6-.5.2-.6.5-.6Zm-.8 1.9c.3 0 .6.2.6.5s-.2.6-.5.6-.6-.2-.6-.5.2-.6.5-.6Zm-2-9.7c.3 0 .6.2.6.5s-.2.6-.5.6-.6-.2-.6-.5.2-.6.5-.6Zm-1.9 11.1c-.5.1-.9-.3-1-.8-.1-.5.3-.9.8-1 .5-.1.9.3 1 .8.1.6-.3 1-.8 1Zm.3-4.5c-.3 0-.6-.2-.6-.5s.2-.6.5-.6.6.2.6.5-.2.6-.5.6Zm-.7-3.8c.5-.1.9.3 1 .8.1.5-.3.9-.8 1-.5.1-.9-.3-1-.8 0-.5.3-.9.8-1Zm-2.1-1.4c.3 0 .6.2.6.5s-.2.6-.5.6-.6-.2-.6-.5.2-.5.5-.6Zm-.9 2.1c.5-.1.9.3 1 .8.1.5-.3.9-.8 1-.5.1-.9-.3-1-.8 0-.5.4-.9.8-1Zm-.8 4.1c.5-.1.9.3 1 .8.1.5-.3.9-.8 1-.5.1-.9-.3-1-.8 0-.5.3-1 .8-1Zm-1.1 7.5c.1.5-.3.9-.8 1-.5.1-.9-.3-1-.8-.1-.5.3-.9.8-1 .5 0 .9.3 1 .8Zm-1.2-6.1c0 .3-.2.6-.5.6s-.6-.2-.6-.5.2-.6.5-.6.5.3.6.5ZM63.9 19c.5-.1.9.3 1 .8.1.5-.3.9-.8 1-.5.1-.9-.3-1-.8-.1-.5.3-.9.8-1Zm0 11.7c.1.5-.3.9-.8 1-.5.1-.9-.3-1-.8-.1-.5.3-.9.8-1 .5 0 .9.4 1 .8Zm-1.2-4.5c.1.6-.4 1.1-1 1.2-.6.1-1.1-.4-1.2-1-.1-.6.4-1.1 1-1.2.6 0 1.2.4 1.2 1Zm-2.5-4.9c.5-.1.9.3 1 .8.1.5-.3.9-.8 1-.5.1-.9-.3-1-.8 0-.5.3-1 .8-1ZM58 38.8c-.5.1-.9-.3-1-.8-.1-.5.3-.9.8-1 .5-.1.9.3 1 .8 0 .5-.4 1-.8 1Zm.6-6.4c.1.5-.3.9-.8 1-.5.1-.9-.3-1-.8-.1-.5.3-.9.8-1 .6 0 1 .4 1 .8Zm-2.1-8.1c.3 0 .6.2.6.5s-.2.6-.5.6-.6-.2-.6-.5.2-.5.5-.6Zm.1 3.1c.5-.1.9.3 1 .8.1.5-.3.9-.8 1-.5.1-.9-.3-1-.8-.1-.5.3-.9.8-1Zm-2.3 14.3c-.5 0-.9-.3-.9-.8s.3-.9.8-.9.9.3.9.8c0 .4-.4.8-.8.9Zm-.3-7c.5-.1.9.3 1 .8.1.5-.3.9-.8 1-.5.1-.9-.3-1-.8 0-.5.4-.9.8-1Zm-2.1-4.4c.5-.1.9.3 1 .8.1.5-.3.9-.8 1-.5.1-.9-.3-1-.8 0-.5.3-.9.8-1Zm-.5 11.9c0 .5-.3.9-.8.9s-.9-.3-.9-.8.3-.9.8-.9c.4 0 .8.3.9.8Zm-1.3-8.9c.5-.1.9.3 1 .8.1.5-.3.9-.8 1-.5.1-.9-.3-1-.8 0-.5.3-1 .8-1Zm-8 24.2c-.3 0-.6-.2-.6-.5s.2-.6.5-.6.6.2.6.5-.2.6-.5.6Zm.2-10.5c-.3 0-.6-.2-.6-.5s.2-.6.5-.6.6.2.6.5-.2.5-.5.6Zm2.2 6.3c-.3 0-.6-.2-.6-.5s.2-.6.5-.6.6.2.6.5-.2.6-.5.6Zm1-7.5c-.5 0-.9-.3-.9-.8s.3-.9.8-.9.9.3.9.8c.1.4-.3.9-.8.9Zm.1-4.3c-.5 0-.9-.3-.9-.8s.3-.9.8-.9.9.3.9.8c0 .4-.4.8-.8.9Zm1.4 7.6c-.3 0-.6-.2-.6-.5s.2-.6.5-.6.6.2.6.5-.2.6-.5.6Zm.1-12c-.3 0-.6-.2-.6-.5s.2-.6.5-.6.6.2.6.5-.2.5-.5.6Zm1.7 25.8c-.3 0-.6-.2-.6-.5s.2-.6.5-.6.6.2.6.5-.2.6-.5.6Zm-22.6 75.6c-.5-1.3-.3-2.5.4-3.6.3-.4.6-.6 1-.9 1 0 2.1-.3 3.3-.8 4 0 9.4 2 11.8 3.2l12.1 5.6c4.5 2.4 9 4.3 11.8 5.4h-.1c-4.1.6-6.7 1.8-7.8 3.7-.8 1.4-.9 3-.3 4.9.1.2.1.4.1.6-4.9-1.3-29.3-10.1-32.3-18.1Zm42.6 17.3c-.2.4-.5.9-.8 1.6-.2.3-.4.7-.6 1.1-.3.5-.6 1.2-1 1.8-2.2 4-5.7 9.9-7.9 10.7-.3-.9.4-4.3.9-6.5.4-1.9.8-3.8 1-5.4.1-.7.1-1.4.1-2 0-.6-.1-1.2-.2-1.7-.4-1.3-.4-2.4.1-3.2.9-1.4 3-2.3 6.4-2.8 1.6-.2 3.1-.4 4.6-.5 1.8-.1 3.4-.2 5-.2.6 0 1.3 0 1.9-.1.1.3.2.6.3 1 .3 1.1.8 2.5 1.1 3.4-7.4.9-10.3 1.7-10.9 2.8Zm25.5 3.3c-1.5.2-3.6.4-6.9.8-5.7.6-12.3-.1-17.9-1 .1-.2.2-.3.3-.5.3-.6.6-1.1.8-1.5 1.5-1.2 14.1-2.5 24.4-3.5.2.7.7 3.1 1.1 5.5-.6 0-1.2.1-1.8.2Zm20.4-3.1c7.5 2 7.8 3.8 7.8 3.9 0 .2-.3.5-.5.5-3 1.7-12.4.3-17-.5-.6-.1-1.2-.2-1.6-.3-1.7-.3-2.8-.5-3.6-.6-.8-.2-1.4-.2-1.9-.3-.5-3.1-.8-4.7-1.1-5.6h.3c3.2-.3 6.3-.6 9.2-.9.2 0 .4.1.6.1 1 .2 1.7.6 2.7 1.3 1.3.8 2.7 1.7 5.1 2.4Zm38.2-21.7c-3.2 6.3-21.8 12.4-37.7 14.9-2.3.4-5.3.7-8.7 1.1-2.8.3-5.8.6-8.9.9-.2 0-.4 0-.5.1-6.4.6-11.4 1.1-15.3 1.6-.2-.7-.6-1.9-1-3-.1-.4-.3-.9-.4-1.3-.1-.3-.1-.5-.2-.7v-.1.1c0 .2.1.4.2.7 1.4-.1 2.8-.2 4.2-.5-.3 0-.6 0-.9-.1.3 0 .6 0 .9.1 1.4-.2 2.8-.5 4.3-1 7.3-2.2 32.4-10.7 33-10.9 13.9-4.3 29.7-7.5 31.1-5.1.5 1 .5 2.1-.1 3.2Zm-31.3-25c2 3.5 5.1 8.6 8.1 11.1 3.2 2.6 7 5.2 11.1 7.5.5.4 1.4.7 2.3 1-7.3 1.1-16.2 3.6-20.8 5l-1.3-8 .6-16.6Zm29.6 18.8c.3.2.6.4.9.5-.3-.1-.5-.1-.8-.1-.1-.1-.1-.2-.1-.4Zm7.7.5c-.1.3-.3.5-.5.5-.8.3-2.2-.2-3-.6-.1 0-.1-.1-.1-.1-.5-.4-2.6-1.9-6.2-3.7l-.9-.5c-.5-.2-1.1-.1-1.3.4-.2.5-.1 1.1.4 1.3l.6.3c.1.1.7.3.9.4 1.1.5 1.3 1.6.4 1.8h-.4c-2.7-.3-5.4-1.4-6.6-2.2-4.1-2.3-7.7-4.8-10.9-7.4-4.5-3.6-9.5-14.1-9.6-14.2-.2-.5-.8-.7-1.3-.5-.5.2-.7.7-.5 1.2l-.6 20.6v.1l1.4 8.5c-4.4 1.5-25.6 8.6-32.2 10.6-4.3 1.3-7.8 1.4-11.9 1.5-1.5 0-3.1.1-4.9.2-.8-.1-1.4-.3-1.8-.4l-.4-.2c-1.9-.7-7.8-2.9-13.6-6.1l-12.2-5.6c-.2-.1-3.6-1.7-7.4-2.6-.6-.2-1.2-.3-1.8-.4 1.4-.7 2.5-1.5 3.2-1.9 1.6-1 6.8-4.5 9.2-7.9 4-5.8 6.6-10.3 8-12.8 1.1 3.6 3.5 11.2 3.9 12.3.1.6-.6 3.3-1.2 5.4-1.1 4.1-2.3 8.8-1.9 11 .1.5.5.8 1 .8h.2c.5-.1.9-.6.8-1.2-.4-1.8.9-6.6 1.8-10.2 1.1-4.1 1.4-5.6 1.2-6.5-.5-1.4-4.5-14.1-4.5-14.2 0-.1-.1-.1-.1-.2-.1-.3-.2-.5-.5-.6-.5-.2-1.1 0-1.3.4 0 .1-3 5.9-8.9 14.6-2.2 3.2-7.6 6.7-8.7 7.4-5.8 3.8-9.1 4.4-9.5 4-.2-.2-.2-.3-.2-.3 0-.6 1.3-1.6 2-2.2l.2-.2c.1-.1.2-.1.2-.1s.4-.3.5-.8c.1-.4-.2-.7-.2-.7-.6-.7-1.3-.2-1.6.1-.5.3-1.4 1.1-2.6 2.2-.2.2-.3.5-.6.9-.5.8-1.3 2.3-2.2 2.5-.1 0-.4.1-.7-.2-.5-.3-.8-.8-.8-1.4-.1-2.3 2.9-6 3.7-6.6 1.6-1.4 4.2-1.9 6.7-2.4 2.9-.6 5.9-1.2 7.6-3.2 2.3-2.8 7.9-12.5 11.8-26.1 9.2 10.6 22.7 17.4 37.8 17.4 14.1 0 27.1-5.9 36.4-15.7 2.6 6.4 7.3 16.8 11.4 20.7 3 3 6.8 3.7 9.4 4.1l.8.1c.8.2 3.1 1.1 4.1 1.5 6.1 3.4 8.4 6 8 7.1Z"
             class="st1"
             style="fill:#000000;fill-opacity:1"
             id="path653" /></g></g></g></g>
</svg>
