<?xml version="1.0" encoding="UTF-8" standalone="no"?>
<svg width="180" height="180" id="screenshot-2fd8fd13-1b78-8000-8004-63d020b55919" fill="none"
    version="1.1" xmlns="http://www.w3.org/2000/svg">
    <defs id="defs800" />
    <g xml:space="preserve" style="fill:#000000" id="g795"><g
       id="shape-2fd8fd13-1b78-8000-8004-63d020b5c516"
       style="fill:#000000"><g
         id="shape-2fd8fd13-1b78-8000-8004-63d020b659c5"
         style="fill:#000000"><g
           class="fills"
           id="fills-2fd8fd13-1b78-8000-8004-63d020b659c5"
           style="fill:#000000"><path
             d="M87.1 25.6c-6.8-4.3-13.3 2.4-15.2 4.5l-.1.1c-.2.2-.4.5-.6.8-3.3 4.5-12.1 16.6-.9 27.5 2.9 2.8 6 4.3 9.2 4.3.4 0 .7 0 1.1-.1 7.1-.7 12.9-8.1 15-11.2 1.4-2.1 1.8-5 1-8.7-1.4-7.1-6.8-15.5-9.5-17.2ZM94 50.3c-2 2.9-7.2 9.7-13.5 10.3-3 .3-6-.9-8.7-3.6-9.9-9.7-2.5-20 1.1-24.9.2-.3.4-.5.6-.8 2-2.4 7.3-7.4 12.5-4.1 2.1 1.3 7.3 9.1 8.7 16 .6 3.1.4 5.5-.7 7.1Z"
             class="st1"
             id="path782"
             style="fill:#000000" /></g></g><g id="shape-2fd8fd13-1b78-8000-8004-63d020b659c6"
        style="fill:#000000"><g
           class="fills"
           id="fills-2fd8fd13-1b78-8000-8004-63d020b659c6"
           style="fill:#000000"><path
             d="M76.7 39.9c-1.2 0-2.2 1-2.2 2.2 0 1.2 1 2.2 2.2 2.2 1.2 0 2.2-1 2.2-2.2 0-1.3-1-2.2-2.2-2.2Zm-.2 2.1c0-.1.1-.2.2-.2s.2.1.2.2c-.1.2-.4.2-.4 0Z"
             class="st1"
             id="path786"
             style="fill:#000000" /></g></g><g id="shape-2fd8fd13-1b78-8000-8004-63d020b91d64"
        style="fill:#000000"><g
           class="fills"
           id="fills-2fd8fd13-1b78-8000-8004-63d020b91d64"
           style="fill:#000000"><path
             d="M128.2 60.1c.6-1.2 1.1-2.4 1.6-3.7 7.5-20.7-4-43.9-25.6-51.7-10.4-3.8-21.7-3.4-31.6 1-10 4.4-17.5 12.4-21.1 22.4-2.9 8.1-3 17.1-.3 25.4-.6 0-1.1 0-1.6.1-3.6.9-9.4 5-11 8.5-.6 1.5-.4 2.5 0 3.1 1.6 2.9 4.7 4.3 7.4 5.6 2.5 1.2 4.7 2.2 5.3 4-.1 0-.2.1-.3.1-1 .3-2 .6-2.1 1.5-.1 1.2 1.1 1.8 2 2.3-5.3 18.3-6.7 30.7-4.2 36.7.5 1.2 1.5 2 2.7 2.1h.4c5.1 0 14.3-8.9 25-24.1 3.1-4.4 6.6-4 6.7-4l.6.1c.2 3.9.5 8.5.7 13.7.5 8.9 1 13.7.9 15.8l-14.3 40.8h-.8c-.9 0-1.3.4-1.4.8-.2.6.1 1.1.4 1.5l-14.4 9.4 2.1.6c1.6.5 4.3.7 7.2.7 5.8 0 12.8-.9 15.1-2.2.6-.4 1-.8 1.1-1.3.5-1.9-.2-2.8-.6-3.4-.2-.3-.3-.4-.3-.6v-.8l.3-.3c.8-.9 1.1-3.1.8-3.8-.2-.4-.3-.7-1.4-.8 0 0 0-.1.1-.1.3-1.4.8-3 1.3-4.8 2.4-8.1 11.4-30.5 11.5-30.7v-.1c.4 0 1 .1 1.5 0 .4.7 1.7 3.4 5.7 14.6l.2.4c1.6 4.3 2.9 9.1 4.1 13.3 1.3 4.8 2.2 7.7 3 9.5-.1 0-.2.1-.3.1-.1.1-1.3.9-1.3 2.2 0 .5.2 1.3 1.3 2 1.3.8 1.4 3.7 1.2 4.8-.2 1.3.1 3.3.1 3.3l.1.4.3.3c.2.1 4.4 3.3 9.8 3.3h.2c.1 0 10.3-.2 11-1.9l.2-.7-.5-.5c-.4-.4-9.2-7.3-12.9-10.3.5-.9.6-2-.2-2.8-.8-.8-1.6-1.1-2.1-1.2-.9-4.8-5.2-17-5.8-18.6-2-5.6-6.9-18.8-9.7-21.9-.4-4.9-.1-6.5-.8-16.3-.4-5.1-.7-9.7-1-13.2.9.2 1.7.8 2.8 3.5.4 1.1.9 2.4 1.4 3.8 1.4 3.7 3.1 8.2 5.2 11.9 7.6 13.2 15.5 13.4 15.8 13.4 2.1 0 3.6-.6 4.7-1.7 1.1-1.2 1.6-2.9 1.5-5.1-.3-6.9-3.3-14-5.1-18.3-.4-1-.8-1.8-1-2.4-1.4-4.1-1.8-6.8-2-8.2 0-.4-.1-.7-.1-.9.7-.6 1.6-1.5 2-2.6.3-.9.2-1.6 0-2-.1-.3-.3-.4-.5-.6 1.5-1.1 4.6-3.2 6.4-4.4 2.4-1.6 2.5-3.5 2.4-4.4.4-.7 1.4-2.4 1.9-3.3.6-1.3-.6-5.5-.7-6 0-1-.4-2.2-1-3.3ZM53.4 28.8c3.4-9.5 10.5-17.1 20-21.2 9.5-4.2 20.2-4.5 30.1-.9 20.6 7.3 31.5 29.3 24.4 49-.3.8-.6 1.6-1 2.4-.3-.3-.5-.5-.8-.7-.9-.5-1.6-.6-2.1-.6.4-.8.7-1.6 1-2.4 3.2-8.9 2.6-18.5-1.6-27.1-4.2-8.6-11.6-15.1-20.7-18.5C83.8 2.1 63 11.4 56.4 29.7c-3.2 8.8-2.5 18.2 1.2 26.2-.1-.1-.2-.1-.4-.1h-.3c-1.1-.7-2.3-1.4-3.4-1.8-2.9-8.2-3-17.1-.1-25.2ZM114 70c-1.6 1-1.6 2.1-1.4 2.7 0 .2.1.4.1.6.1.6-.1 1.2-.7 1.6l-2.5 1.6c-8.3 3.2-21.9 5-32.2 1.3-5.5-2-10.4-5-14.6-8.9.6-1.6.7-3 .6-4.2 4 4.5 9.2 8.2 15.3 10.4 3.9 1.4 8 2.1 12.1 2.1 9.5 0 19-3.6 26.1-10.2.2.4.5.8.7 1.3 0 .1.1.2.1.2-.8.2-2 .5-3.6 1.5Zm-6.1 10.8.4 1.5c.2.8.2 1.6 0 1.8-.1.2-.5.5-.7.7-.2.2-.4.3-.5.5-.4.4-.5.9-.3 1.4.1.4.4 1.1 3.6 1.7.4 1.9 1.7 7.3 2.9 11.7 1.3 4.6 2.6 9.6 3.4 12.6-.9-1-1.9-2.1-2.7-2.9-5.7-6.2-8.9-13.9-11.1-20-1.6-4.4-5.7-5.7-8.4-5.8v-2.2c4.8-.3 9.5-1.2 13.3-2.5-.1.5-.1 1 .1 1.5Zm-25.1 5.1c-.3 0-.5-.2-.5-.5s.2-.5.5-.5.5.2.5.5c.1.3-.2.5-.5.5Zm4-.7c0 .3-.2.5-.5.5s-.5-.2-.5-.5.2-.5.5-.5.5.2.5.5Zm-.2-2.7c0-.3.2-.5.5-.5s.5.2.5.5-.2.5-.5.5-.5-.2-.5-.5Zm.2 7.5c0 .3-.2.5-.5.5s-.5-.2-.5-.5.2-.5.5-.5.6.2.5.5Zm-.8 8c.3 0 .6.3.6.6s-.3.6-.6.6-.6-.3-.6-.6c0-.4.3-.6.6-.6Zm-.7 5.5c0-.3.2-.5.5-.5s.5.2.5.5-.2.5-.5.5-.5-.2-.5-.5Zm.9 2c.3 0 .5.2.5.5s-.2.5-.5.5-.5-.2-.5-.5c-.1-.3.2-.5.5-.5ZM85 93.1c-.2 0-.4-.2-.4-.5 0-.2.2-.4.5-.4.2 0 .4.2.4.5-.1.2-.3.4-.5.4Zm-.2-5.9c-.3 0-.5-.2-.5-.5s.2-.5.5-.5.5.2.5.5-.2.5-.5.5Zm-1-3.1c-.4 0-.7-.3-.7-.7 0-.4.3-.7.7-.7.4 0 .7.3.7.7 0 .4-.3.7-.7.7Zm-.2 3.8c.3 0 .5.2.5.5s-.2.5-.5.5-.5-.2-.5-.5.2-.5.5-.5Zm.5 6.4c.3 0 .6.3.6.6s-.3.6-.6.6-.6-.3-.6-.6.3-.6.6-.6Zm-.2 3.1c.3 0 .5.2.5.5s-.2.5-.5.5-.5-.2-.5-.5.2-.5.5-.5Zm.5 3.6c0-.3.2-.5.5-.5s.5.2.5.5-.2.5-.5.5-.5-.2-.5-.5Zm.3 5.1c0 .2-.2.4-.4.4s-.4-.2-.4-.4.2-.4.4-.4c.3-.1.5.1.4.4Zm.5 8.9c0 .2-.2.4-.4.4s-.4-.2-.4-.4.2-.4.4-.4.4.2.4.4Zm-.9-3.7c-.2 0-.4-.2-.4-.4s.2-.4.4-.4.4.2.4.4-.2.4-.4.4Zm1.4-1.8c0-.3.2-.5.5-.5s.5.2.5.5-.2.5-.5.5-.5-.3-.5-.5Zm1 2.6c.3 0 .5.2.5.5s-.2.5-.5.5-.5-.2-.5-.5.2-.5.5-.5Zm0-15.7c-.3 0-.5-.2-.5-.5s.2-.5.5-.5.5.2.5.5-.3.5-.5.5Zm0-2.2c-.3 0-.5-.2-.5-.5s.2-.5.5-.5.5.2.5.5c0 .2-.2.5-.5.5Zm.5-5.9c-.3 0-.5-.2-.5-.5s.2-.5.5-.5.5.2.5.5-.2.5-.5.5Zm-5.4-5.2Zc-.3 0-5.6-.4-9.9 4-1.8 1.9-3.8 3.9-5.8 6-4.4 4.6-10.2 10.6-12.6 12.5 0-4.5 1-18.8 3.3-25.4.2-.1.7-.2 1-.2.8-.2 1.4-.3 1.7-.7.6-.8 1-2.2-.5-3.7.3-.6.8-2.3.3-4.1v-.1c.6.1 1.2.1 1.9-.2.2-.1.4-.2.5-.4 4.3 4 9.4 7 15 9.1 1.6.6 3.3 1 5.1 1.4v1.8Zm11.3-.1c-.3 0-.5-.2-.5-.5s.2-.5.5-.5.5.2.5.5-.3.5-.5.5Zm-1.2 3.5c0-.3.2-.5.5-.5s.5.2.5.5-.2.5-.5.5c-.2 0-.5-.2-.5-.5Zm.5 8.1c0 .3-.2.5-.5.5s-.5-.2-.5-.5.2-.5.5-.5.5.2.5.5Zm-.1-9.9c-.2 0-.4-.2-.4-.4s.2-.4.4-.4.4.2.4.4-.2.4-.4.4Zm-.2 6.9c0 .3-.2.5-.5.5s-.5-.2-.5-.5.2-.5.5-.5.5.3.5.5Zm-.5 7.2c.3 0 .5.2.5.5s-.2.5-.5.5-.5-.2-.5-.5.2-.6.5-.5Zm.1-1.1c0-.3.3-.6.6-.6s.6.3.6.6-.3.6-.6.6c-.4 0-.6-.3-.6-.6Zm1.2 11.4c0-.3.2-.5.5-.5s.5.2.5.5-.2.5-.5.5c-.3.1-.5-.2-.5-.5Zm.1 3.5c0 .3-.2.5-.5.5s-.5-.2-.5-.5.2-.5.5-.5c.3-.1.5.2.5.5Zm.1-7.5c-.3 0-.5-.2-.5-.5s.2-.5.5-.5.5.2.5.5-.3.5-.5.5Zm-4.2 5.3c.3 0 .5.2.5.5s-.2.5-.5.5-.5-.2-.5-.5.2-.5.5-.5Zm-.7-2.5c-.2 0-.4-.2-.4-.4s.2-.4.4-.4.4.2.4.4-.2.4-.4.4Zm.3-2.3c-.3 0-.5-.2-.5-.5s.2-.5.5-.5.5.2.5.5c.1.3-.2.5-.5.5Zm0-4.8c-.3 0-.5-.2-.5-.5s.2-.5.5-.5.5.2.5.5-.2.5-.5.5Zm.3-3.3c0-.3.2-.5.5-.5s.5.2.5.5-.2.5-.5.5c-.2.1-.5-.2-.5-.5Zm0-2c-.3 0-.6-.3-.6-.6s.3-.6.6-.6.6.3.6.6c.1.4-.2.6-.6.6Zm-.2-4c-.3 0-.5-.2-.5-.5s.2-.5.5-.5.5.2.5.5-.2.5-.5.5Zm-.4 22c.2 0 .4.2.4.4s-.2.4-.4.4-.4-.2-.4-.4.2-.4.4-.4Zm1.2-10.1c-.3 0-.5-.2-.5-.5s.2-.5.5-.5.5.2.5.5c0 .2-.2.5-.5.5Zm.3-16.7c-.3 0-.5-.2-.5-.5s.2-.5.5-.5.5.2.5.5-.2.5-.5.5Zm.4-3.5c-.3 0-.6-.3-.6-.6s.3-.6.6-.6.6.3.6.6-.3.6-.6.6Zm.8 5.8c.3 0 .5.2.5.5s-.2.5-.5.5-.5-.2-.5-.5.2-.5.5-.5Zm.1 17.8c.3 0 .5.2.5.5s-.2.5-.5.5-.5-.2-.5-.5.2-.5.5-.5Zm.2-2.1c-.2 0-.4-.2-.4-.4s.2-.4.4-.4.4.2.4.4-.2.4-.4.4Zm.2-3.5c0-.3.2-.5.5-.5s.5.2.5.5-.2.5-.5.5c-.2.1-.5-.2-.5-.5Zm2.5-4.4c-.2 0-.4-.2-.4-.5 0-.2.2-.4.5-.4.2 0 .4.2.4.5 0 .2-.2.4-.5.4Zm-.3-3.7c-.3 0-.5-.2-.5-.5s.2-.5.5-.5.5.2.5.5-.2.5-.5.5Zm-.1-2.8c-.2 0-.4-.2-.4-.4s.2-.4.4-.4.4.2.4.4c.1.3-.1.4-.4.4Zm22.3-24.9c-9.6 9.2-24.2 12.4-36.4 8-17.9-6.5-27.3-25.7-21.1-42.9C64.5 13.3 84.1 4.5 102 11c8.7 3.1 15.6 9.3 19.6 17.4 4 8.1 4.5 17.2 1.5 25.5-.6 1.6-1.3 3.2-2.1 4.7-.1-.1-.3-.2-.4-.3-.2-.1-.4-.3-.7-.4-1-.6-2.3-.6-3.6.2-1.2.7-2.3 2.2-2.2 3.8.1.7.7 1.8 1.7 3.5ZM56.4 78.1c-.4.1-2.2-.3-4-1-.2-.1-.3-.2-.5-.3-.1 0-.1-.1-.2-.1.9-.3 1.9-.6 1.8-1.6-.4-3.4-3.5-4.8-6.6-6.2-2.6-1.2-5.2-2.4-6.5-4.7-.2-.4 0-.9.1-1.3 1.3-2.9 6.5-6.6 9.6-7.3 1.1-.3 2.4.1 3.7.7-4.6 1.4-9.9 5.4-10.1 5.6-.4.3-.5 1-.2 1.4.2.3.5.4.8.4.2 0 .4-.1.6-.2 2.1-1.6 7.8-5.4 11.4-5.7 1.2.9 2.3 1.9 3.1 2.8-.7-.2-1.4-.3-2.3-.3-5 0-9.3 5.6-9.4 5.8-.3.4-.2 1.1.2 1.4.2.1.4.2.6.2.3 0 .6-.1.8-.4 0 0 3.8-5 7.9-5h.1c3.2 0 3.9 1.8 3.9 1.8.1.2.2.4.2.7.1 1.1.1 2.1-.7 4l-.2.3c-.1 0-.2.1-.2.1-.5.2-.7 0-.7 0-.1 0-.1-.2-.2-.2v-2.1c-.1-.5-.3-.9-.7-1.1-.4-.2-.9-.3-1.3-.1l-4.7 1.6c-.5.2-.8.7-.6 1.2.1.5.7.8 1.2.7 0 0 .7-.1 1.9.5 3.5 1.8 2.1 4.8 2 5.1 0 .1 0 .1-.1.2l-.1.2-.1.5c0 .5.3.9.6 1.1.7.6.7.8.6 1.1-.2 0-.4.1-.6.1m0-10.2v1c-.3-.2-.6-.5-1-.7l1-.3Zm24.4 19.6c-.2 0-4.8-.7-8.7 4.8-11.6 16.6-20.2 23.6-23.6 23.2-.5-.1-.9-.3-1.1-.9-2.3-5.6-.8-17.4 4.2-35.2.6.2 1.3.4 2 .5-2.4 7.5-3.9 26.4-2.9 27.7.2.3.5.4.9.4 1.5 0 4.5-3 14.8-13.7 2-2.1 4-4.1 5.8-6 3.6-3.6 8.2-3.4 8.2-3.4h.3c0 .8.1 1.6.1 2.4v.2Zm1.1 4c-.2 0-.4-.2-.4-.4s.2-.4.4-.4.4.2.4.4c.1.2-.1.4-.4.4Zm.4 11.8c0-.3.2-.5.5-.5s.5.2.5.5-.2.5-.5.5-.5-.2-.5-.5Zm.3 5.2c0-.3.2-.5.5-.5s.5.2.5.5-.2.5-.5.5c-.2 0-.5-.2-.5-.5ZM77 168.8c-1.3 1.2-12.4 2.6-18.6 1.9l11.3-7.3c.1 0 .3-.1.4-.2l.1-.1.5-.3.3-.8c1.7-.1 4.8-.2 6.1-.1-.1.4-.2.9-.3 1.2h-.2c-.1 0-.1.1-.2.1l-.1.1c-.1.1-.1.2-.2.2v.1c0 .1 0 .1-.1.2v.2c0 .1-.1 1.1 0 1.9.1.7.4 1.1.7 1.5.3.2.5.5.3 1.4Zm0-14.5c-.5 1.8-1 3.5-1.3 4.9v.5c-1 0-2.3 0-4.1.1l13-37.2c1.1.7 2.7 1.1 3.7 1.2-1.2 3.3-8.9 22.8-11.3 30.5Zm13.3-41.7c-.2 0-.4-.2-.4-.4s.2-.4.4-.4.4.2.4.4-.2.4-.4.4Zm.2-2.6c0-.3.2-.5.5-.5s.5.2.5.5-.2.5-.5.5c-.3-.1-.5-.3-.5-.5Zm.6 4.6c0-.2.2-.4.4-.4s.4.2.4.4-.2.4-.4.4c-.3 0-.4-.2-.4-.4Zm21.2 51.4c4 3.1 9.6 7.6 12.2 9.6-1.7.3-4.8.7-8.1.7-3.9.1-7.4-1.9-8.4-2.6-.1-.7-.1-1.7 0-2.4 0 0 .7-5-2.2-6.8-.3-.2-.4-.3-.4-.3 0-.1.2-.3.4-.5.1 0 .1-.1.2-.2.3.2.6.4.9.4 3.3-.1 4.4-.2 4.9-.8.2.1.5.2.8.5 0 .1-.2.6-.5.9l-.7.8.9.7Zm-2.2-4.3c-.5.1-1.3.1-2.9.2-.8-.9-2.1-5.7-3.3-9.9-1.2-4.3-2.5-9.1-4.1-13.5l-.2-.4c-3.2-8.8-4.7-12.6-5.5-14.2.7-.2 1.3-.5 1.7-.9 4.5 6.8 13.6 34.3 14.3 38.7ZM94 103.5c0-.3.2-.5.5-.5s.5.2.5.5-.2.5-.5.5-.5-.2-.5-.5Zm1.6 10c0 .2-.2.4-.4.4s-.4-.2-.4-.4.2-.4.4-.4c.3 0 .4.2.4.4Zm-.6-2c-.3 0-.5-.2-.5-.5s.2-.5.5-.5.5.2.5.5c0 .2-.3.5-.5.5Zm.4-4.4c0 .2-.2.4-.4.4s-.4-.2-.4-.4.2-.4.4-.4c.2-.1.4.1.4.4Zm-.2-5.5c0 .3-.2.5-.5.5s-.5-.2-.5-.5.2-.5.5-.5.5.2.5.5Zm-.3-2.3c0 .2-.2.4-.4.4s-.4-.2-.4-.4.2-.4.4-.4.4.2.4.4Zm23.4-2.7c.2.6.6 1.5 1 2.5 1.7 4.2 4.6 11.1 4.9 17.6.1 1.7-.3 2.9-1 3.6-.7.7-1.8 1.1-3.3 1.1-.1 0-7.1-.1-14.1-12.3-2-3.5-3.7-8-5-11.6-.5-1.4-1-2.7-1.5-3.8-1.6-3.9-3.1-4.6-4.8-4.8 0-.8-.1-1.6-.1-2.2V86c1.7.1 5.1.7 6.4 4.5 2.2 6.3 5.6 14.2 11.5 20.7 3.1 3.3 4.5 4.8 5.1 5.2.4.2.8.2 1.1 0 .3-.2.5-.6.5-1-.1-1.7-3.6-14.3-4-15.8-1.1-3.9-2.2-8.7-2.8-11 1.1.1 2.5 0 3.8-.5.4 1.4.8 4.3 2.3 8.5Zm-.1-13.2c-.5 1.3-2 2.3-2 2.3h-.1c-1.3 1-3.8.8-4.7.6h-.4c-.6-.1-1.3-.2-1.7-.3.3-.2.5-.5.7-.7.8-1.2.4-3 .3-3.5l-.4-1.5c-.2-.7.1-1.5.7-1.9l2.5-1.6c.7-.4 1.1-1 1.4-1.8.2 0 .4.1.6.1h1c.1.2.2.6.3 1 .1.5.5.8 1 .8h.2c.5-.1.9-.7.7-1.2-.5-1.8-1-2.2-1.2-2.3-.4-.2-.9-.2-1.5-.2h-.6c-.2 0-.4 0-.5-.2-.1-.2-.2-.3-.1-.5 0 0 .1-.2.6-.6 2.1-1.4 3.2-1.1 3.5-.8.4.4.9 1.1 1.3 1.8.5.9.9 1.6 1 1.8.4.7.8 2.4.5 3.1 0 .1-.1.3-.2.3-1.9 1.3-3.7 2.6-3.7 2.6-.1.1-.2.2-.3.4-.1.1-1.4 2.5-3.9 2.4-.6 0-1 .4-1.1 1 0 .6.4 1 1 1.1h.3c2.4 0 4-1.5 4.8-2.5v.3Zc.1-.3.1-.2 0 0Zm6.7-7.9c-.4.3-.9.6-1.4.9-.1-1.3-.6-2.6-.8-2.9-.1-.1-.2-.4-.5-.9l-.5-1c-1.3-2.4-3.5-6.3-3.5-6.3-.2-.4-.4-.8-.7-1.1-.6-1-1.4-2.3-1.4-2.7-.1-.6.5-1.4 1.2-1.9.4-.3 1-.4 1.4-.2.2.1.4.2.6.4 1.2 1 2.3 2.6 2.3 2.6.1.1.2.3.5.8l2.2 4.5 2 4.8c0 .1.2.4.2.6 0 .1.1 1.3-1.6 2.4Zm1.3-14.9c1.4 2.5 2.4 7.2 2.2 8.1-.2.4-.6 1.1-.9 1.7l-1.4-3.5-2.7-5.6c0-1 .2-2.2.6-2.4.2-.1.6 0 1.1.3.3.2.6.5.8.9"
             class="st1"
             id="path790"
             style="fill:#000000" /></g></g></g></g>
</svg>
