<?xml version="1.0" encoding="UTF-8" standalone="no"?>
<svg width="180" height="180" id="screenshot-2fd8fd13-1b78-8000-8004-646e09b5efa0" fill="none"
    version="1.1" xmlns="http://www.w3.org/2000/svg">
    <defs id="defs526" />
    <g xml:space="preserve" style="fill:#000000" id="g521"><g
       id="shape-2fd8fd13-1b78-8000-8004-646e09b652d5"
       style="fill:#000000"><g
         id="shape-2fd8fd13-1b78-8000-8004-646e09b652d6"
         style="fill:#000000"><g
           class="fills"
           id="fills-2fd8fd13-1b78-8000-8004-646e09b652d6"
           style="fill:#000000"><ellipse
             cx="91.5"
             cy="65.6"
             rx=".4"
             ry=".8"
             class="st1"
             style="fill:#000000;fill-opacity:1"
             id="ellipse484" /></g></g><g id="shape-2fd8fd13-1b78-8000-8004-646e09b6b7fd"
        style="fill:#000000"><g
           class="fills"
           id="fills-2fd8fd13-1b78-8000-8004-646e09b6b7fd"
           style="fill:#000000"><circle
             cx="88.8"
             cy="74.3"
             class="st1"
             style="fill:#000000;fill-opacity:1"
             r=".8"
             id="circle488" /></g></g><g id="shape-2fd8fd13-1b78-8000-8004-646e09b6b7fe"
        style="fill:#000000"><g
           class="fills"
           id="fills-2fd8fd13-1b78-8000-8004-646e09b6b7fe"
           style="fill:#000000"><path
             d="M91.2 73.2c-.5 0-1 .4-1 1 0 .5.4 1 1 1 .5 0 1-.4 1-1-.1-.6-.5-1-1-1Z"
             class="st1"
             style="fill:#000000;fill-opacity:1"
             id="path492" /></g></g><g id="shape-2fd8fd13-1b78-8000-8004-646e09b6b7ff"
        style="fill:#000000"><g
           class="fills"
           id="fills-2fd8fd13-1b78-8000-8004-646e09b6b7ff"
           style="fill:#000000"><path
             d="M91.2 72.5c.6 0 1-.4 1-.9s-.4-.9-1-.9-1 .4-1 .9.4.9 1 .9Z"
             class="st1"
             style="fill:#000000;fill-opacity:1"
             id="path496" /></g></g><g id="shape-2fd8fd13-1b78-8000-8004-646e09b6fdd5"
        style="fill:#000000"><g
           class="fills"
           id="fills-2fd8fd13-1b78-8000-8004-646e09b6fdd5"
           style="fill:#000000"><path
             d="M89.4 77.6c0 .4.4.8.8.8s.8-.4.8-.8-.4-.8-.8-.8-.8.3-.8.8Z"
             class="st1"
             style="fill:#000000;fill-opacity:1"
             id="path500" /></g></g><g id="shape-2fd8fd13-1b78-8000-8004-646e09b6fdd6"
        style="fill:#000000"><g
           class="fills"
           id="fills-2fd8fd13-1b78-8000-8004-646e09b6fdd6"
           style="fill:#000000"><ellipse
             cx="89.1"
             cy="69.6"
             rx=".8"
             ry=".9"
             class="st1"
             style="fill:#000000;fill-opacity:1"
             id="ellipse504" /></g></g><g id="shape-2fd8fd13-1b78-8000-8004-646e09b6fdd7"
        style="fill:#000000"><g
           class="fills"
           id="fills-2fd8fd13-1b78-8000-8004-646e09b6fdd7"
           style="fill:#000000"><path
             d="M93.7 44.8c.1.2.5.5 1.9.5 2.6.1 5.3-1.4 5.6-1.6-.3-.1-.8-.4-1.7-.7-2.9-.9-5.3 1.3-5.8 1.8Z"
             class="st1"
             style="fill:#000000;fill-opacity:1"
             id="path508" /></g></g><g id="shape-2fd8fd13-1b78-8000-8004-646e09b9cbef"
        style="fill:#000000"><g
           class="fills"
           id="fills-2fd8fd13-1b78-8000-8004-646e09b9cbef"
           style="fill:#000000"><path
             d="m113.9 5.9.1-3.1-47.8-.4v3.2h2v.8c0 1-.4 25.5.3 29C70 43.8 74.6 49 79.1 54c.6.6 1.1 1.3 1.7 1.9 1.8 2.1 3.1 3.2 3.9 4 .4.4.7.6.9.8.1.1.2.3.4.6.2.4.2.9.3 2 .1.7.1 1.3.1 1.6 0 .1 0 .3-.1.9-.2 2.1-.2 2.1-1.5 3.4-.8.7-2 1.9-3.9 4-.5.5-.9 1.1-1.4 1.6-.8 0-2.6.1-5.3 1-3.1 1-6.9 2.9-8.1 3.6l-.2.1c-7.8 5-12.2 10.2-13 15.3-.7 4.4 6.7 11.6 8.6 13 .1.2.4.9.6 1.5.7 1.8 1.6 4.2 3 5.8.2.2 1.1 1.3 2 1.3h.1c.4-.1.8-.2 1.1-.3 0 3.8.1 6.6.1 6.6v.7h-3.8l.1 3.6 8.4-.1c.2 1.7.4 4 .6 7.4.5 7.6.3 12.7.2 16-.1 1.5-.1 2.6-.1 3.5 0 .1-.4 7.6-.8 11 0 .3 0 .6.2.9-2.7 1.2-7.3 3.5-7.7 5.3-.2 1.2.6 1.3 2.1 1.6 1.9.4 4.5-.2 7.2-1.3 2.2-.9 3.7-1.4 5.1-2.1 1.5-.8.9-2.1.9-2.2h.1c.5 0 .9-.5.9-1l.3-14.4.3-16.9.3-7.9 15.8-.1c-.4 9.8-1.5 35.8-1.1 40.2 0 .5.3 1 .7 1.4.2.2.4.3.7.4-.4 1.3-.9 4.2 1.2 5.1 2.8 1.2 12.1 4.5 11.8 1.3-.2-2.2-4-4.6-6.3-5.9h.5c.5 0 .9-.5.9-1 0-.3.6-25.1.8-30.6 0-1.3.3-7.3.4-11l6.2-.1-.1-3.3h-1.9v-1.1c0-.1.1-10.3.1-18.3 2 .6 3.7.9 4.8 1.1.5.1.9.1 1.4.1 2.8 0 5.8-1 6.6-3.4 1.1-3.4-.2-7-1.6-9.5-2-3.5-4.5-6.8-7.7-10-6.3-6.2-13-7.8-14.8-8.1-.4-.5-.8-.9-1.3-1.4-1.8-2.1-3.1-3.2-3.9-4-1.4-1.3-1.4-1.3-1.5-3.4v-1.4c.1-2.2.1-2.2 1.7-3.7.8-.8 2-1.9 3.7-3.9.6-.6 1.1-1.3 1.7-1.9 4.5-5 9.2-10.2 10.6-18.6.6-3.5.3-28 .2-29v-1m-10.6 38.9c-.5.3-3.1 1.8-5.8 1.8h-.4c-1.5-.1-2.4-.4-2.8-1-.2-.4-.2-.7-.1-.9l.1-.1c.1-.1 3.1-3.5 7.1-2.2 2 .7 2.7 1.1 2.6 1.8.1.4-.4.6-.7.6ZM70.3 32.4c-.2-5.6-.1-19.5 0-26.8l39.9.5c.1 9 .1 26.9-.4 29.5-.4 2.4-1.1 4.4-2 6.3-1.2-2.9-5.3-4.1-8.5-6.1-3.7-2.4-15.8-2.4-21.1-3.8-4.6-1.3-7.2 0-7.9.4Zm20 34.7c0-.1 0-.2-.1-.2.2 0 .4-.2.5-.3l.1.1c-.2 0-.4.1-.5.4Zm-2.1-.8.2.2c-.2.2-.3.4-.3.6 0-.3.1-.5.1-.8Zm1.2-.1Zm-6.3-19.3c-1 0-2.1-.1-3.2-.5-1.4-.5-2.1-1.1-2.3-1.8-.1-.4 0-.8.2-1l.1-.1s4-2.6 7.5 0c1.7 1.3 2.2 2 2 2.6-.2.4-.6.5-1 .5s-1.7.3-3.3.3Zm-21.7 60.9c.2.1.3.2.3.2-.2 0-.3-.1-.3-.2Zm7.6-.5c-.4-.4-1-.5-1.4-.1-.3.3-.4.7-.3 1.1 0 .6.1 1.4.1 2.2.1 1 .2 2.1.2 2.9v.7c-.1 0-.3.1-.6.1-.2-.1-.5-.4-.6-.6-1.1-1.3-2-3.6-2.6-5.2-.6-1.6-.8-2.2-1.4-2.4-1.2-.8-8.2-7.8-7.7-11 .8-4.6 4.8-9.3 12.2-14l.2-.1c1.1-.7 4.9-2.5 7.7-3.4 1.1-.4 2-.6 2.7-.7-1.7 1.9-3.3 3.9-4.7 6.1-2.9.7-6.7 2.7-8.4 4.2-4.1 3.5-6.7 5.9-6.3 8 .3 1.3 2.6 4.7 5.7 7.1l3.3 1.6h.1c1.6.5 2.9 3.7 3 4.5-.4-.2-.8-.5-1.2-1Zm2.3-21.7c-1.2 2.4-2.2 5-2.8 8.1-.3 1.5-.3 4.4-.3 8.4-.1 0-.2-.1-.3-.1l-2.9-1.4c-2.8-2.3-4.7-5.3-4.8-5.9-.2-1.1 3.9-4.5 5.6-6 1-.9 3.3-2.2 5.5-3.1Zm.7 34.7c-.4 0-.7-.2-.8-.6-.1-.4.2-.7.6-.8.4 0 .7.2.8.6.1.4-.2.8-.6.8Zm2 1.3c-.3 0-.5-.2-.5-.5s.2-.5.5-.5.5.2.5.5c0 .2-.2.4-.5.5Zm.6-4.5c0-.2.2-.5.4-.5s.5.2.5.4-.2.5-.4.5-.5-.2-.5-.4Zm5.6 17.7-.3 16.9-.3 13.5c-2.1.1-4.1 0-4.8-.3.4-3.5.8-10.5.8-10.9 0-.9 0-2 .1-3.5.1-3.4.3-8.5-.2-16.2-.2-3.2-.4-5.5-.5-7.3h5.5l-.3 7.8Zm-2.9-16c0 .3-.2.7-.6.7-.3 0-.7-.2-.7-.6 0-.3.2-.7.6-.7.4 0 .7.3.7.6Zm-.5-3.5c0-.2.2-.5.4-.5s.5.2.5.4-.2.5-.4.5-.5-.1-.5-.4Zm1.6 5.3c0-.2.2-.5.4-.5s.5.2.5.4-.2.5-.4.5-.5-.2-.5-.4Zm1.3-1.8c-.5 0-.9-.3-.9-.8s.3-.9.8-.9.9.3.9.8-.3.8-.8.9Zm-.6-5.5c0-.2.2-.5.4-.5s.5.2.5.4-.2.5-.4.5-.5-.2-.5-.4Zm2 8c-.2 0-.5-.2-.5-.4s.2-.5.4-.5.5.2.5.4-.2.4-.4.5Zm.6-4.4c-.2 0-.5-.2-.5-.4s.2-.5.4-.5.5.2.5.4c0 .3-.2.5-.4.5Zm.2-2.7c0-.2.2-.5.4-.5s.5.2.5.4-.2.5-.4.5-.4-.1-.5-.4Zm.7 5.8c-.2 0-.5-.2-.5-.4s.2-.5.4-.5.5.2.5.4c0 .3-.1.5-.4.5Zm.7-8.3c-.2 0-.5-.2-.5-.4s.2-.5.4-.5.5.2.5.4-.2.4-.4.5Zm.5 2.5c0-.2.2-.5.4-.5s.5.2.5.4-.2.5-.4.5-.5-.2-.5-.4Zm.9 1.9c.2 0 .5.2.5.4s-.2.5-.4.5-.5-.2-.5-.4.2-.4.4-.5Zm.1 5.2c-.4 0-.7-.2-.8-.6 0-.4.2-.7.6-.8.4 0 .7.2.8.6.1.4-.2.7-.6.8Zm.9-8.5c-.2 0-.5-.2-.5-.4s.2-.5.4-.5.5.2.5.4c.1.2-.1.4-.4.5Zm.6 1.4c0-.2.2-.5.4-.5s.5.2.5.4-.2.5-.4.5-.5-.1-.5-.4Zm.8 5.5c-.2 0-.5-.2-.5-.4s.2-.5.4-.5.5.2.5.4c.1.3-.1.5-.4.5Zm1.3-3.3c-.4 0-.7-.2-.8-.6-.1-.4.2-.7.6-.8.4 0 .7.2.8.6.1.4-.2.8-.6.8Zm-.5-4.5c0-.2.2-.5.4-.5s.5.2.5.4-.2.5-.4.5-.5-.1-.5-.4Zm1.6 9.3c-.2 0-.5-.2-.5-.4s.2-.5.4-.5.5.2.5.4c0 .3-.1.5-.4.5Zm.6-2.4c-.4 0-.7-.2-.8-.6-.1-.4.2-.7.6-.8.4 0 .7.2.8.6 0 .4-.3.8-.6.8Zm1.2-2.4c-.2 0-.5-.2-.5-.4s.2-.5.4-.5.5.2.5.4-.1.5-.4.5Zm.2-2.6c-.2 0-.5-.2-.5-.4s.2-.5.4-.5.5.2.5.4-.1.4-.4.5Zm1.4-2.1c-.2 0-.5-.2-.5-.4s.2-.5.4-.5.5.2.5.4c0 .3-.2.5-.4.5Zm.4 2.8c.2 0 .5.2.5.4s-.2.5-.4.5-.5-.2-.5-.4c0-.3.2-.5.4-.5Zm.2 6.5c-.5 0-.9-.3-.9-.8s.3-.9.8-.9.9.3.9.8-.3.9-.8.9Zm.9-3.1c-.4 0-.7-.2-.8-.6 0-.4.2-.7.6-.8.4 0 .7.2.8.6 0 .4-.3.7-.6.8Zm.3-8.7c0-.2.2-.5.4-.5s.5.2.5.4-.2.5-.4.5-.4-.2-.5-.4Zm.2 3.2c0-.4.2-.7.6-.8.4 0 .7.2.8.6.1.4-.3.8-.6.8-.4.1-.8-.2-.8-.6Zm.7 2.7c0-.2.2-.5.4-.5s.5.2.5.4-.2.5-.4.5-.5-.1-.5-.4Zm.8 3.3c-.2 0-.5-.2-.5-.4s.2-.5.4-.5.5.2.5.4c0 .3-.1.5-.4.5Zm1.5 1.4c-.2 0-.5-.2-.5-.4s.2-.5.4-.5.5.2.5.4-.1.4-.4.5Zm0-3c0-.4.2-.7.6-.8.4 0 .7.2.8.6 0 .4-.2.7-.6.8-.4.1-.7-.2-.8-.6Zm1.6-2c-.2 0-.5-.2-.5-.4s.2-.5.4-.5.5.2.5.4-.2.5-.4.5Zm.9 5.9c0 .4-.2.7-.6.8-.4 0-.7-.2-.8-.6 0-.4.2-.7.6-.8.5-.1.8.2.8.6Zm-1.7-10.6c-.2 0-.5-.2-.5-.4s.2-.5.4-.5.5.2.5.4-.2.4-.4.5Zm-.3 1.4c.2 0 .5.2.5.4s-.2.5-.4.5-.5-.2-.5-.4c0-.3.2-.5.4-.5Zm7 26.2c-.2 4.9-.7 25.2-.8 29.7-2.6.2-5.2-.1-5.5-.6-.4-4.3.7-30.4 1.1-40.1l5.7-.1c-.2 3.9-.5 9.8-.5 11.1Zm-3.4-24c-.2 0-.5-.2-.5-.4s.2-.5.4-.5.5.2.5.4-.1.4-.4.5Zm.8 5.9c0 .4-.2.7-.6.8-.4 0-.7-.2-.8-.6-.1-.4.2-.7.6-.8.4-.1.7.2.8.6Zm-1.1-4.2c.2 0 .5.2.5.4s-.2.5-.4.5-.5-.2-.5-.4.2-.4.4-.5Zm2.1.7c-.4 0-.7-.2-.8-.6-.1-.4.2-.7.6-.8.4 0 .7.2.8.6.1.4-.2.8-.6.8Zm.5 1.5c0 .2-.2.5-.4.5s-.5-.2-.5-.4.2-.5.4-.5.5.2.5.4Zm1.8.1c.4 0 .7.2.8.6.1.4-.2.7-.6.8-.4 0-.7-.2-.8-.6-.1-.4.2-.8.6-.8Zm-.3-1.3c0-.2.2-.5.4-.5s.5.2.5.4-.2.5-.4.5c-.3 0-.5-.2-.5-.4Zm1 5.2c-.4 0-.7-.2-.8-.6-.1-.4.2-.7.6-.8.4 0 .7.2.8.6 0 .4-.3.7-.6.8Zm1.6-3c0-.2.2-.5.4-.5s.5.2.5.4-.2.5-.4.5-.5-.2-.5-.4Zm1.1 2.9c-.2 0-.5-.2-.5-.4s.2-.5.4-.5.5.2.5.4c0 .3-.2.5-.4.5Zm.6-3.6v-.2l-2.3-1.7s-6.9-5.1-7.6-6.3c-.7-1.1-3.9-2.7-5-4-1.1-1.3-1-1.5-3.3-2-2.2-.6-1.8.8-4.3 3.3s-2.5 1.7-9.7 6.2c-5.4 3.5-7.1 5.1-7.6 5.8 0-2.2-.1-5.2-.1-8.3.1.1.2.1.3.2.2.1.5.2.9.2.3 0 .5-.1.8-.3.6-.5.4-1.2.3-1.8-.1-.2-.1-.5-.1-.7 0-.5-.7-2.8-2.1-4.5 0-3.8 0-8 .3-9.7 1.4-7.8 5.6-12.6 10.2-17.7.6-.6 1.1-1.3 1.7-1.9 1.8-2 2.9-3.1 3.7-3.8 1.4-1.3 1.8-1.8 2.1-3.6 0 .5.5 1 1.1 1 .5 0 .9-.3 1-.6 0 .5.4.8.8.8.5 0 .8-.4.8-.9 0-.3-.1-.5-.4-.7.2-.1.4-.3.5-.5.2 2.1.6 2.6 2.1 4.1.8.7 2 1.8 3.7 3.8.6.6 1.1 1.3 1.7 1.9 4.5 5.1 8.8 9.8 10.2 17.7v.2c0 .2.1.4.1.6l-5.9-1.4-3.7-.9c.2-.2.3-.4.4-.5.6-1.2.4-2.7-.5-3.8-1.4-1.6-7.5-5.3-10.5-2.8-.9.7-1.1 1.5-1.2 2.1-1.3.1-3.5.4-6.1 1.8-.7.4-1.4.8-2 1.1-3.2 1.7-4.7 2.5-5.2 5.4-.3 2.2-.1 3.7.8 4.7.7.7 1.6.9 2.3.9.3 0 .6 0 .8-.1l.6-.1c7.9-.8 9-1.1 9.4-1.4.7-.5.9-1.2 1-1.7 0-.2.1-.4.2-.5.2-.3.3-.7.3-1.1.1.2.3.3.4.4.7.5 11.3 4.6 19.1 6.9.1 4.8 0 10.6 0 14.4ZM93.8 90.2c-.7-.3-1.5-.8-1.9-1l-.2-.2c-.5-.4-1.1-1.2-1.1-1.8 0-.2 0-.4.4-.7 1.7-1.3 6.6 1.2 7.8 2.5.4.5.5 1.1.3 1.6-.3.6-1.2.6-1.7.5-1.4-.2-2.7-.6-3.6-.9Zm1.4 2.5-.3 3.2c-1.2-.5-2.1-.8-2.5-1 0-.5.1-1.7.3-3 .2.1.3.1.5.2.5.2 1.2.4 2 .6Zm-6.8 2.4c.2.3.3.9.3 1-.3.4-.4.8-.4 1.1-1.6-.7-1.6-1-1.7-2.3V94c0-.5-.5-1-1.1-.9-.6 0-1 .5-.9 1.1v.8c.1 1.4.2 2.3 1.3 3.2-.5.1-1.2.2-1.9.2-2-.3-2-1.7-1.9-2.1.1-.5-.3-1-.8-1.1-.7-.2-1.2.2-1.3.8 0 .2-.2 1.5.7 2.7-.3 0-.7.1-1.1.1l-.6.1c-.5.1-1.2.1-1.5-.2-.2-.2-.6-.9-.2-3 .3-1.9.9-2.3 4.1-4 .6-.3 1.3-.7 2-1.1 2.7-1.5 4.9-1.6 5.7-1.6.5.9 1.2 1.4 1.4 1.5l.3.3c-.2 1.2-.4 2.2-.4 2.9l-.9-.2c-.4-.1-.8.1-1 .4-.3.4-.3.8-.1 1.2Zm34.6 6c-.5 1.6-3.4 2.2-5.9 2-3.9-.5-14.3-4.1-20.4-6.4l.4-3.3 6.5 1.7 10.9 2.6h.6c1 0 1.7-.3 2.1-1 .9-1.7-1-4.5-4.7-9.1-1.6-1.9-4-3.6-4.2-3.8-1.5-2.5-3.3-4.7-5.1-6.8 2.8.9 7 2.9 11 6.8 3.1 3.1 5.5 6.2 7.4 9.5 1.1 2 2.3 5.1 1.4 7.8Zm-12.6-12.9c.2.2.4.4.5.6 3.7 4.5 4.5 6.2 4.5 6.8h-.6l-2.9-.7c0-.8-.1-1.1-.2-1.5v-.2c-.2-1.8-.7-3.4-1.3-5Z"
             class="st1"
             style="fill:#000000;fill-opacity:1"
             id="path512" /></g></g><g id="shape-2fd8fd13-1b78-8000-8004-646e09ba4829"
        style="fill:#000000"><g
           class="fills"
           id="fills-2fd8fd13-1b78-8000-8004-646e09ba4829"
           style="fill:#000000"><path
             d="M84.8 44.2c-2.6-2-5.6-.4-6.2 0v.1c0 .1.3.6 1.7 1.1 2.5 1 5.9.1 5.9.1-.1-.3-.5-.7-1.4-1.3Z"
             class="st1"
             style="fill:#000000;fill-opacity:1"
             id="path516" /></g></g></g></g>
</svg>
